<svg width="30" height="11" viewBox="0 0 30 11" fill="none" xmlns="http://www.w3.org/2000/svg">
<path d="M0.518 5.114C0.518 4.162 0.737333 3.308 1.176 2.552C1.624 1.796 2.226 1.208 2.982 0.787999C3.74733 0.358666 4.58267 0.143999 5.488 0.143999C6.524 0.143999 7.44333 0.400666 8.246 0.913999C9.058 1.418 9.646 2.13667 10.01 3.07H8.092C7.84 2.55667 7.49 2.174 7.042 1.922C6.594 1.67 6.076 1.544 5.488 1.544C4.844 1.544 4.27 1.68867 3.766 1.978C3.262 2.26733 2.86533 2.68267 2.576 3.224C2.296 3.76533 2.156 4.39533 2.156 5.114C2.156 5.83267 2.296 6.46267 2.576 7.004C2.86533 7.54533 3.262 7.96533 3.766 8.264C4.27 8.55333 4.844 8.698 5.488 8.698C6.076 8.698 6.594 8.572 7.042 8.32C7.49 8.068 7.84 7.68533 8.092 7.172H10.01C9.646 8.10533 9.058 8.824 8.246 9.328C7.44333 9.832 6.524 10.084 5.488 10.084C4.57333 10.084 3.738 9.874 2.982 9.454C2.226 9.02467 1.624 8.432 1.176 7.676C0.737333 6.92 0.518 6.066 0.518 5.114ZM20.2641 0.269999L16.6101 10H14.7621L11.0941 0.269999H12.8021L15.6861 8.362L18.5841 0.269999H20.2641ZM29.9848 0.269999L26.3308 10H24.4828L20.8148 0.269999H22.5228L25.4068 8.362L28.3048 0.269999H29.9848Z" fill="white"/>
</svg>
