<svg width="323" height="315" viewBox="0 0 323 315" fill="none" xmlns="http://www.w3.org/2000/svg">
<g clip-path="url(#clip0_477_1253)">
<path d="M6.41809 290.898H323" stroke="#263238" stroke-miterlimit="10"/>
<g opacity="0.15">
<path d="M29.928 207.345C33.8347 207.485 41.9272 204.062 41.9272 204.062C41.9969 203.992 38.0205 199.381 37.7414 199.172C34.4626 196.098 26.3004 192.186 21.9751 194.631C18.8358 196.377 18.2777 200.499 20.3008 203.293C22.3239 206.158 26.5795 207.206 29.928 207.345Z" fill="black"/>
<path d="M42.1365 229.91C45.8339 229.002 52.252 223.972 52.7404 223.623C55.5309 227.255 58.6702 230.749 62.0188 234.102C63.9721 236.058 65.9255 237.874 67.9486 239.76C66.9021 239.062 65.9255 238.433 65.786 238.363C61.8095 236.267 52.9497 234.661 49.3918 238.154C46.8106 240.669 47.3687 244.79 50.0894 246.956C52.8101 249.192 57.2052 249.122 60.4142 248.353C63.6931 247.585 69.2741 243.393 70.7391 242.275C71.5065 242.974 72.2739 243.673 73.111 244.371C76.8782 247.725 80.7151 251.078 84.3428 254.501C85.5985 255.689 86.8542 256.946 88.0402 258.134C87.1333 257.505 86.2961 256.946 86.1566 256.946C82.1801 254.85 73.3203 253.244 69.7624 256.737C67.1812 259.252 67.7393 263.373 70.46 265.539C73.1808 267.774 77.5758 267.705 80.7849 266.936C83.9242 266.168 89.1564 262.395 90.9004 261.068C92.0864 262.325 93.3421 263.653 94.4583 264.98C95.2257 265.888 95.9931 266.727 96.6907 267.635C97.3883 268.543 98.086 269.451 98.7836 270.359C100.039 272.176 101.365 273.992 102.551 275.808C103.388 277.066 104.155 278.254 104.923 279.441C103.667 278.254 101.155 275.948 100.946 275.739C97.3186 273.084 88.8076 270.15 84.7613 273.084C81.8313 275.18 81.7615 279.301 84.0637 281.886C86.4356 284.541 90.7609 285.1 94.0397 284.82C97.7371 284.541 104.574 280.699 105.411 280.21C106.736 282.236 107.922 284.122 109.108 286.008C110.155 287.685 111.062 289.291 111.969 290.758L114.899 289.571C113.852 287.894 112.806 286.218 111.62 284.401C110.294 282.375 108.899 280.21 107.364 278.044C107.853 277.625 110.434 275.11 112.527 272.525C115.945 274.132 123.27 274.76 124.177 274.83C124.177 277.206 124.107 279.511 124.038 281.677C123.968 283.214 123.968 284.611 123.898 286.008L126.968 284.751C126.968 283.772 127.037 282.725 127.037 281.677C127.037 279.232 127.037 276.647 127.037 274.062C128.014 273.922 135.758 272.525 138.757 270.429C141.548 268.543 144.478 265.329 144.687 261.836C144.827 258.343 142.246 255.2 138.618 255.409C133.595 255.689 128.851 263.373 127.735 267.705C127.665 267.984 127.247 270.848 127.037 272.595C127.037 271.547 126.968 270.429 126.968 269.381C126.898 267.146 126.758 264.98 126.689 262.605C126.619 261.487 126.479 260.299 126.409 259.182C126.34 257.994 126.13 256.806 125.921 255.619C125.503 252.824 124.944 250.1 124.386 247.305C126.34 247.236 133.176 246.956 136.176 245.489C139.176 244.022 142.594 241.367 143.292 237.874C143.99 234.451 141.827 230.958 138.269 230.609C133.246 230.12 127.456 237.036 125.642 241.158C125.503 241.437 124.596 244.511 124.107 246.188C123.759 244.511 123.34 242.834 122.921 241.158C121.666 236.337 120.201 231.447 118.805 226.557C118.387 225.09 117.968 223.553 117.55 222.086C118.247 222.086 126.34 221.876 129.758 220.269C132.758 218.802 136.176 216.148 136.874 212.655C137.571 209.232 135.409 205.739 131.851 205.389C126.828 204.9 121.038 211.816 119.224 215.938C119.084 216.218 117.759 220.689 117.48 221.876C116.573 218.593 115.666 215.309 114.899 212.026C113.852 207.485 113.085 203.014 112.666 198.613C113.015 198.613 121.456 198.473 124.944 196.796C127.944 195.329 131.363 192.675 132.06 189.182C132.758 185.758 130.595 182.265 127.037 181.916C122.014 181.427 116.224 188.343 114.41 192.465C114.271 192.814 112.806 197.565 112.597 198.473C112.597 198.194 112.527 197.914 112.527 197.705C112.108 193.024 112.387 188.413 112.736 184.082C112.945 181.567 113.364 179.192 113.713 176.886C115.317 177.026 122.573 177.585 125.851 176.397C128.991 175.279 132.688 172.974 133.804 169.621C134.851 166.337 133.107 162.565 129.619 161.866C124.735 160.818 118.108 167.036 115.945 170.948C115.806 171.158 114.829 173.463 114.131 175.14C114.341 174.092 114.55 173.044 114.759 172.066C115.527 168.363 116.503 165.01 117.34 162.006C117.829 160.329 118.317 158.792 118.805 157.395C120.41 156.697 126.968 153.902 129.27 151.387C131.572 148.942 133.804 145.17 133.176 141.677C132.618 138.253 129.34 135.739 125.851 136.717C121.038 138.044 118.038 146.637 117.898 151.108C117.898 151.527 118.317 157.605 118.387 157.535C118.387 157.535 118.457 157.535 118.457 157.465C117.968 158.792 117.48 160.259 116.992 161.866C116.085 164.8 115.038 168.154 114.201 171.856C113.294 175.559 112.457 179.611 111.969 183.942C111.48 188.273 111.132 192.884 111.411 197.705C111.411 197.774 111.411 197.844 111.411 197.844C110.922 196.447 109.318 192.675 109.178 192.395C107.016 188.483 100.528 182.196 95.5745 183.174C92.0166 183.872 90.2726 187.575 91.2492 190.928C92.2957 194.281 95.9931 196.657 99.1324 197.774C102.69 199.102 110.852 198.473 111.48 198.403C111.829 202.944 112.527 207.625 113.434 212.305C113.992 214.96 114.62 217.685 115.317 220.339C114.829 219.152 114.41 218.104 114.341 217.964C112.178 214.052 105.69 207.764 100.737 208.743C97.179 209.441 95.435 213.144 96.4117 216.497C97.4581 219.92 101.156 222.226 104.295 223.343C107.504 224.531 114.41 224.112 116.294 223.972C116.573 225.02 116.852 225.998 117.061 227.046C118.387 231.936 119.712 236.826 120.828 241.647C121.247 243.323 121.596 245.07 121.945 246.747C121.526 245.699 121.108 244.86 121.038 244.721C118.875 240.808 112.387 234.521 107.434 235.499C103.876 236.198 102.132 239.9 103.109 243.254C104.155 246.607 107.853 248.982 110.992 250.1C114.062 251.218 120.48 250.938 122.642 250.729C122.921 252.475 123.27 254.222 123.479 255.898C123.619 257.086 123.759 258.204 123.828 259.321C123.898 260.509 123.968 261.627 124.038 262.814C124.107 265.05 124.177 267.285 124.177 269.451C124.177 270.918 124.177 272.385 124.177 273.782C123.759 272.106 122.991 268.753 122.852 268.473C121.805 265.679 119.015 261.557 115.806 259.182C115.666 258.762 115.457 258.343 115.248 257.994C113.503 254.99 109.527 253.872 106.667 255.968C102.621 258.972 102.969 267.984 104.365 272.246C104.434 272.525 105.69 275.11 106.457 276.717C105.83 275.808 105.271 274.97 104.574 274.062C103.318 272.246 101.993 270.499 100.597 268.613C99.8998 267.705 99.1324 266.796 98.4348 265.888C97.7371 264.98 96.9 264.072 96.0628 263.164C94.1793 261.068 92.2259 259.042 90.2028 257.086C91.8073 255.968 97.3186 251.916 99.0626 249.052C100.807 246.188 102.132 242.066 100.807 238.782C99.4812 235.569 95.7838 233.822 92.5747 235.499C88.1797 237.874 87.0635 246.816 87.8309 251.218C87.9006 251.497 88.8076 254.571 89.3657 256.317C88.1099 255.13 86.924 253.942 85.5985 252.754C81.9011 249.401 77.9944 246.118 74.1574 242.834C72.9715 241.856 71.7855 240.808 70.6693 239.83C71.2274 239.411 77.9246 234.8 79.878 231.587C81.622 228.723 82.9475 224.601 81.622 221.317C80.2965 218.104 76.5991 216.357 73.3901 218.034C68.995 220.409 67.8788 229.351 68.6462 233.753C68.716 234.102 70.0415 238.573 70.3903 239.691C67.8091 237.455 65.2976 235.22 62.8559 232.914C59.5073 229.701 56.4378 226.417 53.6473 222.994C53.9263 222.784 60.9026 217.964 62.8559 214.681C64.6 211.816 65.9255 207.695 64.6 204.411C63.2745 201.198 59.5771 199.451 56.368 201.128C51.973 203.503 50.8568 212.445 51.6242 216.846C51.6939 217.196 53.0892 222.016 53.438 222.854C53.2985 222.645 53.0892 222.435 52.9497 222.226C50.0196 218.523 47.6477 214.541 45.6246 210.768C44.4387 208.533 43.462 206.367 42.4853 204.202C43.8806 203.433 50.2289 199.87 52.3218 197.076C54.3449 194.421 56.1587 190.439 55.1821 187.016C54.2054 183.663 50.7173 181.497 47.3687 182.824C42.6946 184.641 40.6715 193.513 40.9505 197.984C40.9505 198.194 41.3691 200.709 41.7179 202.455C41.2993 201.477 40.8808 200.499 40.532 199.521C39.1367 195.958 38.0903 192.675 37.1834 189.741C36.695 188.064 36.2764 186.527 35.8579 185.13C36.8345 183.663 40.7412 177.725 41.2993 174.301C41.8574 171.018 41.6482 166.617 39.2065 164.032C36.8345 161.517 32.7186 161.238 30.3466 163.962C27.0678 167.735 29.3002 176.537 31.6024 180.379C31.8117 180.729 35.5091 185.549 35.5788 185.479L35.6486 185.409C35.9974 186.806 36.3462 188.273 36.8345 189.88C37.6717 192.884 38.6484 196.168 39.9739 199.8C41.2993 203.363 42.8341 207.206 44.7875 211.118C46.7408 215.03 49.043 219.082 51.9032 222.924C51.9032 222.994 51.973 222.994 52.0428 223.064C50.8568 222.226 47.4384 219.92 47.1594 219.78C43.1829 217.685 34.3231 216.078 30.7652 219.571C28.184 222.086 28.7421 226.208 31.4628 228.373C34.5324 230.818 38.9274 230.679 42.1365 229.91Z" fill="black"/>
<path d="M113.294 176.188C113.364 176.188 112.597 170.18 112.527 169.76C111.48 165.429 106.876 157.605 101.853 157.255C98.2255 156.976 95.5745 160.12 95.6443 163.543C95.7838 167.106 98.7138 170.319 101.435 172.275C104.644 174.581 113.294 176.188 113.294 176.188Z" fill="black"/>
</g>
<g opacity="0.15">
<path d="M310.303 183.453C306.676 184.99 297.885 184.641 297.885 184.641C297.816 184.641 299.839 178.912 300.048 178.563C302.071 174.581 308.28 167.944 313.233 168.713C316.791 169.271 318.744 172.834 317.907 176.257C317 179.611 313.443 182.126 310.303 183.453Z" fill="black"/>
<path d="M209.566 188.762C213.054 188.693 219.612 185.619 221.077 184.92C222.263 186.946 223.449 189.042 224.565 191.277C226.449 195.12 228.332 199.381 229.588 203.922C229.658 204.202 229.728 204.411 229.797 204.691C229.309 203.922 226.239 199.94 225.96 199.731C222.821 196.517 214.938 192.186 210.403 194.421C207.194 196.028 206.427 200.08 208.311 203.014C210.194 206.018 214.38 207.275 217.659 207.625C221.496 207.974 229.518 205.04 229.797 204.97C230.983 209.232 231.82 213.703 232.448 218.244C232.937 221.597 233.285 224.95 233.565 228.373C232.867 227.395 230.007 223.693 229.797 223.483C226.658 220.269 218.775 215.938 214.24 218.174C211.031 219.78 210.264 223.832 212.147 226.766C214.031 229.77 218.217 231.028 221.496 231.377C225.263 231.727 232.937 229.002 233.565 228.723C233.704 230.259 233.844 231.796 233.983 233.333C234.402 238.363 234.82 243.463 235.309 248.423C235.518 250.17 235.727 251.846 236.006 253.523C234.96 252.126 232.937 249.541 232.797 249.331C229.658 246.118 221.775 241.786 217.24 244.022C214.031 245.629 213.264 249.681 215.147 252.615C217.031 255.619 221.217 256.876 224.495 257.226C227.844 257.505 234.332 255.339 236.146 254.711C236.564 257.505 237.053 260.299 237.681 263.024C237.96 264.212 238.169 265.399 238.518 266.517C238.866 267.635 239.146 268.752 239.425 269.87C240.122 272.106 240.82 274.202 241.517 276.297C241.866 277.345 242.215 278.323 242.634 279.371C241.797 277.764 240.401 275.25 240.192 275.04C237.611 271.407 230.425 265.888 225.681 267.425C222.263 268.543 220.868 272.385 222.263 275.599C223.658 278.882 227.565 280.768 230.844 281.537C234.402 282.375 242.145 280.978 243.122 280.768C244.029 283.283 244.936 285.659 245.773 287.894C246.122 288.872 246.54 289.78 246.889 290.689L250.238 290.758C249.68 289.501 249.122 288.174 248.563 286.776C247.726 284.751 246.889 282.585 245.982 280.419C246.819 280 253.447 276.856 256.098 274.132C259.028 275.808 262.307 277.206 262.935 277.485C262.307 280.07 261.749 282.585 261.26 284.96C260.772 287.056 260.423 289.082 260.005 290.968H261.26H263.214C263.493 289.222 263.841 287.405 264.19 285.519C264.609 283.353 265.097 281.118 265.586 278.812C266.562 278.952 274.306 280.07 277.864 279.022C281.073 278.114 284.91 276.018 286.165 272.735C287.421 269.521 285.886 265.679 282.398 264.701C277.585 263.373 270.608 269.242 268.167 272.944C268.027 273.154 266.492 276.228 265.725 277.834C266.004 276.437 266.353 275.04 266.702 273.573C267.19 271.477 267.748 269.242 268.306 267.146C268.655 266.028 268.934 264.91 269.283 263.792C269.562 262.675 270.05 261.627 270.399 260.509C270.957 258.902 271.655 257.226 272.352 255.619C274.445 256.247 280.654 257.924 283.863 257.505C287.212 257.086 291.258 255.619 293.002 252.545C294.746 249.541 293.839 245.559 290.491 244.092C285.886 242.066 278.213 246.747 275.213 250.1C275.143 250.24 274.585 251.008 273.887 251.916C274.585 250.309 275.282 248.772 276.05 247.166C278.213 242.695 280.584 238.224 282.956 233.753C283.445 232.844 283.933 231.866 284.421 230.958C286.165 231.517 292.863 233.403 296.281 232.984C299.63 232.565 303.676 231.098 305.42 228.024C307.164 225.02 306.257 221.038 302.908 219.571C298.304 217.545 290.63 222.226 287.63 225.579C287.491 225.719 286.863 226.627 286.096 227.675C287.351 225.23 288.537 222.715 289.654 220.269C291.607 215.938 293.281 211.537 294.607 207.136C295.235 207.345 303.048 209.721 306.815 209.232C310.164 208.812 314.21 207.345 315.954 204.271C317.698 201.267 316.791 197.285 313.443 195.818C308.838 193.792 301.164 198.473 298.165 201.826C297.955 202.036 295.583 205.389 294.746 206.647C294.746 206.577 294.816 206.577 294.816 206.507C296.141 201.896 296.839 197.355 297.327 192.954C297.816 188.623 297.816 184.431 297.816 180.659C297.816 176.816 297.537 173.393 297.258 170.249C297.118 168.573 296.909 167.036 296.769 165.639L296.839 165.709C296.909 165.778 298.653 159.91 298.723 159.561C299.56 155.16 298.513 146.148 294.049 143.772C290.839 142.096 287.142 143.772 285.817 146.986C284.491 150.269 285.817 154.391 287.491 157.325C289.235 160.259 294.955 164.451 296.42 165.499C296.56 166.966 296.7 168.573 296.839 170.319C297.048 173.393 297.188 176.886 297.188 180.659C297.188 181.637 297.118 182.754 297.118 183.802C296.839 181.986 296.351 179.541 296.281 179.331C294.955 175.07 289.933 167.525 284.91 167.455C281.282 167.385 278.771 170.669 279.119 174.092C279.398 177.655 282.538 180.659 285.398 182.475C288.328 184.361 295.514 185.409 297.118 185.619C296.979 187.924 296.839 190.369 296.56 192.814C296.002 197.076 295.235 201.617 293.839 206.158C293.77 206.437 293.63 206.647 293.56 206.926C293.56 206.018 293.211 200.988 293.142 200.709C292.305 196.307 288.119 188.273 283.096 187.645C279.538 187.226 276.678 190.16 276.608 193.653C276.538 197.216 279.259 200.569 281.91 202.665C284.91 205.04 293.211 207.066 293.49 207.136C292.095 211.327 290.421 215.519 288.398 219.711C286.933 222.715 285.398 225.719 283.793 228.723C283.793 227.535 283.445 222.924 283.375 222.575C282.538 218.174 278.352 210.14 273.329 209.511C269.771 209.092 266.911 212.026 266.841 215.519C266.771 219.082 269.492 222.435 272.143 224.531C275.073 226.836 283.026 228.862 283.654 229.002C282.887 230.399 282.189 231.727 281.422 233.054C278.98 237.525 276.538 241.926 274.236 246.397C273.469 247.934 272.701 249.471 272.004 251.008C271.934 249.261 271.655 245.978 271.585 245.699C270.748 241.297 266.562 233.263 261.539 232.635C257.981 232.216 255.121 235.15 255.051 238.643C254.982 242.206 257.702 245.559 260.353 247.655C263.004 249.75 269.562 251.567 271.446 251.986C270.26 254.571 269.074 257.156 268.097 259.81C267.678 260.928 267.19 262.046 266.841 263.164C266.492 264.281 266.144 265.399 265.795 266.447C265.167 268.752 264.539 270.848 263.981 273.014C263.702 274.062 263.493 275.11 263.214 276.158C263.353 274.341 263.632 271.477 263.562 271.198C263.423 266.727 260.493 258.134 255.609 256.806C252.121 255.828 248.912 258.343 248.284 261.766C248.215 262.186 248.145 262.605 248.215 263.094C246.052 266.447 244.936 271.267 244.936 274.271C244.936 274.551 245.354 277.974 245.564 279.651C245.075 278.323 244.517 276.996 244.029 275.599C243.262 273.573 242.564 271.407 241.797 269.311C241.448 268.194 241.099 267.146 240.75 266.028C240.401 264.91 240.192 263.792 239.843 262.675C239.425 260.998 239.076 259.252 238.727 257.505C240.82 256.876 246.959 254.85 249.401 252.754C251.912 250.589 254.563 247.096 254.284 243.533C254.075 240.04 251.075 237.246 247.517 237.874C242.564 238.713 238.727 246.886 238.099 251.357C238.099 251.497 238.029 252.475 238.029 253.593C237.75 251.916 237.471 250.17 237.262 248.423C236.634 243.463 236.146 238.433 235.588 233.403C235.448 232.355 235.378 231.307 235.239 230.259C236.983 229.701 243.68 227.605 246.192 225.369C248.703 223.204 251.354 219.711 251.075 216.148C250.866 212.655 247.866 209.86 244.308 210.489C239.355 211.327 235.518 219.501 234.89 223.972C234.89 224.112 234.82 225.299 234.751 226.557C234.402 223.832 234.053 221.108 233.634 218.383C232.867 213.703 231.89 209.092 230.565 204.691C231.193 204.481 239.006 202.176 241.866 199.731C244.378 197.565 247.029 194.072 246.75 190.509C246.54 187.016 243.541 184.222 239.983 184.85C235.03 185.689 231.193 193.862 230.565 198.333C230.495 198.613 230.355 202.735 230.425 204.202C230.425 204.132 230.425 204.062 230.355 204.062C228.89 199.451 227.007 195.259 224.984 191.417C222.961 187.505 220.728 184.012 218.635 180.868C216.543 177.725 214.38 174.93 212.427 172.485C211.38 171.158 210.403 169.97 209.497 168.922H209.636C209.706 168.922 207.962 163.054 207.822 162.705C206.078 158.583 200.218 151.667 195.265 152.086C191.637 152.435 189.544 155.928 190.172 159.351C190.87 162.844 194.288 165.569 197.288 167.036C200.358 168.573 207.473 168.852 209.217 168.922C210.124 170.04 211.171 171.297 212.217 172.695C214.101 175.14 216.124 177.934 218.217 181.148C218.775 181.986 219.333 182.964 219.891 183.802C218.635 182.475 216.891 180.729 216.752 180.519C213.264 177.655 204.962 174.232 200.706 176.886C197.637 178.842 197.358 182.964 199.52 185.619C201.962 188.064 206.218 188.832 209.566 188.762Z" fill="black"/>
<path d="M221.286 184.012C221.217 184.082 219.752 178.144 219.752 177.725C219.194 173.253 220.728 164.381 225.333 162.216C228.611 160.679 232.239 162.635 233.355 165.918C234.541 169.271 232.937 173.323 231.053 176.118C228.821 179.401 221.356 184.012 221.286 184.012Z" fill="black"/>
</g>
<g opacity="0.3">
<path d="M80.7175 113.007L96.9646 95.13L66.0068 66.9162L49.7597 84.7936L80.7175 113.007Z" stroke="black" stroke-miterlimit="10"/>
<path d="M77.8549 107.236C78.9711 106.048 80.7849 105.978 81.9708 107.026C82.0406 107.096 82.1104 107.166 82.2499 107.305L91.5981 97.0359C91.5283 96.9661 91.3888 96.8962 91.319 96.8263C90.133 95.7086 90.0633 93.8922 91.1097 92.7046C91.1795 92.6347 91.1795 92.6347 91.2492 92.5649L69.1346 72.4451C69.0648 72.515 69.0648 72.515 68.995 72.5848C67.8788 73.7725 66.065 73.8423 64.879 72.7944C64.8093 72.7245 64.7395 72.6547 64.6 72.515L55.2518 82.7844C55.3216 82.8543 55.4611 82.9242 55.5309 82.994C56.7168 84.1118 56.7866 85.9281 55.7402 87.1158C55.6704 87.1856 55.6006 87.2555 55.4611 87.3952L77.5758 107.585C77.7153 107.445 77.7851 107.305 77.8549 107.236ZM69.8322 86.7665C71.5762 84.8104 74.6458 84.6707 76.5991 86.4172C78.5525 88.1637 78.692 91.2375 76.9479 93.1936C75.2039 95.1497 72.1343 95.2894 70.181 93.5429C68.2276 91.7265 68.0881 88.7226 69.8322 86.7665Z" stroke="black" stroke-miterlimit="10"/>
</g>
<g opacity="0.3">
<path d="M199.105 23.8142L192.947 0.442654L152.475 11.1355L158.633 34.507L199.105 23.8142Z" stroke="black" stroke-miterlimit="10"/>
<path d="M192.684 23.0539C192.265 21.517 193.172 19.9102 194.777 19.491C194.916 19.491 194.986 19.4212 195.126 19.4212L191.568 6.00798C191.428 6.07784 191.358 6.07784 191.219 6.14771C189.684 6.56687 188.08 5.65868 187.661 4.0519C187.661 3.98204 187.661 3.91218 187.591 3.84232L158.71 11.4571C158.71 11.5269 158.779 11.5968 158.779 11.5968C159.198 13.1337 158.291 14.7405 156.686 15.1597C156.547 15.1597 156.477 15.2295 156.338 15.2295L159.896 28.6427C160.035 28.5729 160.105 28.5729 160.244 28.503C161.779 28.0838 163.384 28.992 163.802 30.5988C163.802 30.7385 163.872 30.8084 163.872 30.9481L192.823 23.3333C192.754 23.3333 192.754 23.1936 192.684 23.0539ZM171.197 18.7226C170.499 16.1377 172.034 13.5529 174.615 12.8543C177.197 12.1557 179.778 13.6926 180.475 16.2774C181.173 18.8623 179.638 21.4471 177.057 22.1457C174.476 22.7745 171.825 21.2375 171.197 18.7226Z" stroke="black" stroke-miterlimit="10"/>
</g>
<g opacity="0.3">
<path d="M223.579 154.677L237.748 174.246L271.636 149.641L257.467 130.072L223.579 154.677Z" stroke="black" stroke-miterlimit="10"/>
<path d="M229.797 153.064C230.774 154.391 230.425 156.208 229.17 157.116C229.1 157.186 228.96 157.255 228.891 157.325L237.053 168.573C237.122 168.503 237.262 168.433 237.332 168.363C238.657 167.385 240.471 167.735 241.378 168.992C241.448 169.062 241.448 169.062 241.448 169.132L265.655 151.597C265.586 151.527 265.586 151.527 265.516 151.457C264.539 150.13 264.888 148.313 266.144 147.405C266.213 147.335 266.353 147.265 266.423 147.196L258.26 135.948C258.191 136.018 258.051 136.088 257.981 136.158C256.656 137.136 254.842 136.786 253.935 135.529C253.865 135.459 253.796 135.319 253.726 135.25L229.518 152.854C229.658 152.854 229.728 152.924 229.797 153.064ZM251.494 149.361C253.028 151.527 252.54 154.461 250.447 156.068C248.284 157.605 245.354 157.116 243.75 155.02C242.215 152.854 242.703 149.92 244.796 148.313C246.959 146.707 249.959 147.196 251.494 149.361Z" stroke="black" stroke-miterlimit="10"/>
</g>
<g opacity="0.3">
<path d="M261.696 58.5107L246.41 77.2171L278.803 103.763L294.09 85.0562L261.696 58.5107Z" stroke="black" stroke-miterlimit="10"/>
<path d="M264.888 64.1317C263.841 65.3892 262.028 65.5289 260.772 64.5509C260.702 64.481 260.563 64.4112 260.493 64.2715L251.703 75.0299C251.773 75.0998 251.912 75.1697 251.982 75.2395C253.238 76.2874 253.377 78.1038 252.4 79.3613C252.331 79.4311 252.331 79.4311 252.261 79.501L275.422 98.4331C275.492 98.3633 275.492 98.3633 275.562 98.2934C276.608 97.0359 278.422 96.8962 279.677 97.8743C279.747 97.9441 279.887 98.014 279.957 98.1537L288.747 87.3952C288.677 87.3253 288.537 87.2555 288.468 87.1856C287.212 86.1377 287.072 84.3214 288.049 83.0639C288.119 82.994 288.189 82.8543 288.328 82.7844L265.097 63.7824C265.027 63.9222 264.958 63.992 264.888 64.1317ZM274.027 84.1816C272.352 86.2076 269.353 86.5569 267.33 84.8802C265.306 83.2036 264.958 80.1996 266.632 78.1737C268.306 76.1477 271.306 75.7984 273.329 77.475C275.352 79.0818 275.701 82.0858 274.027 84.1816Z" stroke="black" stroke-miterlimit="10"/>
</g>
<g opacity="0.3">
<path d="M0.504208 237.58L14.6731 257.15L48.5609 232.545L34.392 212.976L0.504208 237.58Z" stroke="black" stroke-miterlimit="10"/>
<path d="M6.69719 235.918C7.67387 237.246 7.32506 239.062 6.06933 239.97C5.99957 240.04 5.86005 240.11 5.79028 240.18L13.8827 251.497C13.9525 251.427 14.092 251.357 14.1618 251.287C15.4873 250.309 17.3011 250.659 18.208 251.916C18.2778 251.986 18.2778 251.986 18.2778 252.056L42.5551 234.451C42.4853 234.381 42.4853 234.381 42.4156 234.311C41.4389 232.984 41.7877 231.168 43.0434 230.26C43.1132 230.19 43.2527 230.12 43.3225 230.05L35.1603 218.802C35.0905 218.872 34.951 218.942 34.8812 219.012C33.5557 219.99 31.7419 219.641 30.835 218.383C30.7652 218.313 30.6955 218.174 30.6257 218.104L6.48791 235.639C6.55767 235.778 6.62743 235.848 6.69719 235.918ZM28.3933 232.285C29.9281 234.451 29.4397 237.385 27.3469 238.992C25.1842 240.529 22.2542 240.04 20.6497 237.944C19.1149 235.778 19.6032 232.844 21.6961 231.238C23.8588 229.631 26.8585 230.12 28.3933 232.285Z" stroke="black" stroke-miterlimit="10"/>
</g>
<path d="M47.857 145.449L67.3905 154.461L83.5056 132.735C83.5056 132.735 83.2963 127.285 83.5056 126.447C83.7149 125.679 85.6683 122.814 86.0171 122.325C86.3659 121.836 87.0635 122.325 87.1333 123.024C87.2728 123.723 86.7845 124.281 86.5752 124.84C86.3659 125.399 85.8775 126.657 85.8775 126.657L86.4356 128.333L92.505 123.513C92.505 123.513 93.9002 121.697 94.3188 122.465C94.5979 122.954 94.5281 123.583 94.2491 124.002L91.3888 127.844L93.2026 127.984L97.6674 124.212C97.6674 124.212 98.4348 123.862 98.5743 124.91C98.6441 125.539 98.4348 126.168 97.9464 126.657L95.2257 129.172L93.4817 130.289L98.7138 128.124C98.7138 128.124 99.4115 128.822 99.2022 129.172L93.4817 133.643L97.6674 132.944C97.6674 132.944 98.2255 133.713 97.8767 134.202L86.2961 137.485C86.2961 137.485 70.1112 167.944 69.8322 168.433C69.6229 168.922 67.1812 169.9 65.3674 169.341C63.5536 168.782 40.2529 158.653 40.2529 158.653" fill="#0C0C0C"/>
<path d="M77.7851 153.413C81.9708 145.519 86.2961 137.415 86.2961 137.415L97.8767 134.132C98.2255 133.643 97.6674 132.874 97.6674 132.874L93.4816 133.573L99.2021 129.102C99.4114 128.752 98.7138 128.054 98.7138 128.054L93.4816 130.22L95.2257 129.102L97.9464 126.587C98.4348 126.168 98.6441 125.469 98.5743 124.84C98.4348 123.792 97.6674 124.142 97.6674 124.142L93.2026 127.914L91.3888 127.844L94.1095 124.142C94.4583 123.723 94.4583 123.094 94.1793 122.605C93.6909 121.836 92.3654 123.653 92.3654 123.653L86.2961 128.473L85.738 126.796C85.738 126.796 86.2263 125.539 86.4356 124.98C86.6449 124.421 87.1333 123.862 86.9937 123.164C86.8542 122.465 86.2263 122.046 85.8775 122.465C85.5287 122.954 83.5754 125.748 83.3661 126.587C83.1568 127.355 83.3661 132.874 83.3661 132.874L71.5065 148.802L77.7851 153.413Z" fill="white" stroke="#263238" stroke-miterlimit="10"/>
<path d="M86.3659 128.403C86.3659 128.403 87.4821 129.381 87.8309 130.289C88.1797 131.198 86.5752 133.363 85.8776 133.713" stroke="#263238" stroke-miterlimit="10"/>
<path d="M129.425 134.283C141.684 122.006 141.684 102.101 129.425 89.8243C117.165 77.5475 97.2881 77.5475 85.0285 89.8243C72.7689 102.101 72.7688 122.006 85.0285 134.283C97.2881 146.56 117.165 146.56 129.425 134.283Z" fill="white" stroke="#263238" stroke-miterlimit="10"/>
<path d="M118.267 136.028C131.492 129.922 137.27 114.235 131.173 100.991C125.075 87.7474 109.41 81.9613 96.1846 88.0677C82.9591 94.1742 77.1811 109.861 83.279 123.105C89.3769 136.349 105.042 142.135 118.267 136.028Z" fill="white" stroke="#263238" stroke-miterlimit="10"/>
<path d="M112.666 136.088L111.759 131.896C108.62 132.455 106.109 131.966 104.155 130.429C102.202 128.892 100.807 126.307 99.8998 122.605L106.039 120.16C106.388 121.627 106.876 122.884 107.295 123.862C107.783 124.84 108.341 125.469 108.899 125.888C109.527 126.307 110.225 126.377 111.062 126.238C111.969 126.028 112.597 125.609 112.806 124.91C113.015 124.212 113.085 123.513 112.876 122.745C112.527 121.208 111.899 120.02 110.992 119.112C110.085 118.204 108.899 117.365 107.434 116.597L102.9 114.082C101.853 113.453 100.876 112.824 100.039 112.126C99.2021 111.427 98.4348 110.589 97.8069 109.611C97.179 108.633 96.6907 107.375 96.4116 105.908C95.7838 103.044 96.1326 100.669 97.3883 98.7824C98.644 96.8263 100.597 95.499 103.318 94.7305L102.481 90.6786L104.644 90.1896L105.481 94.2415C107.155 93.9621 108.55 94.1018 109.736 94.521C110.922 94.9401 111.899 95.5689 112.597 96.477C113.364 97.3154 113.992 98.2934 114.48 99.4112C114.968 100.529 115.387 101.577 115.666 102.695L109.387 105C109.108 103.882 108.829 102.904 108.481 102.066C108.132 101.228 107.713 100.599 107.225 100.25C106.736 99.8303 106.109 99.7605 105.271 99.9701C104.434 100.18 103.876 100.669 103.597 101.367C103.318 102.066 103.248 102.834 103.388 103.603C103.667 105 104.225 106.048 105.062 106.747C105.899 107.445 106.806 108.074 107.853 108.703L112.317 111.148C113.503 111.846 114.62 112.615 115.666 113.523C116.713 114.431 117.689 115.409 118.457 116.597C119.224 117.784 119.782 119.182 120.131 120.858C120.48 122.465 120.48 124.002 120.061 125.399C119.712 126.866 119.015 128.124 117.968 129.172C116.922 130.22 115.596 131.058 113.992 131.547L114.899 135.808L112.666 136.088Z" fill="#263238"/>
<path d="M82.7385 282.445L91.0402 288.313C91.0402 288.313 96.0631 289.361 96.691 289.85C97.3188 290.339 97.3188 292.575 97.3188 292.575C97.3188 292.575 92.2262 293.204 87.4823 293.343C82.7385 293.483 80.2968 293.343 76.5994 293.204C72.902 293.064 69.8324 293.343 69.0651 292.435C68.2977 291.527 69.0651 283.703 69.0651 283.703C69.0651 283.703 77.7156 279.022 82.7385 282.445Z" fill="white" stroke="#263238" stroke-miterlimit="10"/>
<path d="M87.4822 293.343C92.226 293.204 97.3187 292.575 97.3187 292.575C97.3187 292.575 97.3187 291.876 97.1791 291.178C91.8772 291.597 82.0407 292.295 79.3897 291.667C76.3202 290.898 70.6694 290.619 68.7161 290.549C68.7161 291.457 68.8556 292.226 69.0649 292.435C69.8323 293.343 72.9018 293.064 76.5992 293.204C80.2966 293.343 82.7383 293.483 87.4822 293.343Z" fill="white" stroke="#263238" stroke-miterlimit="10"/>
<path d="M35.2998 286.008L39.6251 291.527L47.1594 296.277C47.6478 297.814 47.4385 298.234 47.299 298.723C47.1594 299.212 44.8573 299.351 42.0668 299.212C39.2763 299.072 32.3698 299.98 30.2769 299.351C28.2538 298.723 21.6962 296.906 20.9288 296.557C20.1614 296.138 18.9057 295.788 19.2545 294.391C19.673 292.994 20.7892 288.034 20.7892 288.034C20.7892 288.034 27.1376 283.493 35.2998 286.008Z" fill="white" stroke="#263238" stroke-miterlimit="10"/>
<path d="M42.0668 299.212C44.8573 299.351 47.1594 299.212 47.2989 298.723C47.3687 298.373 47.5082 298.024 47.4385 297.395C43.9503 297.535 34.8812 297.884 32.3 297.605C29.37 297.256 20.859 294.112 19.4637 293.553C19.394 293.902 19.3242 294.182 19.2544 294.391C18.8359 295.788 20.1614 296.208 20.9287 296.557C21.6961 296.976 28.2538 298.723 30.2769 299.351C32.3698 299.98 39.2763 299.142 42.0668 299.212Z" fill="white" stroke="#263238" stroke-miterlimit="10"/>
<path d="M29.7886 197.006L33.4162 240.948L22.1845 281.537L20.58 287.964C20.58 287.964 21.8357 289.012 25.254 288.872C28.6724 288.663 35.4394 287.056 35.4394 287.056C35.4394 287.056 36.3463 285.449 36.137 283.982C35.9277 282.585 35.2301 282.026 35.2301 281.467C35.2301 280.908 50.229 240.948 50.229 240.948L51.6242 217.685L61.8095 243.603L68.437 283.703C68.437 283.703 68.7858 285.659 69.3439 285.519C69.902 285.309 78.8316 282.096 78.8316 282.096L82.2499 282.445C82.2499 282.445 82.5987 277.275 81.2035 276.158C79.8083 275.04 79.2502 273.992 79.2502 273.992L77.8549 235.918L63.9024 196.727L62.6467 191.906L30.4862 193.723L29.7886 197.006Z" fill="#263238" stroke="#263238" stroke-miterlimit="10"/>
<path d="M29.7886 197.006L30.0676 199.381L63.7629 196.796L62.2979 193.653L29.7886 197.006Z" fill="url(#paint0_linear_477_1253)"/>
<path d="M26.0214 142.166C26.0214 142.166 23.9983 149.152 24.2076 152.295C24.4169 155.509 28.3933 180.659 28.3933 180.659L29.8583 190.369C29.8583 190.369 28.7421 193.303 28.8119 194.002C28.9514 194.701 28.6724 196.517 29.7188 196.936C30.7652 197.425 39.4158 196.796 48.2756 196.587C57.1354 196.377 60.5538 196.028 61.7397 195.539C62.8559 195.05 64.2512 193.513 64.0419 192.256C63.8326 190.998 62.9257 188.693 62.9257 188.693C62.9257 188.693 62.4374 158.234 61.8095 153.553C61.1119 148.872 60.3445 142.515 57.9726 140.07C55.6007 137.695 51.6242 136.647 51.6242 136.647L48.4151 142.585C48.4151 142.585 37.4624 138.114 33.486 137.695C29.4397 137.345 26.0214 142.166 26.0214 142.166Z" fill="#0C0C0C"/>
<path d="M32.7187 164.381C31.2536 164.87 29.9979 165.22 29.4398 165.289" stroke="#263238" stroke-miterlimit="10"/>
<path d="M42.8342 160.958C42.8342 160.958 38.5787 162.425 34.8115 163.683" stroke="#263238" stroke-miterlimit="10"/>
<path d="M32.1605 172.695C31.4629 173.184 30.835 173.603 30.3467 173.812" stroke="#263238" stroke-miterlimit="10"/>
<path d="M43.9503 162.285C43.9503 162.285 38.5786 167.665 34.1836 171.228" stroke="#263238" stroke-miterlimit="10"/>
<path d="M49.9499 148.663C49.9499 148.663 40.7413 143.772 36.2765 142.375C31.8117 140.978 30.2072 140.768 29.2305 140.978C28.1841 141.188 24.2076 145.309 23.8588 144.192C23.51 143.074 25.1145 135.739 25.5331 134.132C26.0214 132.525 32.9279 130.569 34.8813 130.01C36.8346 129.451 46.4618 133.224 48.6942 133.852C50.8569 134.551 52.88 137.066 52.88 138.743C52.88 140.559 49.9499 148.663 49.9499 148.663Z" fill="#0C0C0C"/>
<path d="M26.4401 136.577C26.4401 136.577 28.3236 135.11 29.4398 135.808C30.556 136.577 49.3221 147.126 49.3221 147.126L50.2988 137.275" stroke="#263238" stroke-miterlimit="10"/>
<path d="M52.88 106.677C52.88 106.677 54.4845 111.567 54.4845 112.754C54.4845 114.012 53.9264 115.968 54.2752 116.737C54.624 117.505 56.9262 120.998 56.5774 121.627C56.2286 122.186 54.7635 124.281 54.7635 124.281C54.7635 124.281 54.4147 131.407 53.9962 132.176C53.6473 132.944 51.1359 132.874 50.0197 132.874C48.9035 132.874 47.6478 132.874 47.6478 132.874C47.6478 132.874 49.7407 146.986 49.2523 147.196C48.8337 147.335 35.2301 133.433 35.2301 133.433L35.7184 123.234C35.7184 123.234 30.9746 116.178 31.7419 113.034C32.5093 109.89 39.9041 107.375 43.9504 106.327C47.8571 105.349 52.88 106.677 52.88 106.677Z" fill="white" stroke="#263238" stroke-miterlimit="10"/>
<path d="M51.8335 117.365C51.973 118.064 51.7637 118.762 51.3452 118.832C50.9266 118.902 50.508 118.343 50.3685 117.645C50.229 116.946 50.4383 116.248 50.8568 116.178C51.2754 116.108 51.694 116.667 51.8335 117.365Z" fill="#263238"/>
<path d="M49.322 114.85C49.322 114.85 50.7173 113.104 52.7404 113.872" stroke="#263238" stroke-miterlimit="10"/>
<path d="M47.8571 122.675C47.8571 122.675 49.2523 124.77 51.8335 125.12" stroke="#263238" stroke-miterlimit="10"/>
<path d="M37.3927 119.531C37.3927 119.531 39.8344 119.88 39.8344 119.251C39.8344 118.553 39.5553 116.108 39.5553 116.108C39.5553 116.108 42.9039 113.453 42.7644 112.196C42.6946 110.938 41.1599 109.89 41.2296 109.541C41.2994 109.192 45.8339 107.794 49.3918 107.794C53.0195 107.794 53.7869 108.563 54.9031 106.816C56.0193 105.07 56.9262 102.834 54.6938 100.459C52.5311 98.0838 51.4847 99.1317 50.2987 98.8523C49.1825 98.5729 45.8339 95.2196 43.5318 95.988C41.2296 96.7565 40.9506 98.8523 40.9506 98.8523C40.9506 98.8523 36.6951 95.988 34.8812 97.525C33.0674 99.0619 32.8581 100.739 32.8581 100.739C32.8581 100.739 30.0676 100.808 28.8817 103.393C27.6957 105.978 27.7655 107.375 27.7655 107.375C27.7655 107.375 25.3936 108.772 25.4633 110.868C25.5331 112.964 26.2307 113.942 26.2307 113.942C26.2307 113.942 24.2076 114.78 26.2307 117.854C28.2538 120.928 29.0212 121.277 29.0212 121.277C29.0212 121.277 26.719 121.557 29.0212 123.443C31.3234 125.329 35.5091 126.098 36.416 126.587C37.3927 127.076 37.5322 123.932 37.5322 121.976C37.6717 120.16 37.3927 119.531 37.3927 119.531Z" fill="#263238" stroke="#263238" stroke-miterlimit="10"/>
<path d="M38.9275 120.509C38.9275 120.509 36.4858 117.295 35.0905 118.343C33.765 119.391 34.6022 124.002 36.0672 125.399C37.4625 126.796 39.5553 124.351 39.5553 124.351" fill="white"/>
<path d="M38.9275 120.509C38.9275 120.509 36.4858 117.295 35.0905 118.343C33.765 119.391 34.6022 124.002 36.0672 125.399C37.4625 126.796 39.5553 124.351 39.5553 124.351" stroke="#263238" stroke-miterlimit="10"/>
<path d="M47.6477 132.874L43.5317 132.804L48.3453 137.695L47.6477 132.874Z" fill="#263238" stroke="#263238" stroke-miterlimit="10"/>
<path d="M37.6717 144.89L57.2052 153.902L73.3203 132.176C73.3203 132.176 73.111 126.727 73.3203 125.888C73.5296 125.12 75.483 122.255 75.8318 121.766C76.1806 121.277 76.8782 121.766 76.948 122.465C77.0875 123.164 76.5992 123.723 76.3899 124.281C76.1806 124.84 75.6922 126.098 75.6922 126.098L76.2504 127.774L82.3197 122.954C82.3197 122.954 83.7149 121.138 84.1335 121.906C84.4126 122.395 84.3428 123.024 84.0637 123.443L81.343 127.146L83.1568 127.285L87.6216 123.513C87.6216 123.513 88.389 123.164 88.5285 124.212C88.5983 124.84 88.389 125.469 87.9007 125.958L85.1799 128.473L83.4359 129.591L88.6681 127.425C88.6681 127.425 89.3657 128.124 89.1564 128.473L83.4359 132.944L87.6216 132.246C87.6216 132.246 88.1797 133.014 87.8309 133.503L76.2504 136.786C76.2504 136.786 60.0655 167.246 59.7864 167.735C59.5771 168.224 57.1355 169.202 55.3216 168.643C53.5078 168.084 30.2072 157.954 30.2072 157.954" fill="#0C0C0C"/>
<path d="M67.5998 152.854C71.7856 144.96 76.1109 136.856 76.1109 136.856L87.6914 133.573C88.0402 133.084 87.4821 132.315 87.4821 132.315L83.2964 133.014L89.0169 128.543C89.2262 128.194 88.5286 127.495 88.5286 127.495L83.2964 129.661L85.0404 128.543L87.7612 126.028C88.2495 125.609 88.4588 124.91 88.389 124.281C88.2495 123.234 87.4821 123.583 87.4821 123.583L83.0173 127.355L81.2035 127.216L83.9243 123.513C84.2731 123.094 84.2731 122.465 83.994 121.976C83.5057 121.208 82.1802 123.024 82.1802 123.024L76.1109 127.844L75.5528 126.168C75.5528 126.168 76.0411 124.91 76.2504 124.351C76.4597 123.792 76.948 123.234 76.8085 122.535C76.669 121.836 76.0411 121.417 75.6923 121.836C75.3435 122.325 73.3901 125.12 73.1808 125.958C72.9715 126.727 73.1808 132.246 73.1808 132.246L61.2515 148.383L67.5998 152.854Z" fill="white" stroke="#263238" stroke-miterlimit="10"/>
<path d="M231.89 60.988V272.735C231.89 278.533 227.216 283.283 221.356 283.283H130.037C124.247 283.283 119.503 278.603 119.503 272.735V60.988C119.503 55.1896 124.177 50.4391 130.037 50.4391H169.244V50.5788C170.22 54.0719 172.453 56.3772 174.964 56.3772H176.429C178.941 56.3772 181.173 54.0719 182.15 50.5788L182.219 50.4391H221.426C227.146 50.509 231.89 55.1896 231.89 60.988Z" fill="white" stroke="#263238" stroke-miterlimit="10" stroke-linecap="round" stroke-linejoin="round"/>
<path d="M231.89 66.996V60.988C231.89 55.1896 227.216 50.4391 221.356 50.4391H182.15L182.08 50.5788C181.103 54.0719 178.871 56.3772 176.359 56.3772H174.894C172.383 56.3772 170.151 54.0719 169.174 50.5788V50.4391H129.967C124.177 50.4391 119.433 55.1198 119.433 60.988V66.996H231.89Z" fill="#263238" stroke="#263238" stroke-miterlimit="10"/>
<path d="M119.503 267.076V272.735C119.503 278.533 124.177 283.283 130.037 283.283H221.356C227.147 283.283 231.89 278.603 231.89 272.735V267.076H119.503Z" fill="#263238" stroke="#263238" stroke-miterlimit="10"/>
<path d="M239.006 111.567V90.3992H237.122V63.3633C237.122 54.1417 229.658 46.6667 220.449 46.6667H130.944C121.735 46.6667 114.271 54.1417 114.271 63.3633V278.463C114.271 287.685 121.735 295.16 130.944 295.16H220.449C229.658 295.16 237.122 287.685 237.122 278.463V129.591H239.006V117.086H237.122V111.567H239.006ZM231.89 266.587C231.89 275.808 224.426 283.283 215.217 283.283H136.176C126.968 283.283 119.503 275.808 119.503 266.587V67.1357C119.503 57.9142 126.968 50.4391 136.176 50.4391H169.244V50.5788C170.22 54.0719 172.453 56.3772 174.964 56.3772H176.429C178.941 56.3772 181.173 54.0719 182.15 50.5788L182.219 50.4391H215.287C224.495 50.4391 231.96 57.9142 231.96 67.1357V266.587H231.89Z" fill="#0C0C0C"/>
<path d="M219.124 48.9721H132.27C123.41 48.9721 116.224 56.1677 116.224 65.0399V276.717C116.224 285.589 123.41 292.784 132.27 292.784H219.124C227.984 292.784 235.169 285.589 235.169 276.717V65.0399C235.169 56.1677 227.984 48.9721 219.124 48.9721ZM231.89 267.146C231.89 276.018 224.705 283.214 215.845 283.214H135.618C126.758 283.214 119.573 276.018 119.573 267.146V66.5768C119.573 57.7046 126.758 50.509 135.618 50.509H169.244V50.6487C170.22 54.1417 172.453 56.4471 174.964 56.4471H176.429C178.941 56.4471 181.173 54.1417 182.15 50.6487L182.219 50.509H215.845C224.705 50.509 231.89 57.7046 231.89 66.5768V267.146Z" fill="#263238" stroke="#263238" stroke-miterlimit="10" stroke-linecap="round" stroke-linejoin="round"/>
<path d="M176.918 51.2774C176.918 50.4391 176.22 49.7405 175.383 49.7405C174.546 49.7405 173.848 50.4391 173.848 51.2774C173.848 52.1158 174.546 52.8144 175.383 52.8144C176.22 52.8144 176.918 52.1158 176.918 51.2774Z" fill="white"/>
<path d="M129.479 57.2854C129.479 58.8922 127.735 59.4511 127.665 60.6387V60.7086H129.409V61.2675H127.107V60.8483C127.107 59.1717 128.851 58.8224 128.851 57.3553C128.851 56.7964 128.642 56.517 128.223 56.517C127.805 56.517 127.595 56.7964 127.595 57.2854V57.7744H127.037V57.2854C127.037 56.4471 127.386 55.9581 128.223 55.9581C129.13 55.9581 129.479 56.517 129.479 57.2854Z" fill="white"/>
<path d="M132.339 57.2854V57.4251C132.339 57.984 132.13 58.3333 131.711 58.4731C132.13 58.6128 132.339 59.0319 132.339 59.5908V60.01C132.339 60.8483 131.991 61.3373 131.153 61.3373C130.316 61.3373 129.967 60.7784 129.967 60.01V59.6607H130.526V60.0798C130.526 60.5689 130.735 60.8483 131.153 60.8483C131.572 60.8483 131.781 60.5689 131.781 60.01V59.5908C131.781 59.1018 131.572 58.8224 131.153 58.8224H130.805V58.2635H131.153C131.572 58.2635 131.781 57.984 131.781 57.5649V57.2854C131.781 56.7265 131.572 56.4471 131.153 56.4471C130.735 56.4471 130.526 56.7265 130.526 57.2156V57.495H129.967V57.2854C129.967 56.4471 130.316 55.9581 131.153 55.9581C131.991 55.9581 132.339 56.4471 132.339 57.2854Z" fill="white"/>
<path d="M133.525 57.7046V58.4032H132.967V57.7046H133.525ZM133.525 60.5689V61.2675H132.967V60.5689H133.525Z" fill="white"/>
<path d="M134.711 58.1238C134.851 57.8443 135.13 57.7046 135.479 57.7046C136.176 57.7046 136.455 58.1936 136.455 58.9621V60.01C136.455 60.8483 136.106 61.3373 135.269 61.3373C134.432 61.3373 134.083 60.7784 134.083 60.01V59.6607H134.641V60.0798C134.641 60.5689 134.851 60.8483 135.269 60.8483C135.688 60.8483 135.897 60.5689 135.897 60.0798V59.0319C135.897 58.5429 135.688 58.2635 135.269 58.2635C134.921 58.2635 134.711 58.4731 134.711 58.8224V58.9621H134.153L134.293 56.0279H136.386V56.5868H134.851L134.711 58.1238Z" fill="white"/>
<path d="M139.385 57.2854V57.3553H138.827V57.2156C138.827 56.7265 138.618 56.4471 138.199 56.4471C137.781 56.4471 137.572 56.7265 137.572 57.2854V58.4731C137.711 58.1238 137.99 57.9142 138.409 57.9142C139.106 57.9142 139.385 58.4032 139.385 59.1717V59.9401C139.385 60.7784 138.967 61.2675 138.199 61.2675C137.362 61.2675 137.013 60.7086 137.013 59.9401V57.2854C137.013 56.4471 137.362 55.9581 138.199 55.9581C138.967 55.9581 139.385 56.4471 139.385 57.2854ZM137.572 59.2415V60.01C137.572 60.499 137.781 60.7784 138.199 60.7784C138.618 60.7784 138.827 60.499 138.827 60.01V59.2415C138.827 58.7525 138.618 58.4731 138.199 58.4731C137.711 58.4731 137.572 58.7525 137.572 59.2415Z" fill="white"/>
<path d="M196.66 57.495H195.195V61.1976H196.66V57.495Z" fill="white"/>
<path d="M198.614 56.7265H197.149V61.1976H198.614V56.7265Z" fill="white"/>
<path d="M200.637 56.2375H199.172V61.1976H200.637V56.2375Z" fill="white"/>
<path d="M202.59 55.3293H201.125V61.1976H202.59V55.3293Z" fill="white"/>
<path d="M220.938 61.1277H212.078V55.6786H221.007V61.1277H220.938ZM212.566 60.6387H220.449V56.1677H212.566V60.6387Z" fill="white"/>
<path d="M217.938 56.7265H213.264V60.0798H217.938V56.7265Z" fill="white"/>
<path d="M221.775 57.7744H220.659V59.0319H221.775V57.7744Z" fill="white"/>
<path d="M208.799 59.9401C208.729 59.9401 208.659 59.9401 208.659 59.8703C206.846 58.8224 205.66 59.8004 205.59 59.8004C205.45 59.9401 205.241 59.8703 205.101 59.8004C204.962 59.6607 204.962 59.4511 205.101 59.3114C205.171 59.2415 206.706 57.9142 208.938 59.2415C209.078 59.3114 209.148 59.521 209.078 59.7305C209.008 59.8703 208.938 59.9401 208.799 59.9401Z" fill="white"/>
<path d="M209.497 58.8224C209.427 58.8224 209.357 58.8224 209.357 58.7525C206.706 57.2156 204.962 58.6826 204.962 58.6826C204.822 58.8224 204.613 58.8224 204.474 58.6826C204.334 58.5429 204.334 58.3333 204.474 58.1936C204.474 58.1936 206.636 56.3772 209.636 58.1238C209.776 58.1936 209.845 58.4032 209.776 58.6128C209.706 58.7525 209.566 58.8224 209.497 58.8224Z" fill="white"/>
<path d="M210.055 57.495C209.985 57.495 209.915 57.495 209.915 57.4251C206.566 55.4691 204.404 57.2854 204.334 57.3553C204.195 57.495 203.985 57.495 203.846 57.3553C203.706 57.2156 203.706 57.006 203.846 56.8663C203.846 56.8663 206.497 54.6307 210.264 56.7964C210.403 56.8663 210.473 57.0758 210.403 57.2854C210.264 57.4251 210.194 57.495 210.055 57.495Z" fill="white"/>
<path d="M207.822 60.499C207.822 60.988 207.473 61.3373 206.985 61.3373C206.497 61.3373 206.148 60.988 206.148 60.499C206.148 60.01 206.497 59.6607 206.985 59.6607C207.404 59.6607 207.822 60.01 207.822 60.499Z" fill="white"/>
<path d="M218.426 220.2H133.316C130.525 220.2 128.293 217.964 128.293 215.17V166.058C128.293 163.263 130.525 161.028 133.316 161.028H218.496C221.286 161.028 223.519 163.263 223.519 166.058V215.17C223.449 217.964 221.217 220.2 218.426 220.2Z" fill="#0C0C0C"/>
<path d="M145.664 207.695H135.618V211.886H145.664V207.695Z" fill="white" stroke="#263238" stroke-miterlimit="10" stroke-linecap="round" stroke-linejoin="round"/>
<path d="M158.989 207.695H148.943V211.886H158.989V207.695Z" fill="white" stroke="#263238" stroke-miterlimit="10" stroke-linecap="round" stroke-linejoin="round"/>
<path d="M172.383 207.695H162.337V211.886H172.383V207.695Z" fill="white" stroke="#263238" stroke-miterlimit="10" stroke-linecap="round" stroke-linejoin="round"/>
<path d="M185.777 207.695H175.732V211.886H185.777V207.695Z" fill="white" stroke="#263238" stroke-miterlimit="10" stroke-linecap="round" stroke-linejoin="round"/>
<path d="M199.102 207.695H189.056V211.886H199.102V207.695Z" fill="white" stroke="#263238" stroke-miterlimit="10" stroke-linecap="round" stroke-linejoin="round"/>
<path d="M212.496 207.695H202.451V211.886H212.496V207.695Z" fill="white" stroke="#263238" stroke-miterlimit="10" stroke-linecap="round" stroke-linejoin="round"/>
<path d="M155.152 197.984H137.92C136.665 197.984 135.618 196.936 135.618 195.679V183.942C135.618 182.685 136.665 181.637 137.92 181.637H155.152C156.407 181.637 157.454 182.685 157.454 183.942V195.679C157.454 196.936 156.407 197.984 155.152 197.984Z" fill="white" stroke="#263238" stroke-miterlimit="10" stroke-linecap="round" stroke-linejoin="round"/>
<path d="M183.545 168.084H135.618V170.529H183.545V168.084Z" fill="white" stroke="#263238" stroke-miterlimit="10" stroke-linecap="round" stroke-linejoin="round"/>
<path d="M196.668 120.24C199.643 107.425 191.68 94.6224 178.883 91.6437C166.087 88.665 153.302 96.6386 150.327 109.453C147.353 122.268 155.315 135.071 168.112 138.05C180.908 141.028 193.694 133.055 196.668 120.24Z" fill="#263238"/>
<path d="M173.778 137.066V133.154C170.918 133.014 168.755 132.106 167.36 130.429C165.965 128.683 165.197 126.098 165.058 122.675L170.918 121.697C170.988 123.094 171.127 124.281 171.336 125.19C171.546 126.098 171.895 126.796 172.383 127.285C172.871 127.774 173.499 127.984 174.197 127.984C175.034 127.984 175.662 127.705 175.941 127.146C176.29 126.587 176.429 125.958 176.429 125.259C176.429 123.862 176.08 122.675 175.452 121.697C174.825 120.719 173.918 119.741 172.732 118.762L169.174 115.689C168.337 114.92 167.639 114.152 167.011 113.383C166.383 112.615 165.895 111.707 165.476 110.729C165.128 109.751 164.918 108.563 164.918 107.166C164.918 104.581 165.686 102.485 167.151 101.018C168.616 99.5509 170.639 98.7126 173.15 98.503V94.8004H175.173V98.503C176.708 98.5729 177.894 98.9222 178.871 99.5509C179.847 100.18 180.545 100.878 181.033 101.786C181.522 102.695 181.871 103.673 182.15 104.721C182.359 105.768 182.498 106.816 182.568 107.864L176.638 108.772C176.638 107.725 176.499 106.816 176.359 106.048C176.22 105.279 175.941 104.651 175.592 104.162C175.243 103.743 174.685 103.533 173.918 103.533C173.15 103.533 172.522 103.882 172.174 104.441C171.825 105 171.546 105.699 171.546 106.397C171.546 107.655 171.825 108.703 172.453 109.471C173.081 110.24 173.778 111.008 174.546 111.707L178.034 114.711C178.941 115.549 179.778 116.457 180.545 117.435C181.312 118.413 181.94 119.461 182.429 120.649C182.917 121.836 183.126 123.164 183.126 124.701C183.126 126.168 182.847 127.495 182.219 128.752C181.592 129.94 180.754 130.918 179.638 131.687C178.522 132.455 177.197 132.874 175.662 133.014V136.926H173.778V137.066Z" fill="white" stroke="#263238" stroke-miterlimit="10" stroke-linecap="round" stroke-linejoin="round"/>
<path d="M192.195 108.772C195.933 108.772 198.962 105.739 198.962 101.996C198.962 98.2535 195.933 95.2196 192.195 95.2196C188.458 95.2196 185.428 98.2535 185.428 101.996C185.428 105.739 188.458 108.772 192.195 108.772Z" fill="url(#paint1_linear_477_1253)"/>
<path d="M192.126 104.93C191.847 104.93 191.568 104.79 191.358 104.581L188.01 100.249C187.731 99.8303 187.8 99.2715 188.149 98.9222C188.568 98.6427 189.126 98.7126 189.475 99.0619L192.126 102.485L199.032 94.521C199.381 94.1018 199.939 94.1018 200.358 94.4511C200.776 94.8004 200.776 95.3593 200.427 95.7784L192.823 104.581C192.684 104.79 192.405 104.93 192.126 104.93Z" fill="#263238"/>
</g>
<defs>
<linearGradient id="paint0_linear_477_1253" x1="29.7852" y1="196.519" x2="63.7765" y2="196.519" gradientUnits="userSpaceOnUse">
<stop stop-color="#DF9130"/>
<stop offset="1" stop-color="#CD5A23"/>
</linearGradient>
<linearGradient id="paint1_linear_477_1253" x1="185.436" y1="101.989" x2="198.926" y2="101.989" gradientUnits="userSpaceOnUse">
<stop stop-color="#DF9130"/>
<stop offset="1" stop-color="#CD5A23"/>
</linearGradient>
<clipPath id="clip0_477_1253">
<rect width="323" height="315" fill="white"/>
</clipPath>
</defs>
</svg>
