<svg width="349" height="294" viewBox="0 0 349 294" fill="none" xmlns="http://www.w3.org/2000/svg">
<path opacity="0.21" d="M275.208 243.225C275.855 229.885 274.122 222.881 271.595 210.063C269.987 201.808 267.92 193.617 265.644 185.467C265.038 183.278 264.411 181.09 263.785 178.922C263.221 176.984 262.657 175.045 262.093 173.128C261.467 170.981 260.82 168.813 260.193 166.645C259.629 164.728 259.065 162.81 258.502 160.892C257.875 158.745 257.249 156.599 256.643 154.452C256.1 152.534 255.557 150.616 255.035 148.699C254.45 146.552 253.866 144.384 253.302 142.216C252.801 140.278 252.32 138.339 251.84 136.401C251.318 134.212 250.817 132.024 250.337 129.835C248.833 122.894 247.622 115.912 246.87 108.846C246.766 107.845 246.661 106.845 246.578 105.823C246.265 102.238 246.056 98.6323 245.993 95.0055C245.993 94.7553 245.993 94.5052 245.993 94.2759C245.972 93.3171 245.972 92.3583 245.993 91.3995C246.014 90.3156 246.035 89.2318 246.056 88.1479C246.056 87.8769 246.077 87.606 246.077 87.3558C245.784 87.1266 245.534 86.939 245.283 86.7514C244.803 86.3762 244.385 86.0635 243.947 85.73C243.529 85.3965 243.09 85.063 242.568 84.6462C240.752 86.2928 238.935 87.9603 237.118 89.6278C235.468 88.3772 233.819 87.0849 232.19 85.7926C230.373 87.4601 228.556 89.1275 226.76 90.8159C225.111 89.5444 223.461 88.2521 221.832 86.9598C220.015 88.6273 218.199 90.3156 216.403 92.004C216.173 91.8164 215.943 91.6496 215.693 91.462C214.273 90.3573 212.853 89.2526 211.474 88.1062C209.658 89.7945 207.841 91.4829 206.045 93.1921C204.604 92.0665 203.163 90.9409 201.743 89.7737C201.534 89.607 201.325 89.4402 201.117 89.2526C199.759 90.5032 198.423 91.7538 197.086 93.0253C196.606 93.463 196.147 93.9216 195.666 94.3593C194.977 93.8174 194.309 93.2963 193.62 92.7543C192.659 91.9831 191.699 91.1911 190.738 90.4198C188.9 92.129 187.105 93.8382 185.288 95.5682C183.638 94.2551 181.988 92.9419 180.38 91.5871C178.543 93.2963 176.726 95.0263 174.93 96.7563C173.28 95.4432 171.631 94.0883 170.023 92.7335C168.185 94.4635 166.389 96.1935 164.572 97.9444C162.923 96.6104 161.273 95.2764 159.665 93.9007C158.099 95.3806 157.305 96.131 155.781 97.6109C155.092 115.161 157.723 132.17 161.732 148.949C171.255 188.948 188.441 227.655 186.374 269.55C186.353 269.759 186.374 269.946 186.395 270.134C187.898 268.508 188.65 267.695 190.112 266.069C191.72 267.216 193.327 268.362 194.915 269.55C196.71 267.633 198.485 265.715 200.26 263.777C201.868 264.902 203.476 266.049 205.063 267.216C206.859 265.319 208.634 263.401 210.409 261.463C212.017 262.589 213.625 263.714 215.233 264.881C217.029 262.985 218.804 261.088 220.579 259.17C222.187 260.275 224.129 255.418 225.716 256.544C227.512 254.647 229.287 252.771 231.062 250.854C232.691 251.958 234.278 253.063 235.886 254.209C237.682 252.333 239.457 250.458 241.232 248.561C242.84 249.645 244.448 250.749 246.056 251.875C247.852 250.02 249.627 248.144 251.381 246.247C252.989 247.331 254.618 248.415 256.205 249.54C258 247.685 259.776 245.83 261.53 243.954C263.158 245.017 264.746 246.101 266.353 247.206C268.149 245.351 269.924 243.517 271.699 241.641C273.078 242.537 273.767 242.996 275.103 243.892C275.166 243.6 275.208 243.412 275.208 243.225Z" fill="#2F3BA1"/>
<path d="M283.039 134.233C283.039 142.779 282.162 151.117 280.491 159.162C279.635 163.373 278.528 167.5 277.233 171.543C274.79 179.193 271.616 186.509 267.774 193.429C267.189 194.471 266.604 195.514 265.978 196.556C263.806 200.224 261.425 203.789 258.878 207.207C253.824 214.002 248.081 220.255 241.754 225.862C237.87 229.301 233.777 232.49 229.475 235.429C229.078 235.7 228.682 235.971 228.285 236.242C215.714 244.621 201.534 250.729 186.269 254.022C177.895 255.835 169.187 256.773 160.271 256.773C159.226 256.773 158.161 256.752 157.117 256.731C150.727 256.565 144.442 255.919 138.323 254.814C138.26 254.793 138.198 254.793 138.114 254.772C122.035 251.854 107.062 245.809 93.8226 237.284C89.6878 234.616 85.6993 231.698 81.9195 228.572C77.1792 224.653 72.7521 220.38 68.6592 215.795C65.485 212.251 62.5197 208.52 59.7841 204.622C57.1947 200.954 54.7932 197.139 52.6214 193.179C50.4914 189.302 48.5702 185.321 46.8579 181.215C45.062 176.9 43.5167 172.461 42.2011 167.917C39.2149 157.203 37.5652 145.906 37.5652 134.233C37.5652 125.229 38.5467 116.454 40.3843 107.991C42.2429 99.4868 44.9785 91.3161 48.5076 83.5831C62.7703 52.2759 89.834 28.0347 123.016 17.467C134.773 13.736 147.303 11.7141 160.291 11.7141C184.64 11.7141 207.319 18.7802 226.384 30.9737C259.901 52.401 282.287 89.6278 282.997 132.128C283.039 132.837 283.039 133.545 283.039 134.233Z" fill="url(#paint0_linear_476_1002)"/>
<path d="M267.794 193.408C267.21 194.451 266.625 195.493 265.998 196.535C263.827 200.203 261.446 203.768 258.898 207.186C253.845 213.981 248.102 220.234 241.775 225.841C237.891 229.28 233.798 232.469 229.496 235.408C229.099 235.679 228.702 235.95 228.306 236.221C215.734 244.601 201.555 250.708 186.29 254.001C184.285 217.941 170.064 183.904 161.732 148.886C157.744 132.107 155.092 115.099 155.781 97.5484C157.326 96.0685 158.099 95.3181 159.665 93.8382C161.294 95.2139 162.923 96.5479 164.572 97.8819C166.368 96.131 168.185 94.401 170.023 92.671C171.631 94.0258 173.28 95.3806 174.93 96.6938C176.726 94.9638 178.543 93.2338 180.38 91.5246C182.009 92.8794 183.638 94.1926 185.288 95.5057C187.084 93.7757 188.9 92.0665 190.738 90.3782C191.699 91.1702 192.659 91.9414 193.62 92.7127C194.288 93.2546 194.977 93.7965 195.666 94.3176C196.126 93.8799 196.606 93.4213 197.086 92.9836C198.423 91.7122 199.759 90.4615 201.117 89.2109C201.325 89.3777 201.534 89.5444 201.743 89.732C203.163 90.8784 204.604 92.0248 206.045 93.1504C207.841 91.4412 209.658 89.7529 211.495 88.0645C212.894 89.1901 214.293 90.3156 215.713 91.4204C215.943 91.6079 216.173 91.7747 216.423 91.9623C218.219 90.274 220.036 88.5856 221.853 86.9181C223.482 88.2313 225.131 89.5236 226.781 90.7742C228.577 89.0859 230.394 87.4184 232.211 85.7509C233.839 87.0432 235.489 88.3355 237.139 89.5861C238.935 87.9186 240.752 86.2511 242.589 84.6045C243.132 85.0213 243.55 85.3757 243.967 85.6883C244.406 86.0218 244.803 86.3553 245.304 86.7097C245.555 86.8973 245.805 87.0849 246.097 87.3141C246.077 87.5851 246.077 87.8561 246.077 88.1062C246.035 89.1901 246.014 90.2739 246.014 91.3578C246.014 92.3166 246.014 93.2754 246.014 94.2342C246.014 94.4844 246.014 94.7345 246.014 94.9638C246.077 98.5906 246.285 102.197 246.599 105.782C246.682 106.782 246.787 107.783 246.891 108.804C247.664 115.87 248.854 122.853 250.357 129.794C250.838 131.982 251.339 134.171 251.861 136.359C252.32 138.298 252.822 140.236 253.323 142.175C253.887 144.342 254.471 146.489 255.056 148.657C255.578 150.575 256.121 152.492 256.664 154.41C257.27 156.557 257.896 158.704 258.523 160.851C259.086 162.768 259.65 164.686 260.214 166.603C260.861 168.75 261.488 170.918 262.114 173.065C262.678 175.003 263.242 176.942 263.806 178.86C264.432 181.048 265.059 183.216 265.664 185.404C266.395 188.114 267.105 190.761 267.794 193.408Z" fill="#C46200"/>
<path d="M219.18 117.392L143.022 165.124C144.776 165.353 146.384 165.853 147.678 166.77C149.036 167.75 149.996 169.167 150.372 171.21C152.377 182.278 135.796 180.923 121.575 185.863C121.325 185.946 121.074 186.03 120.844 186.113L137.947 184.946C137.947 184.946 149.725 183.925 149.537 192.825C149.349 201.725 137.655 200.996 136.13 200.787C136.047 200.787 135.922 200.766 135.734 200.766C138.908 201.788 141.581 203.33 141.56 205.685C141.497 211.417 136.297 212.522 131.703 213.272C128.675 213.773 116.564 215.69 106.791 218.775C103.157 219.922 99.8367 221.235 97.4352 222.673C96.4746 226.612 95.2634 231.636 93.8434 237.264C89.7087 234.596 85.7201 231.677 81.9404 228.551C77.2001 224.632 72.773 220.359 68.68 215.774C65.5059 212.23 62.5406 208.499 59.805 204.601C57.2155 200.933 54.8141 197.119 52.6423 193.158C50.5123 189.281 48.5911 185.3 46.8787 181.194C45.0828 176.879 43.5375 172.44 42.2219 167.896C42.911 167.5 43.6002 167.083 44.3311 166.687C54.3338 160.997 66.5082 155.014 78.1398 150.179L78.2024 150.158C78.8707 149.866 79.5598 149.595 80.228 149.324L74.548 140.299L65.84 126.459L61.7888 120.018C60.3897 117.788 61.0579 114.849 63.2923 113.452L173.28 44.5221C175.515 43.1256 178.459 43.7926 179.858 46.0228L183.909 52.4635L192.617 66.3037L220.684 110.826C222.083 113.056 221.414 115.995 219.18 117.392Z" fill="#C46200"/>
<path d="M284.083 242.162C282.642 241.411 281.911 241.036 280.449 240.286C278.883 242.329 277.317 244.371 275.751 246.393C274.038 245.476 272.326 244.559 270.593 243.683C269.026 245.726 267.46 247.79 265.894 249.811C264.182 248.873 262.469 247.977 260.736 247.06C259.191 249.124 257.625 251.187 256.038 253.23C254.325 252.292 252.613 251.375 250.88 250.458C249.334 252.521 247.768 254.605 246.181 256.648C244.469 255.689 242.756 254.751 241.023 253.834C239.478 255.919 237.912 257.982 236.325 260.066C234.612 259.108 232.9 258.149 231.167 257.232C229.621 259.337 228.055 261.421 226.468 263.485C224.756 262.505 223.043 261.546 221.31 260.608C219.765 262.714 218.199 264.819 216.611 266.903C214.899 265.924 213.187 264.944 211.453 264.006C209.908 266.132 208.342 268.237 206.776 270.322C205.063 269.321 203.351 268.341 201.618 267.383C200.323 269.154 199.676 270.03 198.36 271.822C198.318 271.635 198.298 271.447 198.277 271.239C195.813 229.364 174.554 192.741 160.751 153.993C154.966 137.735 150.498 121.123 149.286 103.593C150.665 101.946 151.354 101.133 152.753 99.4868C154.507 100.675 156.282 101.842 158.078 102.989C159.686 101.05 161.294 99.1325 162.923 97.2357C164.677 98.403 166.452 99.5702 168.248 100.696C169.856 98.7782 171.464 96.8605 173.113 94.9638C174.867 96.131 176.642 97.2774 178.438 98.403C180.046 96.4854 181.654 94.5886 183.283 92.7127C184.327 93.4005 185.35 94.0675 186.395 94.7345C187.125 95.1931 187.856 95.6725 188.587 96.1102C189.005 95.6099 189.422 95.1305 189.84 94.6303C191.03 93.2337 192.221 91.8372 193.432 90.4407C193.662 90.5866 193.891 90.7325 194.121 90.8784C195.645 91.8789 197.212 92.8586 198.757 93.8174C200.365 91.9206 201.973 90.0447 203.623 88.1896C205.126 89.1692 206.651 90.128 208.175 91.066C208.426 91.2328 208.676 91.3787 208.927 91.5246C210.535 89.6486 212.143 87.7727 213.792 85.9176C215.546 87.0432 217.321 88.1479 219.117 89.2318C220.725 87.3558 222.333 85.5007 223.983 83.6457C225.737 84.7712 227.512 85.8551 229.287 86.9181C230.895 85.063 232.524 83.2079 234.153 81.3737C234.737 81.728 235.197 82.0407 235.635 82.3117C236.095 82.6035 236.554 82.8744 237.076 83.1871C237.327 83.3538 237.619 83.5206 237.912 83.7082C237.932 83.9792 237.953 84.2501 237.974 84.5002C238.058 85.5841 238.141 86.668 238.267 87.731C238.371 88.6898 238.475 89.6278 238.58 90.5866C238.601 90.8367 238.642 91.066 238.663 91.3161C239.123 94.9221 239.707 98.4864 240.417 102.009C240.605 103.009 240.814 103.989 241.044 104.969C242.568 111.91 244.531 118.726 246.766 125.479C247.476 127.605 248.207 129.731 248.958 131.857C249.627 133.733 250.316 135.609 251.026 137.485C251.819 139.569 252.634 141.654 253.448 143.738C254.179 145.593 254.931 147.448 255.683 149.282C256.518 151.346 257.374 153.43 258.23 155.494C259.003 157.328 259.776 159.183 260.548 161.038C261.404 163.123 262.281 165.186 263.138 167.27C263.91 169.126 264.683 171.001 265.435 172.857C266.291 174.962 267.147 177.067 267.982 179.172C271.115 187.03 274.059 194.951 276.544 202.976C280.428 215.461 283.247 228.217 284.041 241.557C284.124 241.766 284.124 241.974 284.083 242.162Z" fill="white"/>
<path d="M177.436 119.413C178.417 118.726 178.772 117.808 178.543 116.641C178.397 115.849 178.021 115.286 177.436 114.911C176.851 114.536 176.016 114.473 174.951 114.724C173.426 115.078 172.654 115.266 171.109 115.62C171.672 118.642 172.299 121.644 172.967 124.645C173.614 124.499 173.928 124.416 174.554 124.27C174.199 122.811 174.053 122.061 173.719 120.581C174.617 120.372 175.055 120.268 175.953 120.039C176.809 121.373 177.248 122.04 178.146 123.374C178.814 123.207 179.148 123.124 179.817 122.957C178.877 121.56 178.376 120.852 177.436 119.413ZM176.663 118.142C176.434 118.455 176.037 118.684 175.452 118.809C174.659 118.997 174.262 119.101 173.468 119.288C173.239 118.204 173.134 117.663 172.946 116.558C173.781 116.349 174.22 116.266 175.055 116.058C175.556 115.933 175.953 115.974 176.287 116.162C176.601 116.349 176.809 116.62 176.893 117.037C176.956 117.454 176.893 117.829 176.663 118.142Z" fill="#0F0F11"/>
<path d="M186.917 119.83C185.267 120.226 184.432 120.435 182.761 120.831C182.531 119.83 182.427 119.33 182.218 118.33C183.534 118.017 184.181 117.85 185.497 117.537C185.392 117.016 185.329 116.766 185.225 116.245C183.909 116.558 183.262 116.725 181.946 117.037C181.759 116.058 181.654 115.578 181.466 114.599C183.095 114.202 183.93 114.015 185.559 113.619C185.455 113.077 185.413 112.827 185.309 112.285C183.408 112.723 181.508 113.181 179.629 113.619C180.192 116.62 180.798 119.601 181.487 122.582C183.408 122.123 185.309 121.665 187.23 121.185C187.104 120.643 187.042 120.372 186.917 119.83Z" fill="#0F0F11"/>
<path d="M194.351 116.412C193.745 116.495 193.453 116.537 192.847 116.6C192.91 117.121 192.826 117.6 192.576 118.059C192.325 118.496 191.97 118.788 191.511 118.892C190.926 119.038 190.404 118.871 189.924 118.413C189.443 117.954 189.088 117.183 188.859 116.099C188.65 115.036 188.65 114.182 188.859 113.535C189.088 112.889 189.485 112.493 190.091 112.368C191.009 112.16 191.74 112.681 192.283 113.973C192.805 113.786 193.098 113.681 193.599 113.515C193.641 113.494 193.682 113.494 193.724 113.473C193.369 112.514 192.868 111.826 192.2 111.409C192.2 111.409 192.179 111.409 192.179 111.389C191.49 110.972 190.717 110.867 189.84 111.076C188.712 111.347 187.919 111.972 187.439 112.994C186.958 113.994 186.854 115.182 187.125 116.558C187.292 117.392 187.606 118.142 188.023 118.767C188.441 119.393 188.963 119.872 189.569 120.143C190.153 120.435 190.863 120.476 191.678 120.268C192.638 120.039 193.348 119.559 193.787 118.851C194.267 118.142 194.455 117.329 194.351 116.412Z" fill="#0F0F11"/>
<path d="M201.701 116.266C200.052 116.662 199.216 116.87 197.546 117.266C197.316 116.287 197.212 115.787 197.003 114.786C198.318 114.473 198.987 114.307 200.281 113.994C200.177 113.473 200.114 113.223 200.01 112.702C198.694 113.014 198.047 113.181 196.731 113.494C196.543 112.535 196.439 112.056 196.272 111.076C197.901 110.68 198.736 110.492 200.365 110.117C200.26 109.596 200.219 109.325 200.114 108.783C198.214 109.221 196.314 109.679 194.434 110.117C194.831 112.285 195.27 114.432 195.729 116.579C195.896 117.392 196.084 118.184 196.272 118.997C196.606 118.913 196.94 118.83 197.274 118.746C198.84 118.371 200.427 117.975 201.994 117.6C201.889 117.079 201.827 116.808 201.701 116.266Z" fill="#0F0F11"/>
<path d="M203.142 108.095C202.495 108.241 202.182 108.325 201.555 108.47C202.098 111.43 202.725 114.369 203.393 117.308C204.04 117.141 204.353 117.079 204.98 116.912C204.312 113.973 203.685 111.034 203.142 108.095Z" fill="#0F0F11"/>
<path d="M212.247 108.679C212.101 107.97 211.746 107.407 211.161 107.011C210.576 106.615 209.762 106.532 208.718 106.782C207.277 107.116 206.546 107.303 205.105 107.637C205.648 110.597 206.254 113.515 206.922 116.454C207.569 116.308 207.883 116.224 208.509 116.078C208.175 114.703 208.029 113.994 207.736 112.598C208.613 112.389 209.052 112.285 209.95 112.076C210.785 111.889 211.412 111.472 211.85 110.847C212.268 110.18 212.393 109.471 212.247 108.679ZM210.368 110.138C210.159 110.451 209.804 110.638 209.323 110.763C208.572 110.93 208.196 111.034 207.444 111.201C207.235 110.138 207.131 109.617 206.922 108.554C207.611 108.387 207.966 108.304 208.655 108.137C209.282 107.991 209.741 108.012 210.033 108.22C210.326 108.408 210.493 108.7 210.556 109.054C210.639 109.492 210.576 109.846 210.368 110.138Z" fill="#0F0F11"/>
<path d="M217.697 106.073C218.011 105.99 218.324 105.928 218.721 105.823C218.679 105.636 218.658 105.49 218.637 105.344C218.595 105.073 218.554 104.823 218.491 104.468C218.199 104.531 217.906 104.614 217.614 104.677C217.384 104.739 217.154 104.781 216.925 104.844C216.131 105.031 215.338 105.219 214.544 105.406C213.98 105.532 213.416 105.677 212.853 105.802C212.602 105.865 212.351 105.928 212.101 105.969C212.205 106.511 212.247 106.782 212.351 107.324C212.915 107.199 213.291 107.095 213.73 106.991C214.022 106.928 214.314 106.845 214.711 106.761C214.836 107.47 214.983 108.2 215.129 108.908C215.484 110.659 215.86 112.41 216.277 114.161C216.966 113.994 217.301 113.911 217.99 113.744C217.405 111.284 216.883 108.825 216.423 106.344C216.904 106.261 217.28 106.178 217.697 106.073Z" fill="#0F0F11"/>
<path d="M236.93 121.539C212.727 127.605 188.545 133.67 164.343 139.736C164.008 138.673 163.862 138.131 163.549 137.047C187.752 131.023 211.955 125 236.178 118.997C236.471 119.997 236.617 120.518 236.93 121.539Z" fill="#F4F5F9"/>
<path d="M269.319 205.873C245.68 213.356 222.02 220.839 198.381 228.322C198.047 227.259 197.88 226.717 197.546 225.654C221.206 218.212 244.865 210.771 268.525 203.33C268.859 204.351 269.006 204.852 269.319 205.873Z" fill="#0F0F11"/>
<path d="M274.56 227.071C251.005 234.908 227.429 242.745 203.873 250.603C203.685 249.499 203.581 248.936 203.351 247.831C226.927 240.036 250.483 232.24 274.059 224.445C274.268 225.487 274.372 226.008 274.56 227.071Z" fill="#0F0F11"/>
<path d="M220.37 152.159C204.688 156.369 188.984 160.6 173.301 164.811C172.487 162.789 171.693 160.788 170.921 158.766C186.645 154.618 202.349 150.45 218.073 146.302C218.825 148.24 219.598 150.2 220.37 152.159Z" fill="#F4F5F9"/>
<path d="M245.45 145.405C238.016 147.406 230.561 149.407 223.127 151.408C222.354 149.47 221.581 147.511 220.83 145.551C228.285 143.571 235.74 141.612 243.195 139.632C243.926 141.57 244.677 143.488 245.45 145.405Z" fill="#F4F5F9"/>
<path d="M207.047 168.146C197.358 170.835 187.668 173.524 177.979 176.212C177.144 174.211 176.308 172.21 175.473 170.189C185.183 167.541 194.873 164.894 204.583 162.247C205.398 164.206 206.233 166.187 207.047 168.146Z" fill="#F4F5F9"/>
<path d="M249.919 156.265C236.575 159.975 223.21 163.665 209.866 167.375C209.052 165.415 208.217 163.456 207.423 161.476C220.809 157.828 234.174 154.181 247.559 150.533C248.311 152.451 249.105 154.347 249.919 156.265Z" fill="#F4F5F9"/>
<path d="M221.79 176.421C208.801 180.131 195.792 183.841 182.803 187.572C181.947 185.571 181.111 183.57 180.255 181.569C193.265 177.901 206.296 174.253 219.305 170.585C220.141 172.523 220.955 174.462 221.79 176.421Z" fill="#F4F5F9"/>
<path d="M254.492 167.083C244.51 169.938 234.508 172.794 224.526 175.65C223.711 173.711 222.876 171.752 222.041 169.813C232.044 167 242.046 164.186 252.07 161.372C252.863 163.268 253.678 165.165 254.492 167.083Z" fill="#F4F5F9"/>
<path d="M207.653 193.033C200.95 195.013 194.267 196.973 187.564 198.953C186.729 196.952 185.893 194.93 185.058 192.929C191.761 190.991 198.465 189.031 205.189 187.093C206.003 189.073 206.839 191.053 207.653 193.033Z" fill="#F4F5F9"/>
<path d="M259.024 177.901C242.861 182.653 226.698 187.426 210.535 192.179C209.72 190.199 208.906 188.218 208.071 186.259C224.254 181.569 240.438 176.879 256.643 172.19C257.437 174.086 258.23 175.983 259.024 177.901Z" fill="#F4F5F9"/>
<path d="M238.601 196.285C223.106 200.975 207.611 205.685 192.116 210.375C191.344 208.353 190.55 206.332 189.736 204.331C205.251 199.703 220.767 195.076 236.283 190.428C237.076 192.366 237.849 194.326 238.601 196.285Z" fill="#F4F5F9"/>
<path d="M263.367 188.781C256.225 190.949 249.084 193.117 241.921 195.284C241.169 193.325 240.417 191.387 239.624 189.427C246.787 187.301 253.928 185.154 261.091 183.028C261.864 184.946 262.636 186.864 263.367 188.781Z" fill="#F4F5F9"/>
<path d="M215.004 242.245C212.31 243.141 209.595 244.017 206.901 244.913C205.732 239.431 204.333 234.054 202.745 228.676C205.46 227.821 208.154 226.946 210.869 226.091C212.456 231.448 213.834 236.805 215.004 242.245Z" fill="#0F0F11"/>
<path d="M212.79 242.975C212.143 243.183 211.808 243.287 211.161 243.517C209.992 238.056 208.593 232.699 207.026 227.342C207.674 227.133 208.008 227.029 208.655 226.821C210.242 232.157 211.621 237.514 212.79 242.975Z" fill="#0F0F11"/>
<path d="M221.895 239.973C220.015 240.599 219.055 240.911 217.175 241.536C216.006 236.096 214.628 230.76 213.061 225.424C214.962 224.82 215.901 224.528 217.802 223.924C219.347 229.218 220.725 234.554 221.895 239.973Z" fill="#0F0F11"/>
<path d="M250.775 230.448C247.935 231.386 245.074 232.324 242.234 233.262C241.086 227.926 239.728 222.673 238.183 217.42C241.044 216.524 243.884 215.607 246.745 214.711C248.29 219.922 249.648 225.132 250.775 230.448Z" fill="#0F0F11"/>
<path d="M236.972 235.012C234.863 235.7 232.754 236.409 230.624 237.097C229.475 231.719 228.097 226.404 226.552 221.131C228.661 220.464 230.791 219.776 232.9 219.109C234.466 224.361 235.823 229.635 236.972 235.012Z" fill="#0F0F11"/>
<path d="M224.526 239.098C223.712 239.369 223.315 239.494 222.5 239.765C221.331 234.345 219.953 229.03 218.386 223.715C219.201 223.465 219.598 223.319 220.412 223.069C221.978 228.384 223.357 233.699 224.526 239.098Z" fill="#0F0F11"/>
<path d="M216.632 241.703C215.985 241.912 215.651 242.016 215.004 242.245C213.834 236.805 212.456 231.448 210.869 226.112C211.516 225.904 211.85 225.8 212.498 225.591C214.085 230.927 215.463 236.263 216.632 241.703Z" fill="#0F0F11"/>
<path d="M214.252 242.495C213.918 242.599 213.771 242.662 213.437 242.766C212.268 237.326 210.89 231.948 209.303 226.612C209.637 226.508 209.783 226.466 210.117 226.362C211.704 231.677 213.082 237.055 214.252 242.495Z" fill="#0F0F11"/>
<path d="M229.162 237.576C228.515 237.785 228.18 237.889 227.533 238.118C226.364 232.72 225.006 227.404 223.44 222.11C224.087 221.902 224.422 221.798 225.069 221.589C226.635 226.883 228.013 232.178 229.162 237.576Z" fill="#0F0F11"/>
<path d="M241.65 233.47C241.002 233.678 240.668 233.783 240.021 234.012C238.872 228.655 237.515 223.402 235.969 218.15C236.617 217.941 236.951 217.837 237.598 217.629C239.144 222.861 240.501 228.113 241.65 233.47Z" fill="#0F0F11"/>
<path d="M230.624 237.097C230.289 237.201 230.143 237.264 229.809 237.368C228.661 231.99 227.282 226.675 225.716 221.401C226.05 221.297 226.196 221.256 226.531 221.151C228.097 226.404 229.475 231.719 230.624 237.097Z" fill="#0F0F11"/>
<path d="M238.392 234.533C238.058 234.637 237.912 234.7 237.577 234.804C236.429 229.447 235.072 224.174 233.505 218.921C233.839 218.817 233.986 218.775 234.32 218.671C235.865 223.903 237.243 229.176 238.392 234.533Z" fill="#0F0F11"/>
<path d="M259.567 227.55C257.687 228.176 256.727 228.488 254.847 229.114C253.72 223.819 252.362 218.608 250.838 213.418C252.738 212.814 253.678 212.522 255.578 211.918C257.082 217.087 258.418 222.277 259.567 227.55Z" fill="#0F0F11"/>
<path d="M264.244 226.008C263.597 226.216 263.263 226.321 262.616 226.55C261.488 221.276 260.151 216.107 258.627 210.938C259.274 210.73 259.608 210.625 260.256 210.417C261.78 215.586 263.117 220.755 264.244 226.008Z" fill="#0F0F11"/>
<path d="M260.966 227.092C260.632 227.196 260.486 227.259 260.151 227.363C259.024 222.089 257.687 216.899 256.163 211.73C256.497 211.626 256.643 211.584 256.977 211.48C258.502 216.628 259.838 221.818 260.966 227.092Z" fill="#0F0F11"/>
<path d="M254.054 229.364C253.406 229.572 253.072 229.676 252.425 229.906C251.276 224.611 249.94 219.38 248.395 214.19C249.042 213.981 249.376 213.877 250.023 213.668C251.569 218.859 252.905 224.069 254.054 229.364Z" fill="#0F0F11"/>
<path d="M269.361 224.32C267.502 224.924 266.583 225.237 264.725 225.841C263.597 220.589 262.261 215.419 260.736 210.25C262.595 209.666 263.534 209.354 265.393 208.77C266.917 213.919 268.254 219.088 269.361 224.32Z" fill="#0F0F11"/>
<path d="M249.648 230.823C249.313 230.927 249.167 230.99 248.833 231.094C247.685 225.779 246.348 220.547 244.803 215.336C245.137 215.232 245.283 215.19 245.617 215.086C247.163 220.276 248.499 225.508 249.648 230.823Z" fill="#0F0F11"/>
<path d="M250.775 230.448C250.441 230.552 250.295 230.614 249.961 230.719C248.812 225.403 247.476 220.172 245.93 214.961C246.265 214.857 246.411 214.815 246.745 214.711C248.29 219.922 249.647 225.132 250.775 230.448Z" fill="#0F0F11"/>
<path d="M265.539 225.591C265.205 225.695 265.059 225.758 264.725 225.862C263.597 220.609 262.261 215.44 260.736 210.271C261.07 210.167 261.216 210.125 261.55 210.021C263.075 215.169 264.411 220.338 265.539 225.591Z" fill="#0F0F11"/>
<path d="M266.667 225.216C266.333 225.32 266.186 225.383 265.852 225.487C264.725 220.234 263.388 215.065 261.864 209.917C262.198 209.812 262.344 209.771 262.678 209.667C264.203 214.794 265.539 219.963 266.667 225.216Z" fill="#0F0F11"/>
<path d="M270.342 224.007C270.154 224.069 270.05 224.111 269.862 224.174C268.734 218.942 267.398 213.773 265.894 208.645C266.082 208.583 266.186 208.562 266.374 208.499C267.878 213.606 269.214 218.775 270.342 224.007Z" fill="#0F0F11"/>
<path opacity="0.21" d="M355.835 175.462C334.723 123.52 284.897 108.47 263.305 56.799C261.571 56.4238 260.694 56.2154 258.982 55.7985C258.021 58.0705 257.082 60.3216 256.142 62.5935C254.116 62.1558 252.07 61.6764 250.044 61.197C249.084 63.469 249 53.5682 248.081 55.8402C246.035 55.3816 244.009 54.9022 241.984 54.402C241.023 56.6739 240.104 58.9667 239.185 61.2596C237.139 60.801 235.113 60.3007 233.067 59.8005C232.127 62.0933 231.187 64.3861 230.269 66.6998C228.222 66.2203 226.176 65.7201 224.15 65.199C223.21 67.4918 222.271 69.8055 221.373 72.1191C219.326 71.6397 217.28 71.1186 215.233 70.5975C214.293 72.9112 213.375 75.2248 212.456 77.5385C210.409 77.0591 208.363 76.538 206.316 75.996C206.17 76.3712 206.003 76.7464 205.857 77.1216C205.084 79.0601 204.312 81.0194 203.539 82.9578C201.493 82.4576 199.425 81.9365 197.379 81.3737C197.003 82.3325 196.606 83.2913 196.23 84.2501C195.687 85.6258 195.165 87.0015 194.622 88.3772C193.641 88.127 192.638 87.8769 191.657 87.6268C190.592 87.3558 189.527 87.064 188.462 86.7722C188.357 87.0015 188.274 87.2308 188.19 87.4392C187.564 89.0233 187.167 90.0238 186.499 91.7747C188.337 96.1519 190.362 100.404 192.555 104.531C192.952 105.281 193.348 106.011 193.766 106.74C194.372 107.845 194.998 108.929 195.625 110.013C196.063 110.784 196.522 111.555 196.982 112.306C198.778 115.286 200.678 118.225 202.641 121.102C202.662 121.123 202.662 121.123 202.662 121.143C203.226 121.956 203.769 122.769 204.353 123.582C208.801 129.939 213.583 136.067 218.533 142.07C219.786 143.571 221.038 145.072 222.291 146.573C223.67 148.199 225.069 149.845 226.468 151.45C228.034 153.264 229.621 155.077 231.208 156.89C232.628 158.495 234.027 160.121 235.447 161.726C237.034 163.519 238.622 165.332 240.188 167.125C241.587 168.73 242.986 170.314 244.385 171.919C245.93 173.711 247.476 175.504 249.021 177.296C250.378 178.88 251.715 180.485 253.051 182.09C254.263 183.549 255.453 185.008 256.643 186.467C260.945 191.803 265.101 197.223 268.985 202.851C275.918 212.835 281.994 223.402 286.672 234.929C286.735 235.117 286.839 235.304 286.923 235.45C287.612 233.345 287.946 232.282 288.593 230.198C290.535 230.552 292.477 230.927 294.42 231.323C295.234 228.822 296.048 226.341 296.842 223.84C298.784 224.195 300.726 224.549 302.647 224.945C303.462 222.465 304.276 219.984 305.07 217.483C307.012 217.816 308.933 218.192 310.875 218.546C311.71 216.066 312.504 213.606 313.318 211.126C315.26 211.459 317.181 211.813 319.123 212.168C319.959 209.708 320.773 207.228 321.567 204.768C323.509 205.081 322.757 201.475 324.678 201.829C325.514 199.37 326.328 196.931 327.142 194.451C329.064 194.763 330.985 195.097 332.906 195.43C333.741 192.992 334.556 190.532 335.37 188.093C337.291 188.406 339.212 188.719 341.134 189.052C341.969 186.613 342.804 184.175 343.619 181.736C345.54 182.028 347.461 182.34 349.361 182.674C350.197 180.256 351.032 177.817 351.867 175.379C353.496 175.629 354.31 175.754 355.897 176.004C355.96 175.837 355.897 175.65 355.835 175.462Z" fill="#2F3BA1"/>
<path d="M364 172.732C362.392 172.606 361.578 172.565 359.928 172.44C359.322 174.92 358.696 177.421 358.048 179.902C356.106 179.735 354.185 179.589 352.243 179.464C351.638 181.965 351.011 184.467 350.385 186.947C348.443 186.78 346.5 186.613 344.558 186.467C343.953 188.969 343.347 191.491 342.721 193.992C340.779 193.804 338.837 193.638 336.895 193.492C336.289 196.014 335.683 198.536 335.057 201.037C333.115 200.85 331.152 200.662 329.21 200.516C328.625 203.038 328.019 205.56 327.393 208.103C325.43 207.895 323.488 207.707 321.525 207.54C320.94 210.083 320.335 212.605 319.708 215.148C317.745 214.94 315.803 214.752 313.84 214.565C313.256 217.108 312.65 219.651 312.044 222.194C310.081 221.964 308.118 221.777 306.156 221.589C305.571 224.153 304.986 226.696 304.381 229.239C302.418 229.009 300.455 228.801 298.471 228.593C297.99 230.719 297.74 231.802 297.239 233.97C297.134 233.824 297.03 233.658 296.946 233.47C291.329 222.381 284.375 212.355 276.649 202.976C272.305 197.702 267.711 192.637 262.971 187.676C261.676 186.322 260.36 184.967 259.024 183.612C257.562 182.132 256.079 180.652 254.597 179.172C252.926 177.505 251.235 175.858 249.543 174.211C248.019 172.732 246.494 171.252 244.97 169.772C243.237 168.104 241.503 166.458 239.791 164.79C238.246 163.31 236.7 161.809 235.155 160.33C233.422 158.662 231.689 156.974 229.976 155.306C228.452 153.805 226.927 152.305 225.403 150.783C224.025 149.407 222.647 148.011 221.268 146.614C215.818 141.049 210.556 135.338 205.586 129.377C204.959 128.626 204.333 127.855 203.706 127.084C203.706 127.063 203.685 127.063 203.664 127.042C201.472 124.333 199.342 121.581 197.295 118.746C196.773 118.038 196.251 117.308 195.75 116.579C195.04 115.557 194.33 114.515 193.62 113.473C193.16 112.785 192.68 112.076 192.242 111.368C189.694 107.449 187.313 103.385 185.121 99.1742C185.643 97.3608 185.956 96.3395 186.457 94.6928C186.52 94.4844 186.582 94.2551 186.666 94.005C187.752 94.2134 188.838 94.401 189.924 94.5886C190.926 94.7553 191.928 94.9221 192.952 95.0888C193.369 93.6715 193.787 92.2541 194.205 90.8367C194.497 89.8571 194.81 88.8566 195.103 87.8769C197.191 88.2521 199.279 88.6065 201.367 88.94C201.952 86.939 202.558 84.9171 203.184 82.9161C203.309 82.5201 203.414 82.1449 203.539 81.7489C205.627 82.1241 207.695 82.4576 209.783 82.7911C210.493 80.394 211.224 78.0179 211.955 75.6417C214.022 75.996 216.11 76.3295 218.199 76.6422C218.909 74.266 219.639 71.8898 220.391 69.5136C222.459 69.868 224.526 70.2015 226.614 70.4933C227.324 68.1171 228.076 65.7618 228.828 63.3856C230.895 63.7191 232.962 64.0526 235.03 64.3444C235.761 61.9891 236.492 59.6337 237.243 57.2784C239.311 57.6119 241.378 57.9246 243.445 58.1955C244.176 55.8402 244.928 53.4849 245.68 51.1504C247.747 51.4839 249.794 51.7757 251.861 52.0466C252.592 49.7122 253.344 47.3568 254.116 45.0223C255.85 45.2933 256.727 45.4184 258.502 45.6476C284.333 95.339 338.419 122.102 363.791 172.127C363.875 172.356 363.958 172.544 364 172.732Z" fill="#F4F5F9"/>
<path d="M217.196 102.53C217.823 101.509 217.781 100.529 217.113 99.5494C216.653 98.8824 216.089 98.5072 215.4 98.403C214.774 98.2988 214.064 98.528 213.27 99.07C213.187 99.1117 213.124 99.1742 213.041 99.2367C211.788 100.175 211.14 100.654 209.887 101.592C210.848 103.009 211.829 104.427 212.811 105.823C213.103 106.219 213.375 106.636 213.667 107.032C214.126 107.678 214.586 108.325 215.066 108.95C215.108 109.012 215.15 109.054 215.191 109.117C215.714 108.721 215.985 108.533 216.507 108.137C215.693 107.032 215.254 106.449 214.523 105.427C214.44 105.323 214.356 105.219 214.273 105.094C215.004 104.531 215.379 104.26 216.11 103.718C216.152 103.739 216.194 103.781 216.236 103.801C216.758 104.156 217.196 104.448 217.614 104.719C217.948 104.927 218.282 105.156 218.637 105.386C218.888 105.552 219.159 105.719 219.472 105.928C220.015 105.511 220.308 105.302 220.851 104.885C219.368 103.927 218.637 103.468 217.196 102.53ZM215.129 102.759C214.481 103.239 214.147 103.489 213.5 103.968C212.853 103.051 212.539 102.613 211.934 101.675C212.623 101.154 212.978 100.904 213.667 100.383C213.771 100.3 213.876 100.237 213.98 100.175C214.273 100.008 214.565 99.9454 214.836 99.9871C215.191 100.029 215.505 100.196 215.734 100.55C215.985 100.904 216.069 101.279 215.985 101.655C215.922 101.946 215.734 102.217 215.442 102.488C215.359 102.593 215.254 102.676 215.129 102.759Z" fill="#0F0F11"/>
<path d="M226.05 99.1325C224.693 100.154 224.004 100.675 222.646 101.696C222.041 100.863 221.749 100.446 221.143 99.6119C222.229 98.799 222.772 98.403 223.837 97.5901C223.524 97.1524 223.377 96.9439 223.064 96.5062C221.978 97.3191 221.435 97.7151 220.37 98.528C219.806 97.7151 219.514 97.2983 218.971 96.4854C220.308 95.4849 220.997 94.9846 222.333 93.9633C222.02 93.5047 221.874 93.2963 221.581 92.8377C220.015 94.005 218.449 95.1722 216.904 96.3186C218.616 98.8615 220.37 101.342 222.187 103.801C223.753 102.613 225.319 101.425 226.907 100.237C226.552 99.8203 226.384 99.5911 226.05 99.1325Z" fill="#0F0F11"/>
<path d="M231.522 93.0462C230.999 93.3588 230.728 93.5047 230.206 93.8174C230.477 94.2759 230.582 94.7553 230.54 95.2556C230.498 95.7558 230.269 96.1519 229.893 96.4437C229.412 96.798 228.869 96.8606 228.243 96.6313C227.616 96.402 226.99 95.8392 226.343 94.9221C225.716 94.0467 225.382 93.2546 225.34 92.5668C225.299 91.8998 225.507 91.3578 226.009 91.0035C226.781 90.4407 227.658 90.6491 228.661 91.6079C229.12 91.1911 229.329 90.9826 229.788 90.5658C229.078 89.8154 228.326 89.3777 227.533 89.2734C226.739 89.1692 225.988 89.3777 225.257 89.9196C224.338 90.6074 223.858 91.5246 223.816 92.6293C223.774 93.7548 224.15 94.8804 224.964 96.006C225.466 96.7146 226.029 97.2774 226.677 97.6735C227.324 98.0903 227.971 98.2988 228.64 98.3404C229.308 98.3613 229.976 98.132 230.624 97.6318C231.417 97.0481 231.856 96.3186 232.002 95.4849C232.127 94.672 231.96 93.8382 231.522 93.0462Z" fill="#0F0F11"/>
<path d="M238.643 90.6074C238.496 90.4199 238.371 90.2531 238.183 90.003C236.826 91.0243 236.137 91.5454 234.779 92.5668C234.174 91.7538 233.881 91.337 233.297 90.5032C234.383 89.6903 234.925 89.2943 235.99 88.4814C235.677 88.0437 235.531 87.8352 235.239 87.4184C234.153 88.2313 233.61 88.6273 232.545 89.4402C231.981 88.6273 231.71 88.2313 231.146 87.4184C232.482 86.4179 233.171 85.9176 234.508 84.8963C234.195 84.4586 234.048 84.2293 233.756 83.7707C232.19 84.938 230.624 86.1052 229.078 87.2516C230.77 89.7529 232.503 92.2333 234.299 94.672C235.782 93.5672 237.243 92.4417 238.726 91.337C238.83 91.2536 238.914 91.1911 239.018 91.1077C238.872 90.9201 238.747 90.7534 238.643 90.6074Z" fill="#0F0F11"/>
<path d="M238.037 84.5211C237.724 84.0834 237.431 83.6457 237.139 83.2079C236.847 82.7702 236.554 82.3534 236.262 81.9156C236.053 82.0824 235.865 82.2074 235.719 82.3325C235.489 82.4993 235.26 82.666 234.967 82.8953C236.074 84.5419 237.202 86.1469 238.35 87.7519C238.956 88.5856 239.561 89.4402 240.167 90.2739C240.689 89.8779 240.96 89.6903 241.482 89.2943C240.292 87.7102 239.165 86.1261 238.037 84.5211Z" fill="#0F0F11"/>
<path d="M244.824 78.8308C244.427 78.2471 243.863 77.872 243.153 77.7469C242.443 77.6218 241.671 77.872 240.835 78.4973C239.645 79.3936 239.039 79.8313 237.849 80.7275C239.52 83.2288 241.253 85.6675 243.028 88.0854C243.55 87.6893 243.821 87.5017 244.343 87.1057C243.487 85.9593 243.07 85.3965 242.255 84.2293C242.986 83.6873 243.341 83.4164 244.072 82.8744C244.761 82.3742 245.158 81.728 245.325 80.9777C245.45 80.2273 245.304 79.5186 244.824 78.8308ZM243.717 80.936C243.654 81.2903 243.404 81.6238 243.007 81.9365C242.381 82.395 242.088 82.6243 241.462 83.1037C240.835 82.2283 240.543 81.7697 239.937 80.8943C240.501 80.4566 240.793 80.2481 241.378 79.8313C241.879 79.4561 242.318 79.2893 242.673 79.3519C243.007 79.4144 243.299 79.602 243.508 79.9146C243.696 80.2273 243.78 80.5608 243.717 80.936Z" fill="#0F0F11"/>
<path d="M247.706 75.0998C248.478 74.5161 248.875 74.2243 249.648 73.6615C249.334 73.203 249.188 72.9737 248.875 72.5151C247.121 73.8283 245.367 75.1414 243.592 76.4546C243.905 76.9132 244.051 77.1424 244.364 77.601C245.137 77.0174 245.534 76.7256 246.306 76.1628C247.726 78.2471 249.188 80.3107 250.692 82.3325C251.256 81.9156 251.527 81.6864 252.091 81.2695C250.587 79.2476 249.126 77.1841 247.706 75.0998Z" fill="#0F0F11"/>
<path d="M273.829 82.3117C254.283 97.7568 234.737 113.223 215.191 128.668C214.795 128.209 214.607 128.001 214.21 127.542C233.777 112.097 253.344 96.673 272.89 81.2278C273.266 81.6655 273.454 81.8739 273.829 82.3117Z" fill="white"/>
<path d="M335.976 145.301C317.265 161.559 298.554 177.838 279.865 194.096C279.134 193.242 278.758 192.825 278.027 191.991C296.758 175.754 315.49 159.517 334.242 143.3C334.932 144.092 335.287 144.509 335.976 145.301Z" fill="#0F0F11"/>
<path d="M349.236 162.664C330.755 179.214 312.274 195.785 293.793 212.334C293.167 211.397 292.853 210.938 292.227 210C310.729 193.471 329.252 176.963 347.753 160.434C348.338 161.33 348.63 161.768 349.236 162.664Z" fill="#0F0F11"/>
<path d="M269.653 115.495C256.936 125.604 244.239 135.713 231.522 145.822C229.976 144.301 228.452 142.758 226.927 141.216C239.687 131.148 252.446 121.102 265.205 111.034C266.667 112.514 268.149 114.015 269.653 115.495Z" fill="white"/>
<path d="M289.951 99.3409C283.916 104.135 277.902 108.929 271.867 113.723C270.384 112.243 268.901 110.763 267.419 109.263C273.474 104.489 279.53 99.7161 285.565 94.9429C287.027 96.4228 288.489 97.8819 289.951 99.3409Z" fill="white"/>
<path d="M263.806 135.463C255.996 141.779 248.186 148.094 240.355 154.41C238.789 152.909 237.222 151.408 235.656 149.887C243.508 143.592 251.339 137.318 259.191 131.023C260.736 132.503 262.261 133.983 263.806 135.463Z" fill="white"/>
<path d="M298.387 107.512C287.612 116.224 276.837 124.916 266.082 133.629C264.537 132.149 263.012 130.69 261.488 129.21C272.305 120.539 283.122 111.889 293.918 103.218C295.401 104.656 296.884 106.094 298.387 107.512Z" fill="white"/>
<path d="M280.637 137.193C270.196 145.76 259.755 154.347 249.313 162.914C247.726 161.413 246.16 159.913 244.573 158.412C255.056 149.887 265.539 141.341 276.022 132.816C277.547 134.275 279.092 135.734 280.637 137.193Z" fill="white"/>
<path d="M306.886 115.62C298.868 122.206 290.849 128.793 282.809 135.38C281.285 133.921 279.739 132.462 278.215 131.002C286.275 124.437 294.336 117.892 302.376 111.326C303.9 112.764 305.383 114.182 306.886 115.62Z" fill="white"/>
<path d="M274.289 158.037C268.943 162.497 263.576 166.979 258.23 171.439C256.664 169.918 255.098 168.417 253.532 166.916C258.899 162.476 264.286 158.016 269.653 153.576C271.198 155.056 272.744 156.536 274.289 158.037Z" fill="white"/>
<path d="M315.365 123.749C302.438 134.546 289.512 145.322 276.586 156.119C275.041 154.618 273.516 153.138 271.971 151.659C284.939 140.924 297.928 130.19 310.896 119.434C312.399 120.872 313.882 122.311 315.365 123.749Z" fill="white"/>
<path d="M303.984 148.72C291.642 159.183 279.301 169.647 266.959 180.11C265.435 178.568 263.91 177.025 262.365 175.504C274.748 165.082 287.132 154.66 299.536 144.259C301.018 145.739 302.501 147.219 303.984 148.72Z" fill="white"/>
<path d="M323.697 132.003C317.996 136.839 312.316 141.654 306.615 146.489C305.153 144.989 303.671 143.509 302.188 142.029C307.91 137.235 313.611 132.42 319.332 127.626C320.794 129.064 322.256 130.523 323.697 132.003Z" fill="white"/>
<path d="M300.663 200.266C298.533 202.163 296.424 204.039 294.294 205.935C291.037 201.392 287.612 196.994 284.02 192.7C286.171 190.824 288.301 188.969 290.452 187.093C294.023 191.366 297.427 195.722 300.663 200.266Z" fill="#0F0F11"/>
<path d="M298.93 201.808C298.429 202.267 298.158 202.496 297.656 202.934C294.399 198.39 290.995 194.013 287.403 189.74C287.925 189.302 288.176 189.073 288.698 188.614C292.269 192.908 295.693 197.265 298.93 201.808Z" fill="#0F0F11"/>
<path d="M306.072 195.451C304.589 196.764 303.838 197.431 302.355 198.744C299.118 194.221 295.714 189.865 292.143 185.592C293.647 184.279 294.378 183.633 295.881 182.34C299.452 186.593 302.856 190.928 306.072 195.451Z" fill="#0F0F11"/>
<path d="M328.771 175.212C326.537 177.213 324.302 179.193 322.068 181.194C318.894 176.754 315.532 172.461 312.044 168.271C314.3 166.312 316.555 164.332 318.81 162.372C322.298 166.541 325.618 170.814 328.771 175.212Z" fill="#0F0F11"/>
<path d="M317.933 184.883C316.263 186.363 314.613 187.843 312.942 189.323C309.726 184.842 306.364 180.527 302.835 176.296C304.506 174.837 306.176 173.378 307.868 171.919C311.376 176.129 314.738 180.423 317.933 184.883Z" fill="#0F0F11"/>
<path d="M308.139 193.596C307.513 194.159 307.179 194.451 306.552 195.013C303.316 190.511 299.933 186.176 296.383 181.924C297.03 181.361 297.343 181.09 297.991 180.527C301.541 184.758 304.924 189.094 308.139 193.596Z" fill="#0F0F11"/>
<path d="M301.937 199.12C301.436 199.578 301.165 199.807 300.663 200.245C297.427 195.722 294.023 191.345 290.431 187.072C290.953 186.634 291.204 186.405 291.726 185.946C295.297 190.24 298.7 194.597 301.937 199.12Z" fill="#0F0F11"/>
<path d="M300.079 200.787C299.828 201.016 299.703 201.121 299.452 201.35C296.195 196.827 292.791 192.45 289.22 188.177C289.47 187.947 289.596 187.843 289.867 187.614C293.417 191.887 296.842 196.264 300.079 200.787Z" fill="#0F0F11"/>
<path d="M311.794 190.344C311.293 190.803 311.021 191.032 310.52 191.47C307.304 186.989 303.921 182.653 300.392 178.422C300.914 177.984 301.165 177.755 301.687 177.296C305.216 181.548 308.578 185.863 311.794 190.344Z" fill="#0F0F11"/>
<path d="M321.609 181.611C321.107 182.069 320.836 182.299 320.335 182.736C317.14 178.297 313.799 174.003 310.29 169.793C310.812 169.355 311.063 169.126 311.585 168.667C315.072 172.877 318.414 177.171 321.609 181.611Z" fill="#0F0F11"/>
<path d="M312.942 189.323C312.692 189.552 312.566 189.657 312.316 189.886C309.1 185.404 305.738 181.09 302.188 176.859C302.438 176.629 302.564 176.525 302.835 176.296C306.364 180.527 309.726 184.842 312.942 189.323Z" fill="#0F0F11"/>
<path d="M319.04 183.904C318.789 184.133 318.664 184.237 318.413 184.467C315.218 180.006 311.856 175.712 308.348 171.502C308.599 171.272 308.724 171.168 308.995 170.939C312.504 175.149 315.845 179.443 319.04 183.904Z" fill="#0F0F11"/>
<path d="M335.683 169.084C334.201 170.397 333.449 171.064 331.966 172.377C328.813 167.979 325.493 163.727 322.026 159.579C323.53 158.266 324.261 157.62 325.764 156.328C329.231 160.455 332.53 164.686 335.683 169.084Z" fill="#0F0F11"/>
<path d="M339.359 165.811C338.857 166.27 338.586 166.499 338.085 166.937C334.952 162.56 331.653 158.329 328.187 154.201C328.709 153.764 328.959 153.534 329.481 153.076C332.927 157.224 336.226 161.434 339.359 165.811Z" fill="#0F0F11"/>
<path d="M336.79 168.083C336.54 168.313 336.414 168.417 336.143 168.646C332.99 164.269 329.69 160.038 326.245 155.89C326.495 155.661 326.62 155.556 326.892 155.327C330.337 159.475 333.637 163.706 336.79 168.083Z" fill="#0F0F11"/>
<path d="M331.34 172.94C330.839 173.399 330.567 173.628 330.066 174.066C326.913 169.647 323.592 165.395 320.105 161.247C320.627 160.809 320.878 160.58 321.4 160.121C324.866 164.29 328.187 168.521 331.34 172.94Z" fill="#0F0F11"/>
<path d="M343.389 162.205C341.927 163.498 341.196 164.165 339.735 165.457C336.602 161.08 333.303 156.869 329.857 152.742C331.34 151.45 332.071 150.825 333.532 149.533C336.978 153.66 340.257 157.849 343.389 162.205Z" fill="#0F0F11"/>
<path d="M327.894 176.025C327.644 176.254 327.518 176.358 327.247 176.588C324.073 172.169 320.752 167.896 317.265 163.727C317.516 163.498 317.641 163.394 317.912 163.164C321.4 167.333 324.72 171.606 327.894 176.025Z" fill="#0F0F11"/>
<path d="M328.771 175.212C328.521 175.441 328.395 175.545 328.145 175.775C324.971 171.356 321.65 167.104 318.163 162.935C318.414 162.706 318.539 162.601 318.81 162.372C322.298 166.541 325.618 170.814 328.771 175.212Z" fill="#0F0F11"/>
<path d="M340.382 164.894C340.131 165.124 340.006 165.228 339.755 165.457C336.623 161.08 333.324 156.869 329.878 152.742C330.129 152.513 330.254 152.409 330.525 152.18C333.95 156.307 337.25 160.517 340.382 164.894Z" fill="#0F0F11"/>
<path d="M341.259 164.102C341.008 164.332 340.883 164.436 340.612 164.665C337.479 160.288 334.201 156.077 330.734 151.971C330.985 151.742 331.11 151.638 331.381 151.408C334.848 155.535 338.127 159.746 341.259 164.102Z" fill="#0F0F11"/>
<path d="M344.141 161.538C343.995 161.664 343.911 161.747 343.765 161.872C340.632 157.516 337.354 153.326 333.929 149.199C334.075 149.074 334.159 148.991 334.305 148.866C337.751 152.993 341.029 157.182 344.141 161.538Z" fill="#A4ADF8"/>
<path opacity="0.21" d="M219.18 117.392L203.81 127.021L203.685 127.105L196.355 131.69L160.793 153.993C155.008 137.735 150.539 121.123 149.328 103.593C150.706 101.946 151.395 101.133 152.795 99.4868C154.549 100.675 156.324 101.842 158.12 102.989C159.728 101.05 161.336 99.1325 162.964 97.2357C164.719 98.403 166.494 99.5702 168.289 100.696C169.897 98.7782 171.505 96.8605 173.155 94.9638C174.909 96.131 176.684 97.2774 178.48 98.403C180.088 96.4854 181.696 94.5886 183.325 92.7127C184.369 93.4005 185.392 94.0675 186.436 94.7345C186.499 94.5261 186.562 94.2968 186.645 94.0467C187.731 94.2551 188.817 94.4427 189.903 94.6303C191.093 93.2337 192.283 91.8372 193.495 90.4407C193.724 90.5866 193.954 90.7325 194.184 90.8784C194.476 89.8988 194.789 88.8983 195.082 87.9186C197.17 88.2938 199.258 88.6481 201.346 88.9816C201.931 86.9806 202.537 84.9588 203.163 82.9578L208.258 91.0452L213.291 99.0491L214.001 100.196L215.463 102.509L216.256 103.781L216.925 104.844L217.697 106.073L220.684 110.826C222.083 113.056 221.414 115.995 219.18 117.392Z" fill="#2F3BA1"/>
<path d="M131.453 202.851C131.056 208.562 125.794 209.396 121.199 209.875C118.151 210.188 105.955 211.459 96.0151 213.981C90.9407 215.273 86.451 216.899 84.0913 218.9C77.0539 224.82 86.8895 196.702 87.4116 196.806C87.5369 196.827 88.9569 196.764 91.1078 196.66C93.5928 196.535 97.0384 196.347 100.568 196.16C108.023 195.743 115.874 195.305 115.874 195.305C115.874 195.305 121.429 195.972 125.919 197.681C129.03 198.828 131.62 200.516 131.453 202.851Z" fill="white" stroke="black" stroke-miterlimit="10"/>
<path d="M112.596 181.944C112.345 182.007 112.095 182.09 111.844 182.153C110.299 182.591 108.858 182.987 107.563 183.341C101.257 185.05 97.644 185.863 95.7855 186.217C94.5743 186.447 94.1149 186.509 94.1149 186.509L100.15 167.979L120.531 163.665C120.531 163.665 134 159.746 139.722 164.352C141.017 165.395 141.915 166.874 142.165 168.917C143.565 180.089 127.088 177.797 112.596 181.944Z" fill="white" stroke="black" stroke-miterlimit="10"/>
<path d="M140.14 190.469C139.451 199.349 127.819 197.973 126.316 197.681C126.232 197.661 126.107 197.661 125.919 197.619C123.371 197.327 110.988 196.66 99.4608 198.974C95.7646 199.703 92.1728 200.766 89.0195 202.225L91.1078 196.618L94.5534 187.322L95.7855 186.217L100.233 182.278L108.398 182.174L111.844 182.132L129.009 181.965C129.009 181.965 140.808 181.611 140.14 190.469Z" fill="white" stroke="black" stroke-miterlimit="10"/>
<path d="M139.743 164.352L110.424 179.714C110.424 179.714 109.631 180.569 108.398 182.195C108.148 182.549 107.856 182.924 107.563 183.362C105.579 186.155 102.885 190.49 100.568 196.139C100.192 197.056 99.8158 198.015 99.4608 198.995C97.8946 203.351 96.5999 208.374 95.9943 213.981C90.9198 215.273 86.4301 216.899 84.0704 218.9C77.033 224.82 86.8686 196.702 87.3907 196.806C87.516 196.827 88.936 196.764 91.0869 196.66L94.5325 187.364L95.7646 186.259C94.5534 186.488 94.094 186.551 94.094 186.551L100.129 168.021L120.51 163.706C120.531 163.665 134.021 159.746 139.743 164.352Z" fill="#141745"/>
<path d="M90.9199 197.223L47.1711 287.622L23.7827 276.22L1.14612 265.173C4.71702 254.96 9.1441 241.078 9.60352 233.762C10.3971 221.318 6.8888 181.34 15.1374 172.002C23.3651 162.664 67.5106 142.925 93.5511 137.318C99.3564 136.067 102.155 138.11 103.053 142.008C103.533 142.05 103.951 142.133 104.368 142.258C119.487 146.552 90.9199 197.223 90.9199 197.223Z" fill="white" stroke="black" stroke-miterlimit="10"/>
<path d="M71.2694 143.863C73.9632 149.991 77.8683 167.333 77.5133 167.667L87.2863 160.288L81.5436 140.486L71.2694 143.863Z" fill="#141745"/>
<path d="M62.5824 184.883C62.5824 184.883 79.3093 164.269 81.7107 156.453L85.9916 162.622L62.5824 184.883Z" fill="#141745"/>
<path d="M100.213 181.715L213.897 119.059C216.194 117.788 217.05 114.89 215.776 112.598L178.71 45.5643C177.436 43.2715 174.533 42.4169 172.236 43.6883L58.5311 106.365C56.234 107.637 55.3779 110.534 56.6517 112.827L93.7181 179.839C95.0128 182.153 97.9154 182.987 100.213 181.715Z" fill="#0F0F11"/>
<path d="M68.2624 133.796L190.3 66.533L182.385 52.2134L60.3479 119.497L68.2624 133.796Z" fill="url(#paint1_linear_476_1002)"/>
<path d="M202.461 110.681L198.242 103.054L194.074 105.351L198.293 112.978L202.461 110.681Z" fill="white"/>
<path d="M195.495 114.505L191.275 106.878L187.107 109.175L191.327 116.802L195.495 114.505Z" fill="white"/>
<path d="M188.539 118.348L184.319 110.721L180.151 113.018L184.371 120.645L188.539 118.348Z" fill="white"/>
<path d="M181.583 122.191L177.363 114.564L173.195 116.861L177.415 124.488L181.583 122.191Z" fill="white"/>
<path d="M170.618 128.23L166.398 120.603L162.23 122.901L166.45 130.528L170.618 128.23Z" fill="white"/>
<path d="M163.652 132.055L159.432 124.428L155.264 126.725L159.484 134.352L163.652 132.055Z" fill="white"/>
<path d="M156.696 135.898L152.476 128.271L148.308 130.568L152.528 138.195L156.696 135.898Z" fill="white"/>
<path d="M149.739 139.74L145.52 132.113L141.352 134.411L145.571 142.038L149.739 139.74Z" fill="white"/>
<path d="M105.684 140.132L100.066 129.96C99.4399 128.835 97.999 128.418 96.8713 129.043L86.7016 134.65C85.5739 135.275 85.1563 136.714 85.7827 137.839L91.4001 148.011C92.0266 149.136 93.4675 149.553 94.5951 148.928L104.786 143.321C105.913 142.696 106.331 141.258 105.684 140.132Z" fill="white"/>
<path d="M118.965 152.847C117.482 160.559 112.742 169.251 111.719 170.772C110.006 173.294 93.0499 195.284 86.9313 215.711C81.6689 233.282 67.803 278.075 59.9512 293.875L47.1502 287.643L23.7618 276.241L49.5935 190.49L49.844 189.636C50.0111 189.594 50.9091 189.802 52.2873 189.844C54.7932 189.907 58.8862 189.406 62.9374 185.675C63.4594 185.196 64.0859 184.592 64.8168 183.904C72.7939 176.275 91.9431 156.974 94.8249 152.513C96.5999 149.762 99.962 145.009 104.306 142.279C105.12 141.758 105.976 141.299 106.874 140.966C109.568 139.903 112.533 139.757 115.686 141.278C119.529 143.133 119.947 147.782 118.965 152.847Z" fill="white" stroke="black" stroke-miterlimit="10"/>
<path d="M155.426 238.429C157.041 236.818 157.041 234.205 155.426 232.593C153.812 230.981 151.194 230.981 149.579 232.593C147.964 234.205 147.964 236.818 149.579 238.429C151.194 240.041 153.812 240.041 155.426 238.429Z" fill="#0F0F11"/>
<path d="M247.225 19.9265C252.738 19.9265 257.207 15.4658 257.207 9.96327C257.207 4.46071 252.738 0 247.225 0C241.712 0 237.243 4.46071 237.243 9.96327C237.243 15.4658 241.712 19.9265 247.225 19.9265Z" fill="#0F0F11"/>
<path d="M20.0103 127.199C20.918 123.249 18.4461 119.313 14.4892 118.407C10.5323 117.501 6.58869 119.968 5.68095 123.917C4.77322 127.867 7.24508 131.803 11.202 132.709C15.1589 133.615 19.1025 131.148 20.0103 127.199Z" fill="#0F0F11"/>
<defs>
<linearGradient id="paint0_linear_476_1002" x1="37.5703" y1="134.232" x2="283.042" y2="134.232" gradientUnits="userSpaceOnUse">
<stop stop-color="#F8931F"/>
<stop offset="1" stop-color="#EB5A17"/>
</linearGradient>
<linearGradient id="paint1_linear_476_1002" x1="60.3467" y1="93.0093" x2="190.303" y2="93.0093" gradientUnits="userSpaceOnUse">
<stop stop-color="#F8931F"/>
<stop offset="1" stop-color="#EB5A17"/>
</linearGradient>
</defs>
</svg>
