<svg width="313" height="361" viewBox="0 0 313 361" fill="none" xmlns="http://www.w3.org/2000/svg">
<g clip-path="url(#clip0_70_890)">
<path d="M26.6425 117.963C48.7214 77.3002 104.267 29.7823 180.47 49.5945C256.672 69.4067 308.152 111.207 299.707 183.985C291.262 256.762 246.92 317.18 151.453 318.958C55.9863 320.736 -21.7804 207.082 26.6425 117.963Z" fill="url(#paint0_linear_70_890)"/>
<path opacity="0.7" d="M26.6425 117.963C48.7214 77.3002 104.267 29.7823 180.47 49.5945C256.672 69.4067 308.152 111.207 299.707 183.985C291.262 256.762 246.92 317.18 151.453 318.958C55.9863 320.736 -21.7804 207.082 26.6425 117.963Z" fill="url(#paint1_linear_70_890)"/>
<path d="M301.074 173.371L257.267 180.155C253.744 180.701 251.331 184 251.876 187.524L255.652 211.924C256.197 215.448 259.495 217.863 263.018 217.317L306.824 210.533C310.347 209.987 312.761 206.688 312.215 203.164L308.44 178.764C307.894 175.24 304.596 172.825 301.074 173.371Z" stroke="white" stroke-miterlimit="10"/>
<path d="M252.166 189.46L308.735 180.699" stroke="white" stroke-miterlimit="10"/>
<path d="M304.308 190.639L295.176 192.053L297.214 205.223L306.346 203.809L304.308 190.639Z" stroke="white" stroke-miterlimit="10"/>
<path d="M298.883 194.239C300.816 191.963 303.986 193.485 303.247 200.597L306.091 202.019L306.375 203.811L297.233 205.233L296.864 202.844L300.318 201.493C300.318 201.493 297.077 196.373 298.883 194.239Z" stroke="white" stroke-miterlimit="10"/>
<path d="M279.064 210.325C279.064 210.325 285.661 210.325 283.77 209.059C281.879 207.793 281.595 206.399 283.201 206.385C284.808 206.371 287.466 209.415 287.296 207.566C287.125 205.717 288.248 206.912 288.476 207.025C288.703 207.139 290.608 206.385 290.694 206.599C290.779 206.812 290.694 207.452 296.878 206.485" stroke="white" stroke-miterlimit="10"/>
<path d="M256.971 195.334L284.68 191.039" stroke="white" stroke-miterlimit="10"/>
<path d="M257.454 198.477L273.776 195.96" stroke="white" stroke-miterlimit="10"/>
<path d="M258.307 204.024L281.083 200.497" stroke="white" stroke-miterlimit="10"/>
<path d="M265.373 183.302L293.153 178.992" stroke="white" stroke-miterlimit="10"/>
<path d="M0.810303 163.888L62.9241 151.472L84.6191 255.653L18.5957 269.818L0.810303 163.888Z" stroke="white" stroke-miterlimit="10"/>
<path d="M16.0935 254.956L81.989 243.023" stroke="white" stroke-miterlimit="10"/>
<path d="M74.184 234.162L42.7219 239.965" stroke="white" stroke-miterlimit="10"/>
<path d="M69.5209 228.928L60.3225 230.279" stroke="white" stroke-miterlimit="10"/>
<path d="M70.9141 218.29L23.9556 227.108" stroke="white" stroke-miterlimit="10"/>
<path d="M8.94238 212.288L73.2171 200.924" stroke="white" stroke-miterlimit="10"/>
<path d="M77.2406 252.282L38.2009 260.46" stroke="white" stroke-miterlimit="10"/>
<path d="M76.0748 248.982L57.7207 252.282" stroke="white" stroke-miterlimit="10"/>
<path d="M66.1513 194.068L33.95 200.44" stroke="white" stroke-miterlimit="10"/>
<path d="M63.6066 186.914L53.3562 188.934" stroke="white" stroke-miterlimit="10"/>
<path d="M62.9952 181.936L16.0935 190.982" stroke="white" stroke-miterlimit="10"/>
<path d="M58.7444 157.772L46.0771 160.389" stroke="white" stroke-miterlimit="10"/>
<path d="M16.0937 166.775L5.17505 168.894" stroke="white" stroke-miterlimit="10"/>
<path d="M9.1416 174.925C9.36606 174.151 9.75207 173.435 10.2741 172.822C10.7961 172.209 11.4423 171.714 12.1698 171.369" stroke="white" stroke-miterlimit="10"/>
<path d="M14.0037 181.965C12.6374 181.818 11.3707 181.181 10.4376 180.171C9.50461 179.162 8.96842 177.849 8.92822 176.475" stroke="white" stroke-miterlimit="10"/>
<path d="M18.2687 180.642C17.4738 181.352 16.4822 181.803 15.4253 181.936" stroke="white" stroke-miterlimit="10"/>
<path d="M14.5439 170.843C15.5284 170.871 16.4887 171.154 17.3309 171.665C18.173 172.175 18.8682 172.896 19.3483 173.756C19.8284 174.616 20.077 175.587 20.0697 176.572C20.0624 177.557 19.7994 178.523 19.3066 179.376" stroke="white" stroke-miterlimit="10"/>
<path d="M25.7042 172.293C24.6948 171.966 23.6711 171.597 22.6333 171.369" stroke="white" stroke-miterlimit="10"/>
<path d="M34.4051 173.019C33.5236 175.081 28.7183 173.204 27.2966 172.777" stroke="white" stroke-miterlimit="10"/>
<path d="M26.1023 167.557L35.1585 169.705C35.0163 170.302 34.9026 170.914 34.7888 171.525" stroke="white" stroke-miterlimit="10"/>
<path d="M21.624 169.705C22.5908 167.372 22.2069 166.619 24.6096 167.202" stroke="white" stroke-miterlimit="10"/>
<path d="M132.118 332.37L144.103 336.039L135.203 325.614C140.121 320.177 142.934 313.16 143.136 305.83" stroke="white" stroke-miterlimit="10"/>
<path d="M117.546 336.992C121.567 335.691 125.361 333.772 128.791 331.303" stroke="white" stroke-miterlimit="10"/>
<path d="M71.3123 314.705C74.8381 331.772 93.647 342.212 113.309 338.13" stroke="white" stroke-miterlimit="10"/>
<path d="M74.1697 295.505C73.4186 296.956 72.7816 298.463 72.2646 300.013" stroke="white" stroke-miterlimit="10"/>
<path d="M142.525 299.914C138.985 282.846 120.19 272.407 100.528 276.489C91.5957 278.25 83.5453 283.043 77.7383 290.057" stroke="white" stroke-miterlimit="10"/>
<path d="M121.654 293.684C115.968 287.511 108.276 291.792 105.077 298.05C99.7745 293.428 91.0169 292.361 88.0171 300.17C83.0128 313.368 100.102 321.418 108.006 324.348L110.252 325.173C110.75 324.746 111.333 324.206 112.044 323.566C118.328 317.919 131.194 304.081 121.654 293.684Z" stroke="white" stroke-miterlimit="10"/>
<path d="M168.727 42.4262L157.14 37.619L165.002 48.9971C159.613 53.93 156.156 60.6204 155.249 67.8706" stroke="white" stroke-miterlimit="10"/>
<path d="M183.669 39.2261C179.541 40.1159 175.579 41.6468 171.925 43.7632" stroke="white" stroke-miterlimit="10"/>
<path d="M227.57 65.8794C225.694 48.5989 207.979 36.3532 188.019 38.515" stroke="white" stroke-miterlimit="10"/>
<path d="M222.865 84.7103C223.755 83.353 224.535 81.9261 225.196 80.4435" stroke="white" stroke-miterlimit="10"/>
<path d="M155.263 73.7304C157.14 91.0109 174.84 103.257 194.815 101.095C203.873 100.18 212.336 96.16 218.77 89.7166" stroke="white" stroke-miterlimit="10"/>
<path d="M191.26 86.4739C201.303 86.4739 209.444 78.3296 209.444 68.2831C209.444 58.2366 201.303 50.0923 191.26 50.0923C181.218 50.0923 173.077 58.2366 173.077 68.2831C173.077 78.3296 181.218 86.4739 191.26 86.4739Z" stroke="white" stroke-miterlimit="10"/>
<path d="M184.351 70.5729L189.782 75.7073L198.866 60.0766" stroke="white" stroke-miterlimit="10"/>
<path opacity="0.2" d="M213.979 241.501C213.979 241.501 211.249 274.526 215.188 282.533C219.126 290.541 221.116 345.255 219.339 352.139C219.339 352.139 232.049 355.354 237.082 350.802C242.114 346.251 249.877 350.632 262.558 346.166C275.24 341.7 266.113 243.407 266.113 243.407L266.496 207.637L245.498 188.934L213.979 241.501Z" fill="black" fill-opacity="0.7"/>
<path d="M230.911 257.345C230.831 257.579 230.7 257.793 230.528 257.971C227.812 260.545 216.24 263.39 206.359 265.452C198.113 267.159 191.005 268.297 191.005 268.297C191.005 268.297 185.545 222.955 185.545 218.19C185.545 213.425 176.759 136.239 176.759 136.239L197.843 135.329L225.85 134.12C225.85 134.12 226.021 136.182 226.305 139.809C228.04 162.807 234.423 248.328 230.911 257.345Z" fill="#5AE4A7"/>
<mask id="mask0_70_890" style="mask-type:luminance" maskUnits="userSpaceOnUse" x="176" y="134" width="56" height="135">
<path d="M230.911 257.345C230.831 257.579 230.7 257.793 230.528 257.971C227.812 260.545 216.24 263.39 206.359 265.452C198.113 267.159 191.005 268.297 191.005 268.297C191.005 268.297 185.545 222.955 185.545 218.19C185.545 213.425 176.759 136.239 176.759 136.239L197.843 135.329L225.85 134.12C225.85 134.12 226.021 136.182 226.305 139.809C228.04 162.807 234.423 248.328 230.911 257.345Z" fill="white"/>
</mask>
<g mask="url(#mask0_70_890)">
<path opacity="0.2" d="M230.911 257.345L206.302 262.408L197.004 264.314C195.87 262.976 194.298 262.084 192.568 261.797L191.829 254.856L190.621 243.478L180.1 143.677C181.696 142.349 182.887 140.6 183.541 138.628L197.758 138.116L222.31 137.22L226.362 139.837C228.04 162.807 234.423 248.328 230.911 257.345Z" fill="black" fill-opacity="0.7"/>
<path d="M230.911 257.345L206.302 262.408L197.004 264.314C195.87 262.976 194.298 262.084 192.568 261.797L191.829 254.856L190.621 243.478L180.1 143.677C181.696 142.349 182.887 140.6 183.541 138.628L197.758 138.116L222.31 137.22L226.362 139.837C228.04 162.807 234.423 248.328 230.911 257.345Z" stroke="#1A2E35" stroke-linecap="round" stroke-linejoin="round"/>
<path d="M193.876 227.975L202.08 227.961L202.094 230.535L199.805 231.346L194.545 231.929L193.876 227.975Z" fill="#5AE4A7" stroke="#1A2E35" stroke-linecap="round" stroke-linejoin="round"/>
<path d="M194.374 233.266L200.416 233.067L201.966 233.807L201.88 237.206L194.829 237.291L194.374 233.266Z" fill="#5AE4A7" stroke="#1A2E35" stroke-linecap="round" stroke-linejoin="round"/>
<path d="M195.341 238.713L202.236 238.23L202.151 240.804L198.824 241.985L195.298 241.786L195.341 238.713Z" fill="#5AE4A7" stroke="#1A2E35" stroke-linecap="round" stroke-linejoin="round"/>
<path d="M195.753 243.08L201.326 243.35L201.824 244.786L201.013 246.351L196.037 246.678L195.184 244.246L195.753 243.08Z" fill="#5AE4A7" stroke="#1A2E35" stroke-linecap="round" stroke-linejoin="round"/>
<path d="M202.165 248.058C202.435 248.797 202.705 249.551 202.961 250.291C203.08 250.524 203.141 250.783 203.141 251.044C203.141 251.306 203.08 251.565 202.961 251.798C202.818 251.961 202.636 252.084 202.432 252.157C202.228 252.229 202.008 252.247 201.795 252.211C201.354 252.211 200.942 252.026 200.516 252.012C199.222 252.012 198.028 253.021 196.748 252.794C196.251 251.372 194.999 249.395 196.748 248.769C197.004 248.669 202.35 248.57 202.165 248.058Z" fill="#5AE4A7" stroke="#1A2E35" stroke-linecap="round" stroke-linejoin="round"/>
<path d="M202.151 254.344C202.265 254.875 202.35 255.411 202.406 255.951C202.488 256.293 202.479 256.65 202.379 256.987C202.279 257.324 202.092 257.629 201.838 257.871C201.513 258.058 201.146 258.156 200.772 258.156L196.35 258.554C196.298 257.716 196.298 256.875 196.35 256.037C196.606 255.041 196.35 255.126 197.359 254.728C198.824 254.088 200.615 255.098 202.151 254.344Z" fill="#5AE4A7" stroke="#1A2E35" stroke-linecap="round" stroke-linejoin="round"/>
<path d="M186.043 145.939C186.043 145.939 187.72 162.096 187.791 165.296" stroke="#1A2E35" stroke-linecap="round" stroke-linejoin="round"/>
<path d="M189.64 146.095L190.436 154.999" stroke="#1A2E35" stroke-linecap="round" stroke-linejoin="round"/>
<path d="M202.122 142.739L203.131 153.164L204.553 153.292L204.098 142.824L202.122 142.739Z" fill="#5AE4A7" stroke="#1A2E35" stroke-linecap="round" stroke-linejoin="round"/>
<path opacity="0.2" d="M230.911 257.345C230.831 257.579 230.7 257.793 230.528 257.971C227.812 260.545 216.24 263.39 206.359 265.452V258.568L191.886 254.856L189.697 254.301L190.678 243.506L194.431 202.261L197.701 138.074L197.843 135.343L225.85 134.134C225.85 134.134 226.021 136.196 226.305 139.823C228.04 162.807 234.423 248.328 230.911 257.345Z" fill="black" fill-opacity="0.7"/>
</g>
<path d="M230.911 257.345C230.831 257.579 230.7 257.793 230.528 257.971C227.812 260.545 216.24 263.39 206.359 265.452C198.113 267.159 191.005 268.297 191.005 268.297C191.005 268.297 185.545 222.955 185.545 218.19C185.545 213.425 176.759 136.239 176.759 136.239L197.843 135.329L225.85 134.12C225.85 134.12 226.021 136.182 226.305 139.809C228.04 162.807 234.423 248.328 230.911 257.345Z" stroke="#1A2E35" stroke-linecap="round" stroke-linejoin="round"/>
<path d="M245.74 360.289C245.924 358.682 243.38 335.47 243.337 332.953C243.056 327.615 242.352 322.307 241.233 317.08C238.503 310.097 236.385 294.025 229.106 283.714C221.827 273.403 221.827 261.285 220.576 251.002C219.325 240.719 219.666 241.601 219.964 232.512C220.197 225.639 219.893 218.758 219.054 211.932C218.457 205.873 217.249 195.192 219.054 190.214C220.86 185.236 225.623 184.098 230.826 189.062C236.029 194.026 238.148 214.478 238.148 216.995C238.148 219.513 238.148 227.392 239.982 230.436C239.982 230.436 250.275 225.159 250.275 223.708C250.275 222.258 249.976 209.372 251.483 208.689L245.498 188.92L257.014 184.838C259.177 186.78 261.044 189.027 262.558 191.508C263.858 193.558 264.945 195.736 265.8 198.008C270.648 210.88 278.439 219.854 280.017 223.609C281.595 227.364 280.017 256.705 280.017 262.167C280.017 267.628 276.491 292.845 276.576 297.069C276.647 300.113 278.709 311.534 280.841 320.28C281.637 323.651 286.258 348.086 286.94 350.02L245.74 360.289Z" fill="white"/>
<path opacity="0.4" d="M254.81 207.296C254.739 208.931 256.715 222.073 256.715 222.073C258.137 225.344 250.63 236.509 250.63 236.509C249.024 237.419 248.313 243.023 248.313 243.023C243.28 241.899 231.736 230.222 231.736 230.222C230.412 235.665 229.461 241.191 228.893 246.763C227.371 258.526 237.067 286.516 241.204 305.844C245.342 325.173 243.394 332.868 243.394 332.868C243.09 327.556 242.367 322.278 241.233 317.08C238.503 310.097 236.385 294.025 229.106 283.714C221.827 273.403 221.827 261.285 220.576 251.002C219.325 240.719 219.666 241.601 219.964 232.512C220.197 225.639 219.893 218.758 219.054 211.932C218.457 205.873 217.249 195.192 219.054 190.214C220.86 185.236 225.623 184.098 230.826 189.062C236.029 194.026 238.148 214.478 238.148 216.995C238.148 219.513 238.148 227.392 239.982 230.436C239.982 230.436 250.275 225.159 250.275 223.708C250.275 222.258 249.976 209.372 251.483 208.689L245.498 188.92L257.014 184.838C259.177 186.78 261.044 189.027 262.558 191.508C258.819 199.032 254.867 206.257 254.81 207.296Z" fill="#5AE4A7"/>
<path opacity="0.4" d="M274.145 299.089C274.643 294.495 276.15 283.558 277.116 276.745C276.58 279.579 275.545 282.295 274.06 284.766C274.06 284.766 277.33 245.654 277.642 243.293C277.955 240.932 281.268 230.194 280.059 223.566C281.666 227.25 280.059 256.662 280.059 262.124C280.059 267.585 276.534 292.802 276.619 297.026C276.69 300.07 279.974 319.626 282.036 328.316C277.586 321.93 273.633 303.711 274.145 299.089Z" fill="#5AE4A7"/>
<path d="M286.912 349.992C284.481 343.008 276.718 301.236 276.619 297.026C276.519 292.816 280.045 267.585 280.045 262.124C280.045 256.662 281.652 227.25 280.045 223.552C278.439 219.854 270.648 210.88 265.828 197.951C263.986 192.927 260.963 188.42 257.014 184.809L245.498 188.934L251.554 208.547C250.047 209.23 250.346 222.101 250.346 223.552C250.346 225.003 240.039 230.294 240.039 230.294C238.219 227.25 238.219 219.371 238.219 216.853C238.219 214.336 236.101 193.898 230.897 188.934C225.694 183.97 220.945 185.108 219.126 190.072C217.306 195.036 218.528 205.717 219.126 211.79C219.964 218.616 220.268 225.497 220.035 232.37C219.737 241.501 219.438 240.591 220.647 250.86C221.855 261.128 221.855 273.303 229.177 283.572C236.499 293.841 238.532 309.969 241.233 317.08C241.233 317.08 246.379 354.301 245.725 360.36" stroke="#1A2E35" stroke-linecap="round" stroke-linejoin="round"/>
<path d="M240.039 230.322C240.039 230.322 241.858 238.856 245.953 243.122" stroke="#1A2E35" stroke-linecap="round" stroke-linejoin="round"/>
<path d="M241.148 234.162C244.696 235.281 248.328 236.113 252.009 236.651" stroke="#1A2E35" stroke-linecap="round" stroke-linejoin="round"/>
<path d="M250.346 223.552C250.346 223.552 255.805 221.035 259.288 222.556" stroke="#1A2E35" stroke-linecap="round" stroke-linejoin="round"/>
<path d="M251.554 208.547C251.554 208.547 255.82 208.149 256.715 206.03" stroke="#1A2E35" stroke-linecap="round" stroke-linejoin="round"/>
<path d="M230.528 285.79C230.528 285.79 238.674 295.903 241.105 301.051" stroke="#1A2E35" stroke-linecap="round" stroke-linejoin="round"/>
<path d="M277.927 241.501C276.505 249.537 274.742 271.525 274.145 275.465" stroke="#1A2E35" stroke-linecap="round" stroke-linejoin="round"/>
<path d="M280.543 226.34C280.77 233.622 278.993 237.419 278.993 237.419" stroke="#1A2E35" stroke-linecap="round" stroke-linejoin="round"/>
<path d="M217.875 124.477L274.06 139.297C274.06 139.297 254.298 199.231 250.261 206.684L243.564 258.924C243.564 258.924 207.681 257.345 191.189 252.353C191.189 252.353 201.61 197.923 202.179 190.669C202.748 183.416 217.875 124.477 217.875 124.477Z" fill="#5AE4A7"/>
<mask id="mask1_70_890" style="mask-type:luminance" maskUnits="userSpaceOnUse" x="191" y="124" width="84" height="135">
<path d="M217.875 124.477L274.06 139.297C274.06 139.297 254.298 199.231 250.261 206.684L243.564 258.924C243.564 258.924 207.681 257.345 191.189 252.353C191.189 252.353 201.61 197.923 202.179 190.669C202.748 183.416 217.875 124.477 217.875 124.477Z" fill="white"/>
</mask>
<g mask="url(#mask1_70_890)">
<path opacity="0.2" d="M205.79 187.455L218.173 134.504C218.173 134.504 223.504 131.858 225.552 129.441L265.8 140.89C265.921 143.254 266.776 145.521 268.245 147.375L247.943 205.916L243.01 249.068C243.01 249.068 236.456 249.594 235.83 254.458C235.83 254.458 214.605 255.596 200.359 251.841C199.358 248.805 197.921 245.93 196.094 243.307L205.79 187.455Z" fill="black" fill-opacity="0.7"/>
<path d="M205.79 187.455L218.173 134.504C218.173 134.504 223.504 131.858 225.552 129.441L265.8 140.89C265.921 143.254 266.776 145.521 268.245 147.375L247.943 205.916L243.01 249.068C243.01 249.068 236.456 249.594 235.83 254.458C235.83 254.458 214.605 255.596 200.359 251.841C199.358 248.805 197.921 245.93 196.094 243.307L205.79 187.455Z" stroke="#1A2E35" stroke-linecap="round" stroke-linejoin="round"/>
<path d="M216.097 190.2C216.097 190.2 219.751 176.39 232.617 178.822C245.484 181.254 238.219 198.293 238.219 198.293C238.219 198.293 238.304 212.003 227.855 210.112C218.799 208.547 213.979 203.569 216.097 190.2Z" fill="#5AE4A7" stroke="#1A2E35" stroke-linecap="round" stroke-linejoin="round"/>
<path d="M223.064 139.539C223.064 139.539 219.182 155.297 218.173 158.341" stroke="#1A2E35" stroke-linecap="round" stroke-linejoin="round"/>
<path d="M226.405 140.904L224.13 149.537" stroke="#1A2E35" stroke-linecap="round" stroke-linejoin="round"/>
<path d="M254.824 146.963L262.572 149.694L261.719 152.112H259.288L254.142 150.903L254.824 146.963Z" fill="#5AE4A7" stroke="#1A2E35" stroke-linecap="round" stroke-linejoin="round"/>
<path d="M253.53 152.112L259.288 153.932L260.511 155.155L259.288 158.341L252.621 156.065L253.53 152.112Z" fill="#5AE4A7" stroke="#1A2E35" stroke-linecap="round" stroke-linejoin="round"/>
<path d="M252.621 157.573L259.288 159.408L258.35 161.826H254.824L251.569 160.46L252.621 157.573Z" fill="#5AE4A7" stroke="#1A2E35" stroke-linecap="round" stroke-linejoin="round"/>
<path d="M251.569 161.826L256.715 163.945V165.452L255.436 166.676L250.63 165.31V162.736L251.569 161.826Z" fill="#5AE4A7" stroke="#1A2E35" stroke-linecap="round" stroke-linejoin="round"/>
<path d="M255.947 168.667V171.028C255.985 171.285 255.962 171.547 255.88 171.794C255.799 172.041 255.661 172.265 255.478 172.45C255.29 172.559 255.077 172.616 254.86 172.616C254.643 172.616 254.429 172.559 254.241 172.45C253.843 172.279 253.502 171.995 253.104 171.838C251.91 171.355 250.431 171.952 249.308 171.312C249.308 169.89 248.782 167.529 250.588 167.5C250.872 167.515 255.947 169.165 255.947 168.667Z" fill="#5AE4A7" stroke="#1A2E35" stroke-linecap="round" stroke-linejoin="round"/>
<path d="M253.829 174.583C253.77 175.12 253.675 175.652 253.545 176.176C253.36 176.859 253.033 177.599 252.365 177.798C251.999 177.87 251.62 177.84 251.27 177.712L247.005 176.617C247.214 175.803 247.48 175.005 247.801 174.228C248.37 173.374 248.171 173.403 249.223 173.332C250.772 173.232 252.123 174.854 253.829 174.583Z" fill="#5AE4A7" stroke="#1A2E35" stroke-linecap="round" stroke-linejoin="round"/>
<path d="M239.285 141.957L236.712 152.112L238.006 152.723L241.105 142.725L239.285 141.957Z" fill="#5AE4A7" stroke="#1A2E35" stroke-linecap="round" stroke-linejoin="round"/>
<path d="M206.942 210.169L214.889 212.217L214.249 214.706L211.832 214.919L206.6 214.151L206.942 210.169Z" fill="#5AE4A7" stroke="#1A2E35" stroke-linecap="round" stroke-linejoin="round"/>
<path d="M206.103 215.417L211.989 216.725L213.297 217.835L212.373 221.106L205.534 219.413L206.103 215.417Z" fill="#5AE4A7" stroke="#1A2E35" stroke-linecap="round" stroke-linejoin="round"/>
<path d="M205.662 220.935L212.458 222.187L211.733 224.661L208.207 224.974L204.852 223.893L205.662 220.935Z" fill="#5AE4A7" stroke="#1A2E35" stroke-linecap="round" stroke-linejoin="round"/>
<path d="M204.965 225.245L210.283 226.923L210.411 228.43L209.231 229.753L204.326 228.8L204.112 226.24L204.965 225.245Z" fill="#5AE4A7" stroke="#1A2E35" stroke-linecap="round" stroke-linejoin="round"/>
<path d="M209.956 231.744L210.169 234.105C210.22 234.353 210.216 234.609 210.157 234.854C210.098 235.1 209.985 235.33 209.828 235.528C209.646 235.645 209.438 235.716 209.222 235.733C209.006 235.751 208.789 235.714 208.591 235.627C208.178 235.485 207.809 235.229 207.397 235.101C206.16 234.731 204.738 235.456 203.572 234.916C203.43 233.494 202.733 231.19 204.525 231.005C204.766 230.976 209.956 232.228 209.956 231.744Z" fill="#5AE4A7" stroke="#1A2E35" stroke-linecap="round" stroke-linejoin="round"/>
<path d="M208.306 237.761C208.295 238.304 208.247 238.845 208.164 239.382C208.2 239.655 208.165 239.932 208.062 240.187C207.96 240.442 207.794 240.667 207.58 240.84C207.366 241.013 207.111 241.127 206.84 241.173C206.569 241.22 206.291 241.195 206.032 241.103L201.639 240.377C201.781 239.549 201.981 238.732 202.236 237.931C202.733 237.035 202.534 237.078 203.544 236.921C205.164 236.68 206.643 238.116 208.306 237.761Z" fill="#5AE4A7" stroke="#1A2E35" stroke-linecap="round" stroke-linejoin="round"/>
<path d="M240.039 245.199C240.039 245.199 241.858 224.832 241.858 222.812" stroke="#1A2E35" stroke-linecap="round" stroke-linejoin="round"/>
<path d="M236.399 244.289C236.399 244.289 237.167 233.707 237.309 231.872" stroke="#1A2E35" stroke-linecap="round" stroke-linejoin="round"/>
<path d="M222.196 236.651L219.737 248.684H222.196L223.988 236.651H222.196Z" fill="#5AE4A7" stroke="#1A2E35" stroke-linecap="round" stroke-linejoin="round"/>
<path opacity="0.2" d="M250.431 206.357C245.629 205.517 241.025 203.791 236.854 201.265C236.854 201.265 239.399 208.576 248.427 221.035L243.564 258.91C229.799 258.271 216.075 256.918 202.449 254.856C207.894 239.538 217.761 210.481 216.666 204.735C215.074 196.828 220.675 187.498 220.675 187.498C238.375 184.312 255.549 170.928 267.335 159.607C261.279 177.371 253.09 201.123 250.431 206.357Z" fill="black" fill-opacity="0.7"/>
</g>
<path d="M217.875 124.477L274.06 139.297C274.06 139.297 254.298 199.231 250.261 206.684L243.564 258.924C243.564 258.924 207.681 257.345 191.189 252.353C191.189 252.353 201.61 197.923 202.179 190.669C202.748 183.416 217.875 124.477 217.875 124.477Z" stroke="#1A2E35" stroke-linecap="round" stroke-linejoin="round"/>
<path d="M249.024 243.791L241.105 301.08C239.342 297.339 234.537 290.939 232.049 287.753C231.139 286.559 230.528 285.805 230.528 285.805L229.106 283.643C221.827 273.346 221.827 261.214 220.576 250.931C219.325 240.648 219.666 241.53 219.964 232.441C220.197 225.568 219.893 218.687 219.054 211.861C218.457 205.802 217.249 195.121 219.054 190.143C219.344 189.088 219.917 188.132 220.712 187.38C221.507 186.627 222.492 186.107 223.561 185.876C225.637 185.521 228.182 186.474 230.826 188.991C236.029 193.969 238.148 214.407 238.148 216.924C238.148 219.442 238.148 227.321 239.982 230.365C240.053 230.322 244.929 239.538 249.024 243.791Z" fill="white"/>
<path opacity="0.4" d="M228.523 279.561C230.236 282.027 231.435 284.813 232.049 287.753C231.139 286.559 230.528 285.805 230.528 285.805L229.106 283.643C221.827 273.346 221.827 261.214 220.576 250.931C219.325 240.648 219.666 241.53 219.964 232.441C220.197 225.568 219.893 218.687 219.054 211.861C218.457 205.802 217.249 195.121 219.054 190.143C219.344 189.088 219.917 188.132 220.712 187.38C221.507 186.627 222.492 186.107 223.561 185.876C227.414 186.957 231.196 190.854 232.546 197.539C234.821 208.746 224.485 199.686 222.083 209.187C219.68 218.688 223.177 221.234 224.613 223.637C226.049 226.041 224.215 231.289 222.083 238.372C219.95 245.455 223.974 273.744 228.523 279.561Z" fill="#5AE4A7"/>
<path d="M249.024 243.791C244.929 239.524 240.039 230.294 240.039 230.294C238.219 227.25 238.219 219.371 238.219 216.853C238.219 214.336 236.101 193.898 230.897 188.934C225.694 183.97 220.945 185.108 219.126 190.072C217.306 195.036 218.528 205.717 219.126 211.79C219.964 218.616 220.268 225.497 220.035 232.37C219.737 241.501 219.438 240.591 220.647 250.86C221.855 261.128 221.855 273.303 229.177 283.572L230.599 285.734C230.599 285.734 238.745 295.846 241.176 300.995" stroke="#1A2E35" stroke-linecap="round" stroke-linejoin="round"/>
<path d="M222.196 219.541C222.196 219.541 229.148 215.943 232.617 216.242" stroke="#1A2E35" stroke-linecap="round" stroke-linejoin="round"/>
<path opacity="0.2" d="M116.124 121.248C116.124 121.248 98.5091 101.891 97.2864 100.682C96.0638 99.4734 95.1681 78.8505 91.8413 69.748C88.5146 60.6455 86.8796 7.28201 86.8796 7.28201C86.8796 7.28201 83.695 3.34233 74.7384 5.47573C65.7817 7.60913 56.9814 3.65523 46.9727 9.41541C36.964 15.1756 56.3701 97.596 56.3701 97.596L76.0606 160.346L116.124 121.248Z" fill="black" fill-opacity="0.7"/>
<path d="M128.152 121.391C128.152 121.391 120.275 171.725 112.086 178.381C107.352 182.264 99.9594 183.985 93.3911 183.743C88.6427 183.572 84.3207 182.321 81.7759 180.216C75.7195 175.053 67.232 172.322 62.9953 168.994C58.7587 165.666 58.7303 153.832 56.029 143.82C53.3278 133.807 49.3044 133.508 48.4514 123.51C47.5984 113.511 43.902 82.8755 37.3053 74.3846C30.7087 65.8937 30.5665 59.2232 27.8369 50.5901C25.1072 41.9569 5.23193 10.6812 5.23193 10.6812L53.8681 0.725357C53.8681 0.725357 58.6592 20.5233 63.8199 36.6661C66.2368 44.3321 68.7532 51.1874 70.8431 54.7004C74.8743 61.4903 78.3681 68.5853 81.2925 75.9207C86.7945 81.6097 89.8227 94.4101 90.7183 105.632L103.727 112.9C113.608 115.63 128.152 121.391 128.152 121.391Z" fill="white"/>
<path opacity="0.7" d="M128.152 121.391C128.152 121.391 120.275 171.725 112.086 178.381C107.352 182.264 99.9594 183.985 93.3911 183.743C77.8378 179.903 73.658 171.241 71.5539 169.136C68.7105 166.292 65.0568 149.224 67.0898 139.368C69.1228 129.512 67.6585 125.785 65.9809 120.879C62.2845 110.155 73.5727 104.38 74.7385 100.313C75.9043 96.2449 75.4778 73.5312 70.4734 66.1781C67.7722 62.2384 60.8201 41.9996 63.763 36.6234C66.1799 44.2894 68.6963 51.1447 70.7862 54.6577C74.8174 61.4476 78.3113 68.5427 81.2357 75.878C86.7376 81.5671 89.7658 94.3675 90.6615 105.589L103.67 112.857C113.608 115.63 128.152 121.391 128.152 121.391Z" fill="url(#paint2_linear_70_890)"/>
<path d="M68.7672 117.849C68.7672 117.849 66.0234 121.078 63.5923 121.078" stroke="#1A2E35" stroke-linecap="round" stroke-linejoin="round"/>
<path d="M74.7383 128.758C74.7383 128.758 71.7812 135.03 67.0896 136.452" stroke="#1A2E35" stroke-linecap="round" stroke-linejoin="round"/>
<path d="M69.5066 165.509C69.5066 165.509 76.1743 162.665 77.2406 157.772" stroke="#1A2E35" stroke-linecap="round" stroke-linejoin="round"/>
<path d="M103.599 112.9C102.712 113.99 102.129 115.295 101.907 116.683" stroke="#1A2E35" stroke-linecap="round" stroke-linejoin="round"/>
<path d="M53.797 0.711132C53.797 0.711132 64.2038 43.7632 70.7293 54.7573C74.7606 61.5471 78.2544 68.6422 81.1788 75.9775C86.6807 81.6666 89.709 94.467 90.6046 105.703L103.613 112.971C113.565 115.701 128.152 121.504 128.152 121.504C128.152 121.504 120.275 171.838 112.086 178.495C103.897 185.151 87.9176 185.478 81.7759 180.329C75.6342 175.181 67.232 172.436 62.9953 169.108C58.7587 165.78 58.7303 153.946 56.029 143.934C53.3278 133.921 49.3044 133.508 48.4514 123.51C47.5984 113.511 43.902 82.8755 37.3053 74.3846C30.7087 65.8937 30.5665 59.2232 27.8369 50.5901C25.1072 41.9569 5.23193 10.6812 5.23193 10.6812" stroke="#1A2E35" stroke-linecap="round" stroke-linejoin="round"/>
<path d="M146.591 118.119L66.1514 241.999L85.131 244.104L142.823 246.507L148.723 136.339L146.591 118.119Z" fill="#1A2E35" stroke="#1A2E35" stroke-linecap="round" stroke-linejoin="round"/>
<path d="M146.591 118.119L139.155 244.388L66.1514 241.999L71.9092 145.242L73.7006 115.189L105.518 116.47L146.591 118.119Z" fill="#757575"/>
<mask id="mask2_70_890" style="mask-type:luminance" maskUnits="userSpaceOnUse" x="66" y="115" width="81" height="130">
<path d="M146.577 118.119L139.141 244.388L66.1372 241.999L71.9093 145.242L73.7006 115.189L105.504 116.47L146.577 118.119Z" fill="white"/>
</mask>
<g mask="url(#mask2_70_890)">
<path d="M128.222 229.853C133.13 229.853 137.108 225.873 137.108 220.964C137.108 216.054 133.13 212.074 128.222 212.074C123.315 212.074 119.337 216.054 119.337 220.964C119.337 225.873 123.315 229.853 128.222 229.853Z" fill="#BFBFBF" stroke="#1A2E35" stroke-miterlimit="10"/>
<path d="M125.72 215.061L131.748 215.858" stroke="#1A2E35" stroke-linecap="round" stroke-linejoin="round"/>
<path d="M124.1 216.526L133.156 217.408" stroke="#1A2E35" stroke-linecap="round" stroke-linejoin="round"/>
<path d="M123.104 225.444L132.161 226.325" stroke="#1A2E35" stroke-linecap="round" stroke-linejoin="round"/>
<path d="M127.057 218.546C127.305 218.608 127.568 218.571 127.791 218.444C128.013 218.317 128.178 218.109 128.251 217.863H128.933L128.237 224.249L127.242 224.149L127.768 219.271L126.986 219.186L127.057 218.546Z" fill="#1A2E35"/>
<path d="M130.412 218.802C130.81 218.802 130.981 219.115 130.938 219.527V219.612H130.54V219.499C130.54 219.314 130.54 219.243 130.369 219.228C130.199 219.214 130.156 219.228 130.128 219.456C130.099 219.683 130.128 219.797 130.426 220.067C130.548 220.175 130.644 220.309 130.706 220.46C130.767 220.61 130.793 220.773 130.782 220.935C130.772 221.015 130.747 221.093 130.708 221.164C130.669 221.234 130.616 221.297 130.552 221.347C130.489 221.397 130.416 221.434 130.339 221.456C130.261 221.478 130.179 221.485 130.099 221.476C130.019 221.466 129.941 221.441 129.871 221.402C129.8 221.362 129.738 221.31 129.688 221.246C129.638 221.183 129.6 221.11 129.578 221.032C129.556 220.955 129.55 220.873 129.559 220.793V220.636H129.957V220.821C129.957 221.006 129.957 221.092 130.142 221.106C130.327 221.12 130.369 221.106 130.384 220.864C130.398 220.622 130.384 220.523 130.099 220.267C129.973 220.161 129.874 220.028 129.81 219.877C129.746 219.726 129.718 219.563 129.73 219.399C129.726 219.312 129.742 219.226 129.777 219.146C129.811 219.066 129.863 218.995 129.928 218.937C129.994 218.88 130.071 218.838 130.155 218.815C130.238 218.791 130.326 218.787 130.412 218.802Z" fill="#1A2E35"/>
<path d="M131.123 218.944L132.388 219.072V219.456H131.947L131.72 221.703H131.308L131.549 219.456H131.109L131.123 218.944Z" fill="#1A2E35"/>
<path d="M109.031 123.601L95.9191 120.739C95.2363 120.59 94.5621 121.022 94.4131 121.705L92.7248 129.445C92.5758 130.128 93.0085 130.803 93.6912 130.952L106.803 133.814C107.486 133.963 108.16 133.531 108.309 132.848L109.998 125.108C110.147 124.425 109.714 123.75 109.031 123.601Z" fill="white" stroke="#1A2E35" stroke-linecap="round" stroke-linejoin="round"/>
<path d="M97.8125 129.341C97.8125 129.341 97.8125 129.256 97.8125 129.213C97.7726 129.185 97.7427 129.145 97.7272 129.099C97.7272 129.099 97.7272 129.099 97.7272 129C97.7272 128.857 97.6419 128.758 97.5424 128.644C97.4429 128.53 97.2722 128.217 97.3149 128.047C97.3575 127.876 97.4428 127.805 97.5708 127.833C97.6988 127.862 97.7556 127.947 97.7272 128.132V128.232L98.1111 128.317V127.919C98.1597 127.784 98.1559 127.637 98.1006 127.505C98.0453 127.373 97.9424 127.267 97.8125 127.208V127.009L97.4855 126.937V127.137C97.1869 127.137 97.0021 127.321 96.931 127.663C96.8973 127.816 96.9045 127.976 96.952 128.126C96.9994 128.275 97.0853 128.41 97.2012 128.516C97.4286 128.786 97.4713 128.943 97.4286 129.113C97.386 129.284 97.3007 129.355 97.1727 129.327C97.0448 129.298 96.9737 129.213 97.0163 129.028V128.829L96.6325 128.744V128.914C96.5751 129.048 96.5727 129.2 96.6259 129.335C96.6791 129.471 96.7836 129.58 96.9168 129.64V129.825L97.2438 129.896V129.711C97.3096 129.723 97.3771 129.723 97.4429 129.711C97.5009 129.688 97.554 129.654 97.5992 129.611C97.645 129.565 97.6834 129.513 97.713 129.455C97.713 129.455 97.8267 129.341 97.8125 129.341Z" fill="#1A2E35"/>
<path d="M99.945 129.256C99.9578 129.2 99.9578 129.141 99.945 129.085C99.9384 129.069 99.935 129.052 99.935 129.035C99.935 129.018 99.9384 129.001 99.945 128.985C99.945 128.985 99.945 128.559 99.7034 128.516C99.635 128.501 99.5639 128.503 99.4967 128.523C99.4295 128.543 99.3686 128.58 99.3195 128.63L99.4759 128.018L100.187 128.175V127.819L99.1347 127.577C99.1347 127.577 99.1347 127.705 99.1347 127.748C99.1347 127.791 99.1347 127.748 99.1347 127.876C99.1347 128.004 99.1347 127.876 99.1347 127.961C99.1347 128.047 99.1347 128.033 99.22 128.061C99.2278 128.079 99.2318 128.098 99.2318 128.118C99.2318 128.137 99.2278 128.157 99.22 128.175C99.1876 128.244 99.1323 128.299 99.0636 128.331C99.0636 128.331 99.0636 128.417 98.9641 128.445C98.8646 128.473 98.8077 128.715 98.765 128.9H99.1489C99.1489 128.715 99.2768 128.658 99.4048 128.687C99.5327 128.715 99.6038 128.815 99.5612 128.985L99.4332 129.554C99.4332 129.739 99.3053 129.782 99.1773 129.753C99.0494 129.725 98.9783 129.64 99.0209 129.469V129.227L98.6371 129.142V129.355C98.6032 129.435 98.5887 129.522 98.5945 129.609C98.6004 129.695 98.6265 129.779 98.6707 129.854C98.715 129.929 98.7762 129.992 98.8493 130.039C98.9225 130.086 99.0056 130.115 99.092 130.123C99.1748 130.149 99.2624 130.156 99.3482 130.143C99.4341 130.13 99.5158 130.098 99.5871 130.049C99.6585 129.999 99.7176 129.934 99.7599 129.858C99.8022 129.782 99.8267 129.698 99.8313 129.611C99.8824 129.497 99.9206 129.378 99.945 129.256Z" fill="#1A2E35"/>
<path d="M104.949 130.337V130.152C104.943 130.138 104.94 130.124 104.94 130.109C104.94 130.094 104.943 130.08 104.949 130.066C104.949 130.066 104.949 129.64 104.708 129.597C104.639 129.577 104.565 129.576 104.495 129.594C104.426 129.611 104.362 129.647 104.31 129.697L104.48 129.099L105.177 129.256L105.262 128.886L104.196 128.658C104.196 128.658 104.196 128.772 104.196 128.815C104.196 128.857 104.267 128.815 104.267 128.943C104.267 129.071 104.267 128.943 104.267 129.028C104.267 129.113 104.267 129.113 104.352 129.142C104.438 129.17 104.352 129.142 104.352 129.256C104.341 129.292 104.323 129.326 104.299 129.355C104.274 129.385 104.244 129.409 104.21 129.426C104.21 129.426 104.21 129.526 104.111 129.554C104.011 129.583 103.954 129.825 103.912 129.995L104.281 130.081V129.995C104.281 129.825 104.423 129.768 104.551 129.796C104.679 129.825 104.75 129.91 104.708 130.095L104.58 130.65C104.58 130.834 104.452 130.891 104.324 130.863C104.196 130.834 104.125 130.749 104.168 130.564V130.322L103.798 130.237V130.45C103.767 130.533 103.755 130.62 103.763 130.708C103.771 130.795 103.799 130.879 103.844 130.955C103.889 131.03 103.951 131.094 104.024 131.142C104.097 131.19 104.18 131.221 104.267 131.233C104.35 131.259 104.437 131.266 104.523 131.253C104.609 131.24 104.691 131.207 104.762 131.158C104.834 131.109 104.893 131.043 104.935 130.968C104.977 130.892 105.002 130.807 105.006 130.721C105.002 130.591 104.983 130.462 104.949 130.337Z" fill="#1A2E35"/>
<path d="M100.812 128.502C100.812 128.317 100.954 128.26 101.082 128.289C101.119 128.297 101.153 128.316 101.178 128.344C101.204 128.372 101.22 128.408 101.225 128.445H101.353C101.368 128.483 101.392 128.518 101.424 128.545L101.594 128.644C101.625 128.561 101.637 128.473 101.63 128.385C101.623 128.296 101.597 128.211 101.553 128.134C101.51 128.057 101.451 127.99 101.379 127.938C101.308 127.886 101.226 127.851 101.139 127.833C101.056 127.808 100.967 127.801 100.881 127.814C100.794 127.827 100.712 127.859 100.639 127.908C100.567 127.957 100.507 128.022 100.463 128.098C100.419 128.174 100.393 128.258 100.386 128.345C100.379 128.397 100.379 128.45 100.386 128.502C100.386 128.616 100.386 128.502 100.5 128.63C100.613 128.758 100.67 128.729 100.5 128.772C100.506 128.8 100.506 128.829 100.5 128.857V128.971C100.478 129.01 100.449 129.044 100.414 129.071C100.301 129.071 100.258 129.071 100.229 129.227C100.234 129.308 100.234 129.389 100.229 129.469C100.201 129.55 100.192 129.637 100.201 129.722C100.21 129.808 100.238 129.89 100.283 129.964C100.328 130.037 100.388 130.1 100.46 130.147C100.532 130.194 100.613 130.225 100.699 130.237C100.781 130.266 100.869 130.275 100.956 130.264C101.042 130.253 101.125 130.222 101.198 130.174C101.271 130.126 101.332 130.062 101.376 129.986C101.42 129.911 101.446 129.826 101.452 129.739L101.566 129.199C101.469 129.166 101.378 129.118 101.296 129.057L101.154 129.739C101.154 129.924 101.011 129.981 100.883 129.953C100.755 129.924 100.684 129.839 100.727 129.654C100.77 129.469 100.954 128.616 100.954 128.601C100.941 128.541 100.941 128.477 100.954 128.417L100.812 128.502Z" fill="#1A2E35"/>
<path d="M102.703 129.768C102.703 129.768 102.703 129.682 102.703 129.64H102.874L103.002 129.042C103.033 128.961 103.045 128.874 103.037 128.787C103.029 128.701 103.001 128.617 102.956 128.543C102.91 128.469 102.849 128.406 102.775 128.36C102.702 128.313 102.619 128.284 102.533 128.274C102.451 128.248 102.364 128.241 102.28 128.253C102.195 128.265 102.114 128.297 102.043 128.345C101.972 128.392 101.912 128.456 101.869 128.53C101.826 128.604 101.8 128.687 101.793 128.772V128.886C101.793 128.886 101.879 129.014 101.935 129.057C101.992 129.099 102.063 129.057 102.049 129.185C102.035 129.313 102.049 129.284 102.049 129.327C102.049 129.327 102.049 129.327 102.049 129.412C102.049 129.412 102.049 129.526 102.049 129.554C102.049 129.583 101.893 129.455 101.822 129.469C101.751 129.483 101.722 129.469 101.694 129.597C101.659 129.728 101.63 129.861 101.608 129.995C101.578 130.077 101.566 130.165 101.574 130.253C101.582 130.34 101.61 130.424 101.655 130.499C101.7 130.575 101.761 130.639 101.834 130.687C101.908 130.735 101.991 130.766 102.078 130.778C102.164 130.8 102.254 130.804 102.343 130.789C102.431 130.774 102.515 130.741 102.589 130.692C102.658 130.631 102.716 130.559 102.76 130.479C102.76 130.337 102.76 130.308 102.76 130.194V130.024C102.76 130.024 102.76 129.881 102.76 129.825L102.703 129.768ZM102.376 130.28C102.376 130.465 102.248 130.522 102.12 130.493C101.992 130.465 101.921 130.379 101.964 130.194L102.262 128.772C102.262 128.587 102.405 128.53 102.533 128.559C102.66 128.587 102.717 128.673 102.675 128.857L102.376 130.28Z" fill="#1A2E35"/>
<path d="M103.329 130.763L103.243 131.147L102.859 131.062L102.945 130.678L103.329 130.763Z" fill="#1A2E35"/>
<path d="M106.584 130.038C106.584 130.038 106.584 129.853 106.584 129.796C106.612 129.713 106.622 129.625 106.612 129.537C106.602 129.45 106.573 129.366 106.526 129.291C106.48 129.217 106.418 129.153 106.345 129.105C106.271 129.057 106.188 129.026 106.101 129.014C106.018 128.988 105.931 128.981 105.845 128.994C105.759 129.007 105.677 129.039 105.606 129.089C105.535 129.138 105.475 129.203 105.433 129.279C105.391 129.355 105.366 129.439 105.362 129.526C105.362 129.697 105.362 129.867 105.248 130.038C105.134 130.209 105.248 130.28 105.248 130.379C105.248 130.379 105.134 130.379 105.134 130.507C105.134 130.607 105.134 130.607 105.035 130.65C104.935 130.692 105.035 130.735 105.035 130.778C105.007 130.859 104.997 130.945 105.006 131.031C105.015 131.116 105.043 131.199 105.088 131.272C105.133 131.346 105.194 131.408 105.265 131.455C105.337 131.503 105.419 131.533 105.504 131.546C105.586 131.574 105.674 131.583 105.761 131.572C105.848 131.562 105.931 131.531 106.003 131.483C106.076 131.435 106.137 131.37 106.181 131.295C106.225 131.219 106.251 131.135 106.257 131.048L106.357 130.621C106.357 130.522 106.485 130.223 106.357 130.137C106.357 130.137 106.357 130.052 106.357 130.024C106.357 129.995 106.499 130.081 106.584 130.038ZM106.172 130.763C106.172 130.763 106.172 130.763 106.058 130.891C105.945 131.019 106.058 131.048 106.058 131.119C106.058 131.19 105.93 131.361 105.802 131.332C105.674 131.304 105.603 131.218 105.646 131.034C105.658 130.949 105.658 130.862 105.646 130.778C105.646 130.778 105.646 130.778 105.547 130.692C105.525 130.613 105.525 130.53 105.547 130.45C105.547 130.45 105.547 130.45 105.547 130.337C105.547 130.337 105.547 130.251 105.547 130.18C105.788 130.265 105.788 129.896 105.817 129.739C105.845 129.583 105.959 129.497 106.087 129.526C106.215 129.554 106.272 129.64 106.243 129.825C106.182 129.979 106.148 130.142 106.144 130.308C106.16 130.308 106.176 130.311 106.191 130.318C106.206 130.325 106.219 130.334 106.23 130.346C106.24 130.358 106.248 130.373 106.253 130.388C106.258 130.404 106.259 130.42 106.257 130.436C106.257 130.436 106.257 130.522 106.257 130.564C106.257 130.607 106.257 130.564 106.257 130.65C106.237 130.659 106.219 130.673 106.204 130.69C106.189 130.707 106.178 130.727 106.172 130.749C106.173 130.754 106.173 130.759 106.172 130.763Z" fill="#1A2E35"/>
<path d="M102.305 124.448L104.893 125.017" stroke="#1A2E35" stroke-linecap="round" stroke-linejoin="round"/>
<path d="M96.4193 123.168L101.054 124.178" stroke="#1A2E35" stroke-linecap="round" stroke-linejoin="round"/>
<path d="M96.0354 124.946L99.0778 125.615" stroke="#1A2E35" stroke-linecap="round" stroke-linejoin="round"/>
<path opacity="0.4" d="M69.5066 240.875C73.533 239.826 77.6722 239.272 81.8327 239.225C89.3108 239.041 94.0735 240.449 100.215 237.419C106.357 234.39 110.323 239.851 116.181 236.808C122.038 233.764 124.711 228.914 128.151 229.028C131.592 229.142 136.596 174.839 138.203 165.509C139.809 156.179 143.278 130.109 144.472 124.832L137.805 242.525L69.5066 240.875Z" fill="white"/>
<path opacity="0.7" d="M69.8194 217.707L88.5147 240.449L68.7673 239.225L69.8194 217.707Z" fill="url(#paint3_linear_70_890)" stroke="#231F20" stroke-miterlimit="10"/>
<path opacity="0.7" d="M119.408 172.72L119.11 181.368C119.013 183.802 117.96 186.1 116.179 187.762C114.398 189.424 112.033 190.316 109.598 190.243L100.713 189.93C98.2766 189.841 95.9749 188.789 94.3121 187.006C92.6493 185.222 91.7608 182.852 91.8415 180.415L92.2395 169.165C92.3322 166.731 93.3823 164.433 95.1612 162.771C96.94 161.108 99.3034 160.217 101.736 160.29L110.636 160.602H111.361C110.128 161.805 109.354 163.401 109.174 165.114C108.993 166.827 109.417 168.55 110.372 169.983C111.327 171.417 112.753 172.471 114.404 172.963C116.054 173.455 117.824 173.354 119.408 172.678V172.72Z" fill="url(#paint4_linear_70_890)" stroke="#231F20" stroke-miterlimit="10"/>
<path opacity="0.7" d="M121 165.282C120.982 166.131 120.712 166.955 120.223 167.649C119.734 168.343 119.049 168.875 118.256 169.178C117.463 169.48 116.598 169.539 115.771 169.347C114.944 169.155 114.194 168.72 113.615 168.099C113.037 167.478 112.657 166.698 112.524 165.859C112.391 165.021 112.511 164.162 112.869 163.392C113.227 162.622 113.806 161.976 114.533 161.538C115.26 161.099 116.101 160.887 116.949 160.93C118.057 160.985 119.101 161.47 119.857 162.283C120.614 163.096 121.024 164.171 121 165.282Z" fill="url(#paint5_linear_70_890)" stroke="#231F20" stroke-miterlimit="10"/>
<path opacity="0.4" d="M94.3721 181.481L107.423 170.317C107.423 170.317 105.774 164.315 107.423 162.423H101.154C99.6432 162.42 98.1887 162.994 97.087 164.027C95.9852 165.061 95.3193 166.476 95.2251 167.984L94.3721 181.481Z" fill="white"/>
<path opacity="0.4" d="M115.015 165.509L117.858 162.409C117.858 162.409 116.124 161.242 115.015 162.409C113.906 163.575 115.015 165.509 115.015 165.509Z" fill="white"/>
<path d="M113.664 232.271L134.734 233.181" stroke="#1A2E35" stroke-linecap="round" stroke-linejoin="round"/>
<path d="M106.371 234.39L134.734 235.897" stroke="#1A2E35" stroke-linecap="round" stroke-linejoin="round"/>
<path d="M127.298 240.449H134.734" stroke="#1A2E35" stroke-linecap="round" stroke-linejoin="round"/>
<path opacity="0.2" d="M101.48 163.063C90.6187 168.297 78.8471 149.978 74.7384 147.418C73.7193 146.775 72.7668 146.032 71.895 145.199L73.6864 115.147L105.49 116.427C105.291 120.907 105.362 125.856 106.357 128.715C108.504 134.931 112.342 157.786 101.48 163.063Z" fill="black" fill-opacity="0.7"/>
<path opacity="0.4" d="M89.3108 164.002C89.3108 164.002 97.9973 167.771 101.935 165.509C105.874 163.248 110.124 158.995 110.721 149.495C110.721 149.495 115.896 162.864 105.461 166.875C95.026 170.885 89.3108 164.002 89.3108 164.002Z" fill="white"/>
<path opacity="0.4" d="M85.9272 169.349C85.9272 169.349 103.499 174.086 111.077 165.509C111.077 165.509 110.068 170.26 101.936 171.625C96.4921 172.302 90.9668 171.516 85.9272 169.349Z" fill="white"/>
<path opacity="0.4" d="M114.262 138.728C112.925 136.353 114.56 157.772 114.56 157.772C114.56 157.772 116.991 143.564 114.262 138.728Z" fill="white"/>
</g>
<path d="M146.591 118.119L139.155 244.388L66.1514 241.999L71.9092 145.242L73.7006 115.189L105.518 116.47L146.591 118.119Z" stroke="#1A2E35" stroke-linecap="round" stroke-linejoin="round"/>
<path opacity="0.4" d="M142.894 245.057L140.236 244.388L146.591 128.758L147.714 136.395L142.894 245.057Z" fill="white"/>
<path d="M101.48 163.063C100.478 163.602 99.3606 163.893 98.2226 163.91C97.0846 163.927 95.959 163.671 94.9406 163.163C93.1781 162.233 91.7548 160.769 90.8745 158.981C87.8463 153.52 79.6574 141.089 78.1504 137.476C76.6434 133.864 73.3024 123.808 69.9614 119.57C67.6748 116.34 65.9359 112.756 64.8149 108.96L63.6064 47.1055C65.179 53.7002 67.4623 60.1048 70.4164 66.2066C74.7737 68.4662 78.4791 71.8058 81.1786 75.9064C81.9556 76.742 82.6551 77.6465 83.2685 78.6087C88.216 86.2748 90.6186 100.071 90.8745 110.766C91.1873 122.898 95.1396 128.36 101.48 138.97C107.821 149.58 105.617 160.716 101.48 163.063Z" fill="white"/>
<path opacity="0.7" d="M101.48 163.063C100.472 163.585 99.357 163.865 98.2222 163.882C97.0875 163.9 95.9641 163.653 94.9406 163.163C98.4238 162.21 102.987 160.432 101.935 157.772C100.286 153.576 95.4667 159.806 93.0498 157.772C90.6329 155.738 81.8326 144.09 87.363 138.956C92.8934 133.821 91.1731 125.231 87.363 122.813C83.5529 120.395 86.0266 114.621 87.2351 105.532C87.9601 100.042 85.3726 87.5975 83.2117 78.6087C88.1592 86.2748 90.5618 100.071 90.8177 110.766C91.1305 122.898 95.0828 128.36 101.424 138.97C107.764 149.58 105.618 160.858 101.48 163.063Z" fill="url(#paint6_linear_70_890)"/>
<path d="M63.5923 47.1055C65.1736 53.6995 67.4616 60.1036 70.4164 66.2066C74.7738 68.4662 78.4792 71.8058 81.1786 75.9064C87.5478 82.5769 90.5334 98.6485 90.8746 110.852C91.2158 123.055 95.1397 128.431 101.48 139.041C107.821 149.651 106.087 160.631 101.48 163.134C98.2816 164.884 93.9028 164.556 90.8746 159.052C87.8464 153.548 79.6574 141.16 78.1504 137.548C76.6434 133.935 73.3024 123.88 69.9615 119.641C67.6812 116.408 65.9429 112.824 64.8149 109.031" stroke="#1A2E35" stroke-linecap="round" stroke-linejoin="round"/>
<path d="M83.2686 136.452C83.2686 136.452 88.216 136.011 90.4765 134.134" stroke="#1A2E35" stroke-linecap="round" stroke-linejoin="round"/>
<path d="M62.9953 110.212C62.9953 110.212 62.0285 112.544 67.0897 114.791" stroke="#1A2E35" stroke-linecap="round" stroke-linejoin="round"/>
</g>
<defs>
<linearGradient id="paint0_linear_70_890" x1="11.8285" y1="181.936" x2="300.617" y2="181.936" gradientUnits="userSpaceOnUse">
<stop stop-color="#F8931F"/>
<stop offset="1" stop-color="#EB5A17"/>
</linearGradient>
<linearGradient id="paint1_linear_70_890" x1="11.8285" y1="181.936" x2="300.617" y2="181.936" gradientUnits="userSpaceOnUse">
<stop stop-color="#F8931F"/>
<stop offset="1" stop-color="#EB5A17"/>
</linearGradient>
<linearGradient id="paint2_linear_70_890" x1="62.9953" y1="110.212" x2="128.152" y2="110.212" gradientUnits="userSpaceOnUse">
<stop stop-color="#F8931F"/>
<stop offset="1" stop-color="#EB5A17"/>
</linearGradient>
<linearGradient id="paint3_linear_70_890" x1="68.7673" y1="229.085" x2="88.5004" y2="229.085" gradientUnits="userSpaceOnUse">
<stop stop-color="#F8931F"/>
<stop offset="1" stop-color="#EB5A17"/>
</linearGradient>
<linearGradient id="paint4_linear_70_890" x1="91.8415" y1="175.266" x2="119.408" y2="175.266" gradientUnits="userSpaceOnUse">
<stop stop-color="#F8931F"/>
<stop offset="1" stop-color="#EB5A17"/>
</linearGradient>
<linearGradient id="paint5_linear_70_890" x1="112.598" y1="165.125" x2="121" y2="165.125" gradientUnits="userSpaceOnUse">
<stop stop-color="#F8931F"/>
<stop offset="1" stop-color="#EB5A17"/>
</linearGradient>
<linearGradient id="paint6_linear_70_890" x1="83.2685" y1="121.248" x2="105.461" y2="121.248" gradientUnits="userSpaceOnUse">
<stop stop-color="#F8931F"/>
<stop offset="1" stop-color="#EB5A17"/>
</linearGradient>
<clipPath id="clip0_70_890">
<rect width="313" height="361" fill="white"/>
</clipPath>
</defs>
</svg>
