<svg width="298" height="280" viewBox="0 0 298 280" fill="none" xmlns="http://www.w3.org/2000/svg">
<g clip-path="url(#clip0_70_1054)">
<path d="M13.0575 61.7137C45.0683 -2.88904 94.3141 -5.06895 157.214 3.73604C202.178 10.0263 214.041 -6.04728 243.029 6.32304C296.603 29.1858 310.421 107.905 275.164 183.605C238.832 261.596 177.059 294.399 102.446 259.041C31.755 225.509 -18.2253 124.885 13.0575 61.7137Z" fill="url(#paint0_linear_70_1054)"/>
<path opacity="0.7" d="M13.0575 61.7137C45.0683 -2.88904 94.3141 -5.06895 157.214 3.73604C202.178 10.0263 214.041 -6.04728 243.029 6.32304C296.603 29.1858 310.421 107.905 275.164 183.605C238.832 261.596 177.059 294.399 102.446 259.041C31.755 225.509 -18.2253 124.885 13.0575 61.7137Z" fill="url(#paint1_linear_70_1054)"/>
<path opacity="0.1" d="M236.307 208.72L227.269 196.415C227.269 196.415 228.581 147.203 229.401 140.282C230.221 133.362 221.695 120.066 219.039 108.628C216.383 97.1898 212.658 90.2758 212.658 90.2758C211.864 61.543 209.208 64.9639 209.208 64.9639C196.675 62.4294 191.501 76.1261 189.946 88.6015V38.9297C189.947 36.9256 189.554 34.941 188.788 33.0892C188.022 31.2375 186.9 29.555 185.484 28.1378C184.069 26.7207 182.388 25.5967 180.539 24.8302C178.689 24.0636 176.707 23.6695 174.705 23.6704H100.754C98.7525 23.6695 96.7702 24.0636 94.9206 24.8302C93.0711 25.5967 91.3905 26.7207 89.9751 28.1378C88.5596 29.555 87.437 31.2375 86.6713 33.0892C85.9057 34.941 85.5121 36.9256 85.5129 38.9297V65.9422C78.9547 64.3729 70.7438 64.176 68.3566 69.8162C67.5173 71.786 67.247 73.952 67.5762 76.068C67.9055 78.184 68.8212 80.1651 70.2191 81.786C70.2191 81.786 55.3384 75.9357 52.42 86.0407C49.5016 96.1458 60.6572 105.463 60.6572 105.463C60.6572 105.463 57.201 107.328 55.3384 117.702C53.4759 128.076 56.4009 130.998 58.7946 138.45C61.1884 145.903 67.563 150.151 67.563 150.151C67.563 150.151 63.5756 157.072 67.563 167.708C70.7372 176.192 81.3353 187.879 85.5129 192.272V219.652C85.5199 223.695 87.1287 227.569 89.9863 230.425C92.8438 233.281 96.7166 234.885 100.754 234.885H122.724C145.278 252.915 181.571 266.238 181.571 266.238L185.408 270.039C209.956 262.403 231.565 245.404 249.43 220.512C241.199 213.211 236.307 208.72 236.307 208.72Z" fill="black"/>
<path d="M241.533 207.282L232.503 194.977C232.503 194.977 233.814 145.765 234.628 138.844C235.441 131.924 226.922 118.628 224.266 107.19C221.61 95.7518 217.891 88.8378 217.891 88.8378C217.091 60.1051 214.435 63.5259 214.435 63.5259C195.836 59.7636 193.448 91.7597 195.036 102.403C196.623 113.047 198.472 130.604 198.472 130.604C198.472 130.604 185.743 132.764 178.037 123.421C170.331 114.077 152.263 105.036 152.263 105.036C152.263 105.036 134.201 91.497 125.676 84.8326C117.15 78.1681 101.502 68.0762 94.8518 65.6796C88.2018 63.283 76.4888 61.4248 73.5966 68.3388C72.7542 70.3076 72.4815 72.4738 72.8097 74.5902C73.1378 76.7067 74.0536 78.6882 75.4526 80.3086C75.4526 80.3086 60.5785 74.4583 57.6535 84.5699C54.7285 94.6816 65.8906 103.986 65.8906 103.986C65.8906 103.986 62.4344 105.85 60.5785 116.225C58.7225 126.599 61.6409 129.521 64.0281 136.973C66.4153 144.425 72.8161 148.687 72.8161 148.687C72.8161 148.687 68.8353 155.607 72.8161 166.244C76.797 176.881 92.4909 192.58 92.4909 192.58C92.4909 192.58 100.453 207.209 121.741 227.971C143.029 248.733 186.838 264.819 186.838 264.819L190.668 268.615C215.215 260.978 236.831 243.979 254.696 219.087C246.432 211.773 241.533 207.282 241.533 207.282ZM129.014 125.542C126.423 127.137 102.512 104.393 102.512 104.393L82.3912 85.4432C82.3912 85.4432 97.3374 96.8155 102.912 101.806C108.486 106.796 131.578 123.953 129.014 125.542Z" fill="white"/>
<mask id="mask0_70_1054" style="mask-type:luminance" maskUnits="userSpaceOnUse" x="57" y="63" width="198" height="206">
<path d="M241.534 207.282L232.503 194.977C232.503 194.977 233.814 145.765 234.628 138.844C235.441 131.924 226.922 118.628 224.266 107.19C221.61 95.7518 217.891 88.8378 217.891 88.8378C217.091 60.1051 214.435 63.5259 214.435 63.5259C195.836 59.7636 193.449 91.7597 195.036 102.403C196.623 113.047 198.472 130.604 198.472 130.604C198.472 130.604 185.743 132.764 178.037 123.421C170.331 114.077 152.263 105.036 152.263 105.036C152.263 105.036 134.201 91.497 125.676 84.8326C117.15 78.1681 101.502 68.0762 94.8519 65.6796C88.2018 63.283 76.4888 61.4248 73.5966 68.3388C72.7542 70.3076 72.4816 72.4738 72.8097 74.5902C73.1379 76.7067 74.0537 78.6882 75.4526 80.3086C75.4526 80.3086 60.5785 74.4583 57.6536 84.5699C54.7286 94.6816 65.8907 103.986 65.8907 103.986C65.8907 103.986 62.4345 105.85 60.5785 116.225C58.7225 126.599 61.641 129.521 64.0282 136.973C66.4154 144.425 72.8162 148.687 72.8162 148.687C72.8162 148.687 68.8354 155.607 72.8162 166.244C76.7971 176.881 92.4909 192.58 92.4909 192.58C92.4909 192.58 100.453 207.209 121.741 227.971C143.029 248.733 186.838 264.819 186.838 264.819L190.668 268.615C215.215 260.978 236.831 243.979 254.696 219.087C246.433 211.773 241.534 207.282 241.534 207.282ZM129.014 125.542C126.423 127.137 102.512 104.393 102.512 104.393L82.3912 85.4432C82.3912 85.4432 97.3375 96.8155 102.912 101.806C108.486 106.796 131.578 123.953 129.014 125.542Z" fill="white"/>
</mask>
<g mask="url(#mask0_70_1054)">
<path opacity="0.2" d="M80.5549 119.186C80.461 119.016 80.3141 118.882 80.1367 118.804C79.9594 118.726 79.7614 118.708 79.573 118.754C79.3847 118.799 79.2165 118.905 79.0941 119.056C78.9718 119.206 78.9021 119.393 78.8957 119.586C78.8104 122.58 78.3382 127.104 76.4888 130.611C73.6163 136.047 88.8511 134.419 80.5549 119.186Z" fill="black"/>
<path opacity="0.2" d="M204.912 119.921C203.751 113.828 199.318 112.081 198.957 101.051C198.948 100.146 198.827 99.2462 198.597 98.3716V43.2633C198.597 38.3543 196.649 33.6463 193.182 30.1751C189.715 26.7039 185.012 24.7538 180.109 24.7538H112.671C110.244 24.7546 107.841 25.2341 105.599 26.1647C103.357 27.0954 101.32 28.459 99.6044 30.1778C97.8889 31.8966 96.5283 33.9368 95.6003 36.182C94.6724 38.4272 94.1952 40.8335 94.196 43.2633V77.1635H90.7726C90.7726 77.1635 90.7071 89.6914 84.7325 87.2423C84.7325 87.2423 89.2118 98.4373 87.7558 108.91C86.2999 119.383 78.4038 109.206 78.4038 109.206C78.4038 109.206 78.2202 113.565 84.5882 122.259C90.1955 129.915 89.4544 140.926 84.8637 141.09C87.2574 142.088 90.7267 144.846 89.6774 152.292C89.2511 154.163 87.9919 156.724 84.4308 158.201C79.5252 160.223 86.6213 162.508 89.5725 163.322V192.515L94.2026 193.125V217.466C94.2017 219.896 94.6791 222.303 95.6075 224.548C96.5359 226.794 97.8971 228.835 99.6133 230.553C101.329 232.272 103.367 233.636 105.61 234.566C107.852 235.496 110.256 235.975 112.684 235.975H180.109C185.012 235.975 189.715 234.025 193.182 230.554C196.649 227.083 198.597 222.375 198.597 217.466V134.8C198.601 133.586 198.851 132.385 199.331 131.27C199.811 130.155 200.512 129.149 201.391 128.313C203.391 126.395 205.575 123.408 204.912 119.921Z" fill="black"/>
<path opacity="0.2" d="M218.265 268.588C202.014 249.593 208.631 247.131 198.957 250.755C181.834 257.157 142.976 243.775 142.976 243.775C142.976 243.775 144.734 251.753 144.734 253.493C144.734 255.233 156.499 260.801 156.499 260.801L178.797 279.987L218.265 268.588Z" fill="black"/>
</g>
<path d="M205.758 239.219C206.493 237.726 207.214 236.146 207.923 234.478" stroke="#1A2E35" stroke-linecap="round" stroke-linejoin="round"/>
<path d="M189.992 260.801C189.992 260.801 197.206 255.305 204.276 242.101" stroke="#1A2E35" stroke-linecap="round" stroke-linejoin="round"/>
<path d="M76.4888 143.926C78.1939 141.852 80.7385 139.455 82.7847 140.538C82.7847 140.538 91.3497 141.536 89.5593 153.106L96.334 161.884C96.334 161.884 106.893 168.221 104.689 177.82" stroke="#1A2E35" stroke-linecap="round" stroke-linejoin="round"/>
<path d="M74.6132 146.494C74.6132 146.494 74.9083 146.008 75.4132 145.305" stroke="#1A2E35" stroke-linecap="round" stroke-linejoin="round"/>
<path d="M78.8497 111.005C80.509 117.288 82.1813 118.963 82.1813 118.963L90.9497 130.932C90.9497 130.932 96.334 130.932 109.883 145.299" stroke="#1A2E35" stroke-linecap="round" stroke-linejoin="round"/>
<path d="M72.9932 103.388C74.3576 103.727 75.5944 104.456 76.5536 105.485C77.5128 106.514 78.1532 107.8 78.3972 109.186" stroke="#1A2E35" stroke-linecap="round" stroke-linejoin="round"/>
<path d="M68.0352 103.217C68.961 103.051 69.9036 102.998 70.8422 103.06" stroke="#1A2E35" stroke-linecap="round" stroke-linejoin="round"/>
<path d="M214.212 68.4964C214.317 68.0368 214.422 67.5706 214.533 67.0913" stroke="#1A2E35" stroke-linecap="round" stroke-linejoin="round"/>
<path d="M215.694 87.2423C215.694 87.2423 211.162 84.2744 213.838 70.1707" stroke="#1A2E35" stroke-linecap="round" stroke-linejoin="round"/>
<path d="M202.637 125.968C188.208 145.772 176.246 192.692 201.135 220.683" stroke="#1A2E35" stroke-linecap="round" stroke-linejoin="round"/>
<path d="M220.009 104.852C226.981 114.196 231.755 128.555 233.946 133.447" stroke="#1A2E35" stroke-linecap="round" stroke-linejoin="round"/>
<path d="M254.663 219.074C246.433 211.773 241.547 207.255 241.547 207.255L232.503 194.977C232.503 194.977 233.814 145.765 234.628 138.844C235.441 131.924 226.922 118.628 224.266 107.19C221.61 95.7518 217.891 88.8378 217.891 88.8378C217.091 60.1051 214.435 63.5259 214.435 63.5259C195.836 59.7636 193.448 91.7597 195.036 102.403C196.623 113.047 198.472 130.604 198.472 130.604C198.472 130.604 185.743 132.764 178.037 123.421C170.331 114.077 152.263 105.036 152.263 105.036C152.263 105.036 134.201 91.497 125.676 84.8326C117.15 78.1681 101.502 68.0762 94.8518 65.6796C88.2018 63.283 76.4888 61.4248 73.5966 68.3388C72.7542 70.3076 72.4815 72.4738 72.8097 74.5902C73.1378 76.7067 74.0536 78.6882 75.4526 80.3086C75.4526 80.3086 60.5785 74.4583 57.6535 84.5699C54.7285 94.6816 65.8906 103.986 65.8906 103.986C65.8906 103.986 62.4344 105.85 60.5785 116.225C58.7225 126.599 61.6409 129.521 64.0281 136.973C66.4153 144.425 72.8161 148.687 72.8161 148.687C72.8161 148.687 68.8353 155.607 72.8161 166.244C76.797 176.881 92.4909 192.58 92.4909 192.58C92.4909 192.58 100.453 207.209 121.741 227.971C143.029 248.733 186.838 264.819 186.838 264.819L190.668 268.615" stroke="#1A2E35" stroke-linecap="round" stroke-linejoin="round"/>
<path d="M78.8497 81.9041C78.8497 81.9041 83.6832 84.6815 88.6871 91.3592" stroke="#1A2E35" stroke-linecap="round" stroke-linejoin="round"/>
<path d="M180.529 22.2062H103.981C96.2878 22.2062 90.0512 28.4501 90.0512 36.1523V219.501C90.0512 227.203 96.2878 233.447 103.981 233.447H180.529C188.222 233.447 194.458 227.203 194.458 219.501V36.1523C194.458 28.4501 188.222 22.2062 180.529 22.2062Z" fill="#1A2E35" stroke="#1A2E35" stroke-linecap="round" stroke-linejoin="round"/>
<path opacity="0.7" d="M177.833 28.956H169.55C168.978 28.956 168.429 29.1836 168.025 29.5887C167.62 29.9938 167.393 30.5433 167.393 31.1162C167.393 32.0475 167.211 32.9697 166.856 33.8304C166.501 34.6911 165.98 35.4733 165.323 36.1324C164.666 36.7915 163.885 37.3146 163.026 37.6718C162.167 38.0289 161.246 38.2132 160.316 38.2141H128.404C126.526 38.2123 124.725 37.4646 123.397 36.1352C122.069 34.8057 121.323 33.003 121.321 31.1228C121.321 30.5499 121.094 30.0004 120.689 29.5953C120.284 29.1902 119.736 28.9626 119.163 28.9626H106.657C104.041 28.9747 101.537 30.0244 99.6932 31.8816C97.8493 33.7388 96.8158 36.252 96.8193 38.8707V216.809C96.821 219.424 97.8568 221.932 99.7001 223.785C101.544 225.638 104.045 226.685 106.657 226.697H177.814C179.113 226.7 180.399 226.446 181.6 225.95C182.801 225.455 183.893 224.727 184.813 223.808C185.732 222.89 186.462 221.799 186.961 220.598C187.459 219.397 187.716 218.109 187.717 216.809V38.8707C187.719 37.5696 187.465 36.2808 186.97 35.078C186.474 33.8752 185.747 32.7821 184.829 31.8611C183.911 30.9402 182.82 30.2096 181.62 29.7111C180.42 29.2126 179.133 28.956 177.833 28.956Z" fill="url(#paint2_linear_70_1054)"/>
<path d="M93.6451 181.097V185.2" stroke="#808080" stroke-linecap="round" stroke-linejoin="round"/>
<path d="M93.6451 98.0499V175.148" stroke="#808080" stroke-linecap="round" stroke-linejoin="round"/>
<path d="M93.6451 44.9573V88.306" stroke="#808080" stroke-linecap="round" stroke-linejoin="round"/>
<path d="M93.6451 37.5903V41.3657" stroke="#808080" stroke-linecap="round" stroke-linejoin="round"/>
<path d="M190.707 71.8647V67.761" stroke="#808080" stroke-linecap="round" stroke-linejoin="round"/>
<path d="M190.707 154.911V77.8201" stroke="#808080" stroke-linecap="round" stroke-linejoin="round"/>
<path d="M190.707 208.01V164.655" stroke="#808080" stroke-linecap="round" stroke-linejoin="round"/>
<path d="M190.707 215.371V211.602" stroke="#808080" stroke-linecap="round" stroke-linejoin="round"/>
<g opacity="0.7">
<path d="M154.794 31.4839C154.794 31.8548 154.647 32.2106 154.385 32.4728C154.123 32.7351 153.768 32.8825 153.397 32.8825C153.027 32.8825 152.672 32.7351 152.41 32.4728C152.148 32.2106 152 31.8548 152 31.4839C152 31.113 152.148 30.7573 152.41 30.495C152.672 30.2327 153.027 30.0854 153.397 30.0854C153.768 30.0854 154.123 30.2327 154.385 30.495C154.647 30.7573 154.794 31.113 154.794 31.4839Z" fill="url(#paint3_linear_70_1054)"/>
<path d="M146.511 30.0854H137.585C137.215 30.0854 136.86 30.2327 136.598 30.495C136.336 30.7573 136.188 31.113 136.188 31.4839C136.188 31.8548 136.336 32.2106 136.598 32.4728C136.86 32.7351 137.215 32.8825 137.585 32.8825H146.511C146.882 32.8825 147.237 32.7351 147.499 32.4728C147.761 32.2106 147.908 31.8548 147.908 31.4839C147.908 31.113 147.761 30.7573 147.499 30.495C147.237 30.2327 146.882 30.0854 146.511 30.0854Z" fill="url(#paint4_linear_70_1054)"/>
</g>
<path d="M180.129 45.916H106.421C104.189 45.916 102.381 47.7268 102.381 49.9606V113.854C102.381 116.088 104.189 117.899 106.421 117.899H180.129C182.36 117.899 184.169 116.088 184.169 113.854V49.9606C184.169 47.7268 182.36 45.916 180.129 45.916Z" fill="#1A2E35" stroke="#1A2E35" stroke-linecap="round" stroke-linejoin="round"/>
<path d="M178.699 44.478H104.991C102.76 44.478 100.951 46.2889 100.951 48.5227V112.416C100.951 114.65 102.76 116.461 104.991 116.461H178.699C180.93 116.461 182.739 114.65 182.739 112.416V48.5227C182.739 46.2889 180.93 44.478 178.699 44.478Z" fill="white"/>
<mask id="mask1_70_1054" style="mask-type:luminance" maskUnits="userSpaceOnUse" x="100" y="44" width="83" height="73">
<path d="M178.699 44.478H104.991C102.76 44.478 100.951 46.2889 100.951 48.5227V112.416C100.951 114.65 102.76 116.461 104.991 116.461H178.699C180.93 116.461 182.739 114.65 182.739 112.416V48.5227C182.739 46.2889 180.93 44.478 178.699 44.478Z" fill="white"/>
</mask>
<g mask="url(#mask1_70_1054)">
<path opacity="0.7" d="M178.699 44.478H104.991C102.76 44.478 100.951 46.2889 100.951 48.5227V112.416C100.951 114.65 102.76 116.461 104.991 116.461H178.699C180.93 116.461 182.739 114.65 182.739 112.416V48.5227C182.739 46.2889 180.93 44.478 178.699 44.478Z" fill="white"/>
</g>
<path d="M117.685 65.7336C122.38 63.7674 124.594 58.3632 122.63 53.6629C120.666 48.9626 115.268 46.7462 110.573 48.7123C105.879 50.6785 103.665 56.0827 105.629 60.783C107.593 65.4833 112.99 67.6997 117.685 65.7336Z" fill="white"/>
<mask id="mask2_70_1054" style="mask-type:luminance" maskUnits="userSpaceOnUse" x="104" y="47" width="20" height="20">
<path d="M117.685 65.7336C122.38 63.7674 124.594 58.3632 122.63 53.6629C120.666 48.9626 115.268 46.7462 110.573 48.7123C105.879 50.6785 103.665 56.0827 105.629 60.783C107.593 65.4833 112.99 67.6997 117.685 65.7336Z" fill="white"/>
</mask>
<g mask="url(#mask2_70_1054)">
<path d="M118.022 59.5863H116.33V59.2252C117.563 58.2666 117.898 56.369 117.898 54.4649C117.898 51.7597 116.199 50.0919 114.107 50.0919C112.015 50.0919 110.31 51.7597 110.31 54.4649C110.31 56.369 110.644 58.2666 111.877 59.2252V59.6126H110.192C109.422 59.6125 108.679 59.8899 108.097 60.3939C107.515 60.898 107.134 61.5949 107.024 62.3572L106.368 66.7301H121.793L121.137 62.3572C121.035 61.5985 120.665 60.9015 120.093 60.3931C119.522 59.8846 118.787 59.5984 118.022 59.5863Z" fill="#858585"/>
</g>
<path d="M117.685 65.7336C122.38 63.7674 124.594 58.3632 122.63 53.6629C120.666 48.9626 115.268 46.7462 110.573 48.7123C105.879 50.6785 103.665 56.0827 105.629 60.783C107.593 65.4833 112.99 67.6997 117.685 65.7336Z" stroke="#1A2E35" stroke-width="0.75" stroke-linecap="round" stroke-linejoin="round"/>
<path d="M168.626 51.346H128.102C127.505 51.346 127.02 51.8311 127.02 52.4294V52.6264C127.02 53.2247 127.505 53.7098 128.102 53.7098H168.626C169.223 53.7098 169.708 53.2247 169.708 52.6264V52.4294C169.708 51.8311 169.223 51.346 168.626 51.346Z" fill="#1A2E35" stroke="#1A2E35" stroke-width="0.75" stroke-linecap="round" stroke-linejoin="round"/>
<path d="M159.195 58.3848H128.201C127.887 58.3848 127.587 58.2602 127.366 58.0386C127.144 57.817 127.02 57.5163 127.02 57.2029C127.019 57.0474 127.049 56.8934 127.108 56.7496C127.167 56.6058 127.254 56.4752 127.364 56.3652C127.474 56.2553 127.604 56.1683 127.748 56.1092C127.891 56.0501 128.045 56.0201 128.201 56.021H159.195C159.35 56.0201 159.505 56.0501 159.649 56.1091C159.793 56.1681 159.923 56.255 160.034 56.3648C160.144 56.4747 160.232 56.6053 160.291 56.7491C160.351 56.8929 160.382 57.0471 160.382 57.2029C160.38 57.5169 160.254 57.8175 160.032 58.039C159.809 58.2605 159.508 58.3848 159.195 58.3848Z" fill="#1A2E35" stroke="#1A2E35" stroke-width="0.75" stroke-linecap="round" stroke-linejoin="round"/>
<path d="M162.782 63.0597H128.201C128.045 63.0606 127.891 63.0306 127.748 62.9716C127.604 62.9125 127.474 62.8254 127.364 62.7155C127.254 62.6056 127.167 62.475 127.108 62.3312C127.049 62.1874 127.019 62.0333 127.02 61.8779C127.02 61.5644 127.144 61.2638 127.366 61.0422C127.587 60.8205 127.887 60.696 128.201 60.696H162.782C163.096 60.696 163.397 60.8203 163.619 61.0418C163.842 61.2632 163.967 61.5638 163.969 61.8779C163.969 62.0336 163.938 62.1878 163.879 62.3317C163.819 62.4755 163.731 62.6061 163.621 62.7159C163.511 62.8257 163.38 62.9127 163.236 62.9717C163.092 63.0307 162.938 63.0606 162.782 63.0597Z" fill="#1A2E35" stroke="#1A2E35" stroke-width="0.75" stroke-linecap="round" stroke-linejoin="round"/>
<path d="M180.129 121.838H106.421C104.189 121.838 102.381 123.649 102.381 125.883V143.887C102.381 146.121 104.189 147.932 106.421 147.932H180.129C182.36 147.932 184.169 146.121 184.169 143.887V125.883C184.169 123.649 182.36 121.838 180.129 121.838Z" fill="#1A2E35" stroke="#1A2E35" stroke-linecap="round" stroke-linejoin="round"/>
<path d="M178.699 120.407H104.991C102.76 120.407 100.951 122.218 100.951 124.452V142.456C100.951 144.689 102.76 146.5 104.991 146.5H178.699C180.93 146.5 182.739 144.689 182.739 142.456V124.452C182.739 122.218 180.93 120.407 178.699 120.407Z" fill="white"/>
<mask id="mask3_70_1054" style="mask-type:luminance" maskUnits="userSpaceOnUse" x="100" y="120" width="83" height="27">
<path d="M178.699 120.401H104.991C102.76 120.401 100.951 122.211 100.951 124.445V142.449C100.951 144.683 102.76 146.494 104.991 146.494H178.699C180.93 146.494 182.739 144.683 182.739 142.449V124.445C182.739 122.211 180.93 120.401 178.699 120.401Z" fill="white"/>
</mask>
<g mask="url(#mask3_70_1054)">
<path opacity="0.7" d="M178.699 120.407H104.991C102.76 120.407 100.951 122.218 100.951 124.452V142.456C100.951 144.69 102.76 146.501 104.991 146.501H178.699C180.93 146.501 182.739 144.69 182.739 142.456V124.452C182.739 122.218 180.93 120.407 178.699 120.407Z" fill="white"/>
</g>
<path d="M117.68 141.981C122.374 140.015 124.588 134.611 122.624 129.91C120.66 125.21 115.263 122.994 110.568 124.96C105.873 126.926 103.659 132.33 105.623 137.031C107.587 141.731 112.985 143.947 117.68 141.981Z" fill="white"/>
<mask id="mask4_70_1054" style="mask-type:luminance" maskUnits="userSpaceOnUse" x="104" y="124" width="20" height="19">
<path d="M117.673 141.981C122.368 140.015 124.582 134.611 122.618 129.911C120.654 125.21 115.256 122.994 110.561 124.96C105.866 126.926 103.653 132.33 105.617 137.031C107.58 141.731 112.978 143.947 117.673 141.981Z" fill="white"/>
</mask>
<g mask="url(#mask4_70_1054)">
<path d="M118.022 136.369H116.33V135.982C117.563 135.023 117.898 133.125 117.898 131.221C117.898 128.523 116.199 126.848 114.107 126.848C112.015 126.848 110.31 128.523 110.31 131.221C110.31 133.125 110.644 135.023 111.877 135.982V136.369H110.192C109.422 136.369 108.679 136.646 108.097 137.15C107.515 137.654 107.134 138.351 107.024 139.114L106.368 143.493H121.793L121.137 139.114C121.03 138.36 120.657 137.669 120.086 137.166C119.514 136.663 118.783 136.38 118.022 136.369Z" fill="#858585"/>
</g>
<path d="M117.68 141.981C122.374 140.015 124.588 134.611 122.624 129.91C120.66 125.21 115.263 122.994 110.568 124.96C105.873 126.926 103.659 132.33 105.623 137.031C107.587 141.731 112.985 143.947 117.68 141.981Z" stroke="#1A2E35" stroke-width="0.75" stroke-linecap="round" stroke-linejoin="round"/>
<path d="M168.527 129.954H128.201C127.887 129.954 127.587 129.83 127.366 129.608C127.144 129.386 127.02 129.086 127.02 128.772C127.019 128.617 127.049 128.463 127.108 128.319C127.167 128.175 127.254 128.044 127.364 127.935C127.474 127.825 127.604 127.738 127.748 127.678C127.891 127.619 128.045 127.589 128.201 127.59H168.527C168.84 127.59 169.141 127.715 169.362 127.936C169.583 128.158 169.708 128.459 169.708 128.772C169.706 129.085 169.581 129.385 169.36 129.606C169.139 129.827 168.84 129.952 168.527 129.954Z" fill="#1A2E35" stroke="#1A2E35" stroke-width="0.75" stroke-linecap="round" stroke-linejoin="round"/>
<path d="M154.178 134.629H128.201C128.045 134.63 127.891 134.6 127.748 134.541C127.604 134.482 127.474 134.395 127.364 134.285C127.254 134.175 127.167 134.044 127.108 133.9C127.049 133.757 127.019 133.603 127.02 133.447C127.02 133.134 127.144 132.833 127.366 132.611C127.587 132.39 127.887 132.265 128.201 132.265H154.178C154.49 132.267 154.79 132.392 155.011 132.613C155.232 132.835 155.356 133.134 155.358 133.447C155.358 133.761 155.234 134.061 155.012 134.283C154.791 134.505 154.491 134.629 154.178 134.629Z" fill="#1A2E35" stroke="#1A2E35" stroke-width="0.75" stroke-linecap="round" stroke-linejoin="round"/>
<path d="M164.218 139.33H128.201C128.045 139.331 127.891 139.301 127.748 139.242C127.604 139.183 127.474 139.096 127.364 138.986C127.254 138.876 127.167 138.745 127.108 138.602C127.049 138.458 127.019 138.304 127.02 138.148C127.02 137.835 127.144 137.534 127.366 137.313C127.587 137.091 127.887 136.967 128.201 136.967H164.218C164.531 136.967 164.832 137.091 165.053 137.313C165.275 137.534 165.399 137.835 165.399 138.148C165.4 138.304 165.37 138.458 165.311 138.602C165.252 138.745 165.165 138.876 165.055 138.986C164.945 139.096 164.815 139.183 164.671 139.242C164.528 139.301 164.374 139.331 164.218 139.33Z" fill="#1A2E35" stroke="#1A2E35" stroke-width="0.75" stroke-linecap="round" stroke-linejoin="round"/>
<path d="M180.129 152.449H106.421C104.189 152.449 102.381 154.26 102.381 156.494V214.879C102.381 217.112 104.189 218.923 106.421 218.923H180.129C182.36 218.923 184.169 217.112 184.169 214.879V156.494C184.169 154.26 182.36 152.449 180.129 152.449Z" fill="#1A2E35" stroke="#1A2E35" stroke-linecap="round" stroke-linejoin="round"/>
<path d="M178.699 151.011H104.991C102.76 151.011 100.951 152.822 100.951 155.056V213.441C100.951 215.674 102.76 217.485 104.991 217.485H178.699C180.93 217.485 182.739 215.674 182.739 213.441V155.056C182.739 152.822 180.93 151.011 178.699 151.011Z" fill="white"/>
<mask id="mask5_70_1054" style="mask-type:luminance" maskUnits="userSpaceOnUse" x="100" y="151" width="83" height="67">
<path d="M178.699 151.005H104.991C102.76 151.005 100.951 152.815 100.951 155.049V213.434C100.951 215.668 102.76 217.479 104.991 217.479H178.699C180.93 217.479 182.739 215.668 182.739 213.434V155.049C182.739 152.815 180.93 151.005 178.699 151.005Z" fill="white"/>
</mask>
<g mask="url(#mask5_70_1054)">
<path opacity="0.7" d="M178.699 151.012H104.991C102.76 151.012 100.951 152.822 100.951 155.056V213.441C100.951 215.675 102.76 217.486 104.991 217.486H178.699C180.93 217.486 182.739 215.675 182.739 213.441V155.056C182.739 152.822 180.93 151.012 178.699 151.012Z" fill="white"/>
</g>
<path d="M117.675 172.749C122.37 170.783 124.584 165.379 122.62 160.679C120.656 155.979 115.258 153.762 110.564 155.728C105.869 157.694 103.655 163.099 105.619 167.799C107.583 172.499 112.981 174.716 117.675 172.749Z" fill="white"/>
<mask id="mask6_70_1054" style="mask-type:luminance" maskUnits="userSpaceOnUse" x="104" y="155" width="20" height="19">
<path d="M117.675 172.749C122.37 170.783 124.584 165.379 122.62 160.679C120.656 155.979 115.258 153.762 110.564 155.728C105.869 157.694 103.655 163.099 105.619 167.799C107.583 172.499 112.981 174.716 117.675 172.749Z" fill="white"/>
</mask>
<g mask="url(#mask6_70_1054)">
<path d="M118.022 167.229H116.33V166.848C117.563 165.89 117.898 163.986 117.898 162.081C117.898 159.383 116.199 157.708 114.107 157.708C112.015 157.708 110.31 159.383 110.31 162.081C110.31 163.986 110.644 165.89 111.877 166.848V167.229H110.192C109.422 167.229 108.679 167.506 108.097 168.01C107.515 168.515 107.134 169.211 107.024 169.974L106.368 174.353H121.793L121.137 169.974C121.03 169.22 120.657 168.529 120.086 168.026C119.514 167.523 118.783 167.24 118.022 167.229Z" fill="#858585"/>
</g>
<path d="M117.675 172.749C122.37 170.783 124.584 165.379 122.62 160.679C120.656 155.979 115.258 153.762 110.564 155.728C105.869 157.694 103.655 163.099 105.619 167.799C107.583 172.499 112.981 174.716 117.675 172.749Z" stroke="#1A2E35" stroke-width="0.75" stroke-linecap="round" stroke-linejoin="round"/>
<path d="M162.782 160.722H128.201C127.887 160.722 127.587 160.598 127.366 160.376C127.144 160.154 127.02 159.854 127.02 159.54C127.019 159.385 127.049 159.231 127.108 159.087C127.167 158.943 127.254 158.813 127.364 158.703C127.474 158.593 127.604 158.506 127.748 158.447C127.891 158.388 128.045 158.358 128.201 158.359H162.782C162.938 158.358 163.092 158.388 163.236 158.447C163.38 158.506 163.511 158.593 163.621 158.702C163.731 158.812 163.819 158.943 163.879 159.087C163.938 159.23 163.969 159.385 163.969 159.54C163.967 159.854 163.842 160.155 163.619 160.377C163.397 160.598 163.096 160.722 162.782 160.722Z" fill="#1A2E35" stroke="#1A2E35" stroke-width="0.75" stroke-linecap="round" stroke-linejoin="round"/>
<path d="M154.178 165.397H128.201C128.045 165.398 127.891 165.368 127.748 165.309C127.604 165.25 127.474 165.163 127.364 165.053C127.254 164.943 127.167 164.812 127.108 164.669C127.049 164.525 127.019 164.371 127.02 164.215C127.02 163.902 127.144 163.601 127.366 163.38C127.587 163.158 127.887 163.033 128.201 163.033H154.178C154.49 163.035 154.79 163.16 155.011 163.382C155.232 163.603 155.356 163.902 155.358 164.215C155.358 164.529 155.234 164.829 155.012 165.051C154.791 165.273 154.491 165.397 154.178 165.397Z" fill="#1A2E35" stroke="#1A2E35" stroke-width="0.75" stroke-linecap="round" stroke-linejoin="round"/>
<path d="M149.154 170.072H128.201C128.045 170.073 127.891 170.043 127.748 169.984C127.604 169.925 127.474 169.838 127.364 169.728C127.254 169.618 127.167 169.487 127.108 169.344C127.049 169.2 127.019 169.046 127.02 168.89C127.02 168.577 127.144 168.276 127.366 168.055C127.587 167.833 127.887 167.708 128.201 167.708H149.154C149.467 167.71 149.766 167.835 149.987 168.057C150.208 168.278 150.333 168.577 150.335 168.89C150.335 169.204 150.21 169.504 149.989 169.726C149.767 169.948 149.467 170.072 149.154 170.072Z" fill="#1A2E35" stroke="#1A2E35" stroke-width="0.75" stroke-linecap="round" stroke-linejoin="round"/>
<path d="M9.48321 145.89L5.58105 147.708" stroke="white" stroke-miterlimit="10"/>
<path d="M62.0606 155.529L51.6658 133.204C51.3135 132.446 50.815 131.764 50.1989 131.199C49.5827 130.634 48.8612 130.197 48.0756 129.912C47.2901 129.627 46.456 129.5 45.6214 129.539C44.7868 129.578 43.9681 129.781 43.2123 130.138L10.867 145.24" stroke="white" stroke-miterlimit="10"/>
<path d="M51.8101 168.989L59.6144 165.345C60.3719 164.996 61.0533 164.501 61.6194 163.889C62.1855 163.276 62.6253 162.557 62.9135 161.774C63.2017 160.991 63.3326 160.158 63.2988 159.324C63.265 158.49 63.0671 157.671 62.7165 156.914" stroke="white" stroke-miterlimit="10"/>
<path d="M42.9631 186.763C43.388 187.008 43.8657 187.147 44.3557 187.167C44.8456 187.187 45.3332 187.089 45.777 186.88C46.2207 186.671 46.6075 186.358 46.9043 185.967C47.2011 185.576 47.3992 185.12 47.4817 184.636L50.105 169.777" stroke="white" stroke-miterlimit="10"/>
<path d="M3.98742 148.45C3.23252 148.803 2.55436 149.3 1.99177 149.915C1.42918 150.53 0.993182 151.25 0.70872 152.033C0.424258 152.817 0.296912 153.649 0.333975 154.482C0.371037 155.315 0.571779 156.132 0.924713 156.888L11.9622 180.591C12.3139 181.347 12.8111 182.026 13.4251 182.589C14.0392 183.152 14.7582 183.589 15.5409 183.873C16.3236 184.158 17.1547 184.286 17.9867 184.249C18.8187 184.212 19.6352 184.011 20.3896 183.657L29.9253 179.212L40.6808 185.443" stroke="white" stroke-miterlimit="10"/>
<path d="M16.1529 154.885L14.2511 155.778C13.9003 155.94 13.585 156.169 13.3236 156.454C13.0621 156.738 12.8597 157.072 12.7279 157.435C12.5962 157.799 12.5377 158.185 12.556 158.571C12.5743 158.957 12.669 159.336 12.8345 159.685C13.1619 160.386 13.754 160.929 14.4807 161.194C15.2074 161.458 16.0094 161.423 16.7104 161.097L39.5855 150.414" stroke="white" stroke-miterlimit="10"/>
<path d="M40.7857 149.836L44.7207 148.01C45.4212 147.683 45.9633 147.09 46.2276 146.362C46.492 145.635 46.4571 144.832 46.1307 144.13C45.8033 143.429 45.2112 142.886 44.4845 142.621C43.7578 142.357 42.9558 142.391 42.2548 142.718L17.3334 154.36" stroke="white" stroke-miterlimit="10"/>
<path d="M38.2411 164.071L39.8413 163.322" stroke="white" stroke-miterlimit="10"/>
<path d="M19.2418 166.5C18.8944 166.662 18.5822 166.891 18.3231 167.173C18.0641 167.456 17.8633 167.787 17.7323 168.148C17.6013 168.508 17.5427 168.891 17.5598 169.274C17.5769 169.657 17.6693 170.033 17.8318 170.381C18.1592 171.082 18.7513 171.625 19.4781 171.89C20.2048 172.154 21.0067 172.119 21.7078 171.793L37.0213 164.642" stroke="white" stroke-miterlimit="10"/>
<path d="M40.9431 162.423C41.2598 162.001 41.4559 161.5 41.5102 160.975C41.5645 160.45 41.475 159.92 41.2513 159.442C41.0899 159.094 40.8615 158.781 40.5791 158.522C40.2968 158.263 39.9661 158.062 39.606 157.931C39.246 157.799 38.8636 157.741 38.4808 157.758C38.098 157.775 37.7224 157.867 37.3754 158.03L20.6584 165.837" stroke="white" stroke-miterlimit="10"/>
<path d="M271.76 72.088C271.918 68.5752 269.911 66.0079 266.993 65.3907C263.654 64.675 260.382 66.7695 259.47 71.0768C258.814 74.1103 258.71 77.2554 260.349 79.1989L260.218 79.8162L258.021 79.3434" stroke="white" stroke-miterlimit="10"/>
<path d="M256.631 79.0479C255.407 78.785 254.13 78.972 253.032 79.5749C251.935 80.1778 251.092 81.1562 250.656 82.3309L248.164 89.0939L274.548 94.7275L275.02 87.5377C275.096 86.2868 274.722 85.05 273.967 84.0506C273.212 83.0512 272.124 82.3551 270.901 82.088L267.334 81.3263L267.465 80.7091C269.754 79.5995 270.928 76.6842 271.57 73.6507" stroke="white" stroke-miterlimit="10"/>
<path d="M286.038 103.381C287.384 103.12 288.624 102.468 289.602 101.506C290.581 100.543 291.255 99.3142 291.54 97.9711L297.502 69.8358C297.886 68.0239 297.537 66.1331 296.53 64.5793C295.522 63.0254 293.94 61.9356 292.13 61.5496" stroke="white" stroke-miterlimit="10"/>
<path d="M261.326 110.886L271.957 100.952L284.044 103.519" stroke="white" stroke-miterlimit="10"/>
<path d="M233.342 75.6927L231.329 85.1609C230.946 86.9718 231.296 88.8609 232.303 90.4133C233.311 91.9657 234.892 93.0545 236.7 93.4406L248.013 95.8503L254.479 111.129C254.69 111.625 255.017 112.062 255.432 112.404C255.848 112.747 256.339 112.984 256.865 113.096C257.391 113.208 257.937 113.192 258.455 113.048C258.974 112.905 259.45 112.638 259.844 112.272" stroke="white" stroke-miterlimit="10"/>
<path d="M234.149 71.8976L233.749 73.7689" stroke="white" stroke-miterlimit="10"/>
<path d="M290.065 61.1096L245.573 51.6415C243.765 51.258 241.878 51.609 240.327 52.6173C238.777 53.6255 237.689 55.2087 237.303 57.019L234.582 69.8358" stroke="white" stroke-miterlimit="10"/>
<path d="M50.61 41.7925L49.4295 43.4078L39.7626 36.4018M47.9014 23.2699C48.4068 22.4859 49.0818 21.8257 49.8764 21.3381C50.6711 20.8505 51.565 20.548 52.4922 20.4531C56.1123 19.8818 58.8799 21.891 59.4505 25.4826C59.785 27.5837 59.2078 30.0788 57.365 32.5739L51.4298 40.7091M38.5887 35.5483C36.0638 33.7492 34.7456 31.5496 34.4111 29.4485C33.8471 25.8634 35.8539 23.0926 39.4806 22.5213C42.8581 21.9829 44.255 23.3684 46.5898 25.3185C46.8259 24.9508 47.0423 24.5962 47.2456 24.2613" stroke="white" stroke-miterlimit="10"/>
<path d="M74.2065 45.7584C75.2658 45.1 76.1073 44.1431 76.6254 43.0077C77.1434 41.8722 77.3149 40.6089 77.1184 39.3762L73.0326 13.5456C72.7635 11.8875 71.8491 10.4037 70.4896 9.41918C69.1301 8.43465 67.4363 8.02963 65.7792 8.29283" stroke="white" stroke-miterlimit="10"/>
<path d="M55.6795 60.1904L61.4704 48.2928L72.5604 46.5332" stroke="white" stroke-miterlimit="10"/>
<path d="M20.4749 39.455L21.8521 48.1418C22.1211 49.7999 23.0355 51.2837 24.395 52.2683C25.7546 53.2528 27.4483 53.6578 29.1055 53.3946L39.4872 51.7466L49.9476 62.6001C50.2854 62.9484 50.7014 63.2108 51.161 63.3654C51.6206 63.5201 52.1104 63.5626 52.5897 63.4894C53.069 63.4161 53.5239 63.2293 53.9165 62.9444C54.309 62.6595 54.6279 62.2849 54.8466 61.8516" stroke="white" stroke-miterlimit="10"/>
<path d="M19.924 35.9685L20.1928 37.6822" stroke="white" stroke-miterlimit="10"/>
<path d="M63.8707 8.56862L23.0325 15.0492C21.3764 15.3186 19.8943 16.2341 18.911 17.5952C17.9276 18.9563 17.523 20.6521 17.7859 22.3112L19.6485 34.0709" stroke="white" stroke-miterlimit="10"/>
</g>
<defs>
<linearGradient id="paint0_linear_70_1054" x1="3.54147" y1="136.592" x2="294.616" y2="136.592" gradientUnits="userSpaceOnUse">
<stop stop-color="#F8931F"/>
<stop offset="1" stop-color="#EB5A17"/>
</linearGradient>
<linearGradient id="paint1_linear_70_1054" x1="3.54147" y1="136.592" x2="294.616" y2="136.592" gradientUnits="userSpaceOnUse">
<stop stop-color="#F8931F"/>
<stop offset="1" stop-color="#EB5A17"/>
</linearGradient>
<linearGradient id="paint2_linear_70_1054" x1="96.7931" y1="127.827" x2="187.717" y2="127.827" gradientUnits="userSpaceOnUse">
<stop stop-color="#F8931F"/>
<stop offset="1" stop-color="#EB5A17"/>
</linearGradient>
<linearGradient id="paint3_linear_70_1054" x1="152" y1="31.4839" x2="154.794" y2="31.4839" gradientUnits="userSpaceOnUse">
<stop stop-color="#F8931F"/>
<stop offset="1" stop-color="#EB5A17"/>
</linearGradient>
<linearGradient id="paint4_linear_70_1054" x1="136.188" y1="31.4839" x2="147.908" y2="31.4839" gradientUnits="userSpaceOnUse">
<stop stop-color="#F8931F"/>
<stop offset="1" stop-color="#EB5A17"/>
</linearGradient>
<clipPath id="clip0_70_1054">
<rect width="298" height="280" fill="white"/>
</clipPath>
</defs>
</svg>
