<svg width="294" height="272" viewBox="0 0 294 272" fill="none" xmlns="http://www.w3.org/2000/svg">
<g clip-path="url(#clip0_70_1294)">
<path d="M267.835 188.971C253.58 210.185 229.781 231.149 202.982 232.638C162.495 234.896 150.701 264.276 83.6841 245.291C73.8872 242.563 64.415 238.781 55.4337 234.012C51.0446 231.654 46.8099 229.019 42.7552 226.124C7.03611 200.673 -5.18103 160.514 1.92241 123.236C11.2463 74.2377 50.618 59.173 75.8501 50.8913C101.082 42.6096 140.137 -3.50676 206.163 14.6419C216.254 17.3557 225.998 21.2243 235.202 26.171C256.157 37.5752 275.727 56.4157 284.224 79.1664C284.868 80.8766 285.455 82.6059 286.003 84.3641C296.576 118.654 287.291 160.024 267.835 188.971Z" fill="url(#paint0_linear_70_1294)"/>
<path opacity="0.7" d="M267.835 188.971C253.58 210.185 229.781 231.149 202.982 232.638C162.495 234.896 150.701 264.276 83.6841 245.291C73.8872 242.563 64.415 238.781 55.4337 234.012C51.0446 231.654 46.8099 229.019 42.7552 226.124C7.03611 200.673 -5.18103 160.514 1.92241 123.236C11.2463 74.2377 50.618 59.173 75.8501 50.8913C101.082 42.6096 140.137 -3.50676 206.163 14.6419C216.254 17.3557 225.998 21.2243 235.202 26.171C256.157 37.5752 275.727 56.4157 284.224 79.1664C284.868 80.8766 285.455 82.6059 286.003 84.3641C296.576 118.654 287.291 160.024 267.835 188.971Z" fill="url(#paint1_linear_70_1294)"/>
<path d="M39.4871 7.8686L35.1616 12.8934H112.627V7.8686" stroke="white" stroke-miterlimit="10"/>
<path d="M39.4871 15.1319L35.1616 20.1567H112.627V15.1319" stroke="white" stroke-miterlimit="10"/>
<path d="M39.4871 22.3856L35.1616 27.42H112.627V22.3856" stroke="white" stroke-miterlimit="10"/>
<path d="M39.4871 29.649L35.1616 34.6737H112.627V29.649" stroke="white" stroke-miterlimit="10"/>
<path d="M39.4871 36.9123L35.1616 41.9371H112.627V36.9123" stroke="white" stroke-miterlimit="10"/>
<path d="M39.4871 44.166L35.1616 49.2004H112.627V44.166" stroke="white" stroke-miterlimit="10"/>
<path d="M39.4871 51.4293L35.1616 56.4541H112.627V51.4293" stroke="white" stroke-miterlimit="10"/>
<path d="M39.4871 58.6927L35.1616 63.7174H112.627V58.6927" stroke="white" stroke-miterlimit="10"/>
<path d="M39.4871 65.9464L35.1616 70.9807H112.627V65.9464" stroke="white" stroke-miterlimit="10"/>
<path d="M39.4871 73.2097L35.1616 78.2345H112.627V73.2097" stroke="white" stroke-miterlimit="10"/>
<path d="M39.4871 80.473L35.1616 85.4978H112.627V80.473" stroke="white" stroke-miterlimit="10"/>
<path d="M39.4871 87.7364L35.1616 92.7611H112.627V87.7364" stroke="white" stroke-miterlimit="10"/>
<path d="M39.4871 94.9901L35.1616 100.024H112.627V94.9901" stroke="white" stroke-miterlimit="10"/>
<path d="M39.4871 102.253L35.1616 107.278H112.627V102.253" stroke="white" stroke-miterlimit="10"/>
<path d="M39.4871 109.517L35.1616 114.541H112.627V109.517" stroke="white" stroke-miterlimit="10"/>
<path d="M39.4871 116.77L35.1616 121.805H112.627V116.77" stroke="white" stroke-miterlimit="10"/>
<path d="M39.4871 124.034L35.1616 129.059H112.627V124.034" stroke="white" stroke-miterlimit="10"/>
<path d="M116.318 0.480377H35.0463V7.94546H116.318V0.480377Z" stroke="white" stroke-miterlimit="10"/>
<path d="M114.482 8.28173V82.0487" stroke="white" stroke-miterlimit="10"/>
<path d="M115.904 82.2889H113.261V87.4866H115.904V82.2889Z" stroke="white" stroke-miterlimit="10"/>
<path d="M64.2579 155.979C64.2673 155.968 64.2725 155.955 64.2725 155.941C64.2725 155.926 64.2673 155.913 64.2579 155.902C64.2466 155.894 64.2332 155.89 64.2194 155.89C64.2057 155.89 64.1922 155.894 64.1809 155.902C62.5242 159.882 61.2122 163.996 60.2592 168.2C59.2981 172.402 58.5761 176.655 58.0964 180.939L57.7888 184.158C57.7408 184.696 57.6831 185.234 57.6446 185.772L57.5581 187.386C57.5581 188.472 57.4428 189.548 57.4139 190.624V193.862V195.476C57.4139 196.014 57.4716 196.552 57.51 197.09C57.5965 198.166 57.6542 199.242 57.76 200.318C57.9618 202.47 58.2887 204.603 58.6155 206.726C58.6178 206.74 58.6248 206.752 58.6354 206.761C58.646 206.77 58.6594 206.774 58.6731 206.774C58.6884 206.774 58.7031 206.768 58.7139 206.757C58.7247 206.746 58.7308 206.732 58.7308 206.717C58.7308 205.631 58.7308 204.564 58.6539 203.488C58.577 202.412 58.529 201.346 58.5482 200.27C58.5674 199.194 58.5482 198.127 58.5482 197.061V195.456V193.852V190.643L58.6347 187.434V185.83C58.6347 185.301 58.6924 184.763 58.7212 184.235L58.9231 181.026C59.2879 176.758 59.8945 172.514 60.7398 168.315C61.5568 164.11 62.7338 159.983 64.2579 155.979Z" fill="#1A2E35"/>
<path d="M64.7192 172.754C64.727 172.742 64.7312 172.729 64.7312 172.715C64.7312 172.702 64.727 172.688 64.7192 172.677C64.7094 172.67 64.6976 172.666 64.6855 172.666C64.6735 172.666 64.6617 172.67 64.6519 172.677C62.812 178.038 61.5928 183.592 61.0185 189.231C60.7301 192.046 60.4225 194.851 60.3841 197.676C60.3107 200.501 60.4102 203.327 60.6821 206.14C60.6779 206.147 60.6756 206.156 60.6756 206.164C60.6756 206.173 60.6779 206.181 60.6821 206.188C60.6967 206.187 60.7108 206.182 60.7227 206.174C60.7346 206.165 60.7438 206.154 60.7493 206.14C61.0665 203.325 61.2684 200.529 61.4607 197.724C61.6529 194.918 61.6913 192.113 61.874 189.308C62.0415 186.512 62.3624 183.728 62.8352 180.968C63.3099 178.197 63.9388 175.455 64.7192 172.754Z" fill="#1A2E35"/>
<path d="M74.0239 178.653C74.0133 178.643 73.9996 178.638 73.9854 178.638C73.9712 178.638 73.9575 178.643 73.947 178.653C71.6187 180.144 69.5231 181.97 67.7278 184.071C66.8212 185.127 66.0075 186.258 65.296 187.453L64.7961 188.414L64.402 189.375C64.2694 189.689 64.1539 190.009 64.0559 190.336C63.9598 190.662 63.8445 190.999 63.758 191.296C63.0432 193.979 62.6115 196.729 62.47 199.501C62.3322 202.259 62.4351 205.024 62.7776 207.764C62.7741 207.771 62.7723 207.78 62.7723 207.788C62.7723 207.796 62.7741 207.804 62.7776 207.812C62.7776 207.812 62.8448 207.812 62.8448 207.754L63.5561 199.578C63.7485 196.874 64.0919 194.183 64.5847 191.517C64.6616 191.191 64.7576 190.864 64.8441 190.557C64.9167 190.231 65.0098 189.91 65.1229 189.596L65.4593 188.635L65.8823 187.742C66.5309 186.555 67.2768 185.424 68.1123 184.36C69.7701 182.187 71.7394 180.271 73.9566 178.672C73.9622 178.675 73.9685 178.678 73.975 178.678C73.9815 178.679 73.9881 178.679 73.9944 178.677C74.0007 178.675 74.0066 178.672 74.0116 178.668C74.0167 178.664 74.0209 178.659 74.0239 178.653Z" fill="#1A2E35"/>
<path d="M69.5158 189.154C68.3121 190.042 67.3423 191.209 66.6898 192.555C66.0092 193.882 65.4772 195.281 65.1037 196.725C64.998 197.08 64.9115 197.436 64.825 197.801L64.5751 198.886C64.439 199.617 64.3459 200.355 64.2963 201.096C64.2963 201.836 64.2963 202.576 64.2963 203.315C64.3524 204.057 64.4519 204.795 64.5942 205.525C64.6032 205.534 64.6153 205.539 64.6279 205.539C64.6405 205.539 64.6526 205.534 64.6615 205.525C64.8338 204.809 64.9654 204.085 65.0557 203.354C65.171 202.633 65.2864 201.922 65.3729 201.202C65.4594 200.481 65.5651 199.78 65.6228 199.059C65.6804 198.339 65.7766 197.628 65.9304 196.926C66.1814 195.512 66.5876 194.13 67.1415 192.805C67.6452 191.454 68.4583 190.24 69.5158 189.26C69.5252 189.249 69.5304 189.235 69.5304 189.221C69.5304 189.207 69.5252 189.193 69.5158 189.183C69.5172 189.173 69.5172 189.163 69.5158 189.154Z" fill="#1A2E35"/>
<path d="M56.4719 197.349C56.1643 193.718 55.5684 190.124 55.0012 186.531C54.4341 182.938 53.8093 179.354 53.1461 175.78C52.4828 172.206 51.7619 168.651 50.9833 165.097C50.9746 165.091 50.9646 165.089 50.9545 165.089C50.9444 165.089 50.9344 165.091 50.9257 165.097C50.9257 165.097 50.868 165.097 50.9257 165.164C51.5665 168.744 52.1368 172.331 52.6367 175.924C53.1365 179.518 53.6427 183.114 54.1554 186.714C54.5975 190.307 54.9436 193.919 55.3954 197.513L56.7219 208.321C56.7242 208.335 56.7312 208.347 56.7418 208.356C56.7523 208.364 56.7658 208.369 56.7795 208.369C56.7866 208.37 56.7939 208.37 56.8009 208.369C56.8079 208.367 56.8144 208.363 56.8199 208.359C56.8254 208.354 56.8299 208.348 56.8329 208.342C56.8359 208.335 56.8374 208.328 56.8372 208.321C56.8372 207.408 56.8372 206.496 56.9044 205.583C56.9717 204.67 56.9044 203.767 56.8468 202.854C56.7603 200.981 56.6065 199.165 56.4719 197.349Z" fill="#1A2E35"/>
<path d="M54.2899 197.301C54.0976 195.86 53.8381 194.419 53.5593 193.007L53.0499 190.883C52.8865 190.182 52.7231 189.471 52.5212 188.77C51.7923 185.956 50.864 183.198 49.7433 180.517L49.3108 179.556L48.8205 178.595C48.5129 177.942 48.1477 177.317 47.792 176.674C47.0802 175.4 46.1973 174.23 45.1679 173.196C45.1571 173.191 45.145 173.189 45.1333 173.191C45.1215 173.193 45.1107 173.199 45.1022 173.207C45.0938 173.215 45.0882 173.226 45.0862 173.238C45.0841 173.25 45.0858 173.262 45.091 173.273C46.0506 174.342 46.8591 175.538 47.494 176.827C47.8112 177.471 48.1477 178.105 48.4553 178.749L48.8782 179.71L49.2531 180.718C50.2609 183.41 51.0705 186.172 51.6754 188.981C52.0118 190.374 52.2233 191.796 52.502 193.208L52.8384 195.332C52.9634 196.043 53.1076 196.744 53.2133 197.455C53.4344 198.877 53.7036 200.337 53.9439 201.711C54.1842 203.085 54.4245 204.593 54.7321 205.977C54.7321 205.99 54.7371 206.002 54.7462 206.011C54.7552 206.02 54.7674 206.025 54.7801 206.025C54.7881 206.027 54.7963 206.026 54.8042 206.024C54.812 206.022 54.8192 206.018 54.8249 206.012C54.8307 206.006 54.8349 205.999 54.8371 205.991C54.8394 205.983 54.8396 205.975 54.8378 205.967C54.8378 204.516 54.8378 203.085 54.7416 201.625C54.6455 200.164 54.4437 198.742 54.2899 197.301Z" fill="#1A2E35"/>
<path d="M51.2909 197.484C50.618 195.562 49.8394 193.718 48.9936 191.882C48.1371 190.063 47.1742 188.295 46.1099 186.589C46.0993 186.579 46.0857 186.574 46.0715 186.574C46.0573 186.574 46.0436 186.579 46.033 186.589C46.027 186.593 46.0222 186.599 46.0188 186.606C46.0155 186.612 46.0138 186.62 46.0138 186.627C46.0138 186.635 46.0155 186.642 46.0188 186.649C46.0222 186.655 46.027 186.661 46.033 186.666C46.9641 188.436 47.7859 190.262 48.4937 192.132C49.2339 193.987 49.8971 195.87 50.4162 197.782C50.9352 199.693 51.3774 201.625 51.8965 203.546C52.4155 205.468 52.8577 207.389 53.4633 209.311C53.4633 209.311 53.4633 209.311 53.5113 209.311C53.5193 209.312 53.5275 209.312 53.5354 209.31C53.5432 209.308 53.5504 209.304 53.5562 209.298C53.5619 209.292 53.5662 209.285 53.5684 209.277C53.5707 209.269 53.5708 209.261 53.569 209.253C53.5958 207.228 53.4089 205.205 53.0115 203.219C52.585 201.266 52.0098 199.349 51.2909 197.484Z" fill="#1A2E35"/>
<path d="M51.1659 203.825C50.7947 202.636 50.2541 201.506 49.5607 200.472C48.9192 199.41 48.1366 198.441 47.2345 197.589C46.777 197.17 46.2815 196.793 45.7542 196.465C45.2388 196.131 44.6746 195.878 44.0817 195.716C44.0727 195.707 44.0606 195.702 44.048 195.702C44.0354 195.702 44.0234 195.707 44.0144 195.716C44.0065 195.727 44.0023 195.741 44.0023 195.754C44.0023 195.768 44.0065 195.781 44.0144 195.793C45.0834 196.308 46.0303 197.045 46.7924 197.954C47.5654 198.841 48.2123 199.831 48.7148 200.894C49.2723 201.932 49.5511 203.085 50.0317 204.161C50.2431 204.709 50.4546 205.266 50.6949 205.813C50.9041 206.388 51.1481 206.95 51.4255 207.495C51.4342 207.5 51.4441 207.502 51.4543 207.502C51.4644 207.502 51.4744 207.5 51.4831 207.495C51.4919 207.5 51.5018 207.502 51.5119 207.502C51.5221 207.502 51.532 207.5 51.5408 207.495C51.5616 206.873 51.5391 206.25 51.4735 205.631C51.4062 205.035 51.3101 204.43 51.1659 203.825Z" fill="#1A2E35"/>
<path d="M51.4063 170.294C49.5921 169.787 47.951 168.794 46.6602 167.422C45.3693 166.051 44.4778 164.353 44.0817 162.512C42.7072 156.104 47.1384 158.852 43.1205 148.783C39.1026 138.714 40.0638 136.428 41.4384 133.536C42.8129 130.644 43.5819 131.547 44.8026 135.361C46.0234 139.175 50.4451 145.122 52.156 156.306C53.867 167.489 51.4063 170.294 51.4063 170.294Z" fill="white" stroke="#1A2E35" stroke-miterlimit="10"/>
<path d="M63.1429 159.467C63.1429 159.467 59.173 158.093 59.0192 150.618C58.8654 143.143 61.9029 144.671 62.3739 135.361C62.8449 126.051 63.4409 119.499 65.123 119.345C66.8051 119.192 71.2268 123.928 72.7551 134.295C74.2835 144.661 70.7654 151.502 67.7471 154.586C64.7289 157.67 63.1429 159.467 63.1429 159.467Z" fill="white" stroke="#1A2E35" stroke-miterlimit="10"/>
<path d="M49.2531 179.297C49.2531 179.297 48.2919 173.801 46.5041 171.207C44.7162 168.613 40.7367 166.326 38.1125 161.292C35.4884 156.258 32.6143 153.817 32.7681 160.985C32.9219 168.152 36.1324 171.822 40.0926 174.262C44.0529 176.703 49.2531 179.297 49.2531 179.297Z" fill="white" stroke="#1A2E35" stroke-miterlimit="10"/>
<path d="M47.5614 188.75C45.1397 184.288 42.112 180.182 38.5644 176.549C33.22 171.361 28.9521 168.767 30.4708 171.361C31.9896 173.955 33.8255 173.801 36.4208 178.374C39.0161 182.947 38.2568 186.31 41.919 188.943C45.5813 191.575 47.5614 188.75 47.5614 188.75Z" fill="white" stroke="#1A2E35" stroke-miterlimit="10"/>
<path d="M47.1192 197.753C46.9654 197.292 46.8116 193.91 41.621 191.191C36.4304 188.472 31.5474 189.509 32.1626 190.883C32.7777 192.257 36.0075 194.544 39.1795 195.918C41.7385 196.86 44.406 197.477 47.1192 197.753Z" fill="white" stroke="#1A2E35" stroke-miterlimit="10"/>
<path d="M62.8352 179.594C62.8352 179.594 60.5475 176.712 61.7683 170.602C62.989 164.491 65.7381 166.019 68.7852 162.82C71.8323 159.62 71.2267 159.159 74.2834 155.806C77.34 152.453 80.0507 150.618 81.3003 151.963C82.5499 153.308 80.6851 157.603 78.8588 160.043C77.0325 162.483 74.1296 163.703 72.755 166.768C71.3805 169.833 71.9861 174.695 68.4776 176.981C66.7898 178.219 64.8715 179.108 62.8352 179.594Z" fill="white" stroke="#1A2E35" stroke-miterlimit="10"/>
<path d="M70.4674 181.285C70.4674 181.285 75.956 175.031 79.9258 170.458C83.8957 165.884 85.424 162.368 85.5682 165.423C85.7124 168.478 86.9428 170.909 83.7419 174.877C80.541 178.845 70.4674 181.285 70.4674 181.285Z" fill="white" stroke="#1A2E35" stroke-miterlimit="10"/>
<path d="M67.5644 191.344C67.5644 191.344 67.4106 188.904 76.1097 183.255C84.8088 177.606 88.471 176.53 87.5578 178.835C86.6447 181.141 82.8287 183.409 78.705 187.53C74.5814 191.652 67.5644 191.344 67.5644 191.344Z" fill="white" stroke="#1A2E35" stroke-miterlimit="10"/>
<path d="M51.7523 169.641C51.7523 169.641 49.7145 158.698 47.571 150.925C45.4275 143.153 44.0625 138.436 44.0625 138.436" stroke="#1A2E35" stroke-linecap="round" stroke-linejoin="round"/>
<path d="M62.7872 159.582C62.7872 159.582 66.4975 147.716 67.7183 140.549C68.939 133.382 67.5645 128.059 66.9589 124.841" stroke="#1A2E35" stroke-linecap="round" stroke-linejoin="round"/>
<path d="M48.7725 179.066C47.1281 176.241 45.2469 173.56 43.1493 171.053C39.7946 167.095 37.1994 164.952 35.671 161.138" stroke="#1A2E35" stroke-linecap="round" stroke-linejoin="round"/>
<path d="M62.8352 179.594C62.8352 179.594 64.0559 172.273 66.9588 168.459C69.8617 164.645 75.6098 158.698 77.9456 154.884" stroke="#1A2E35" stroke-linecap="round" stroke-linejoin="round"/>
<path d="M46.7539 197.618C46.7539 197.618 41.621 194.275 37.9587 192.449" stroke="#1A2E35" stroke-linecap="round" stroke-linejoin="round"/>
<path d="M76.1578 228.362C75.8214 219.11 65.5267 212.99 65.5267 212.99H49.7626C49.7626 212.99 39.4679 219.158 39.1218 228.362C38.7758 237.566 50.7911 271.596 50.7911 271.596H64.4982C64.4982 271.596 76.5039 237.586 76.1578 228.362Z" fill="#1A2E35" stroke="#1A2E35" stroke-linecap="round" stroke-linejoin="round"/>
<path d="M67.5644 203.796H47.4364L49.7626 212.904H65.2383L67.5644 203.796Z" fill="#1A2E35" stroke="#1A2E35" stroke-linecap="round" stroke-linejoin="round"/>
<path d="M203.184 25.1622V229.093C203.184 231.781 202.115 234.359 200.213 236.26C198.312 238.161 195.732 239.229 193.043 239.229H104.879C103.548 239.229 102.23 238.966 101 238.457C99.7701 237.947 98.6528 237.201 97.7119 236.259C96.771 235.318 96.0249 234.2 95.5164 232.971C95.0078 231.741 94.7467 230.423 94.7479 229.093V25.1622C94.7581 22.4832 95.83 19.9174 97.7289 18.0266C99.6278 16.1359 102.199 15.0743 104.879 15.0743H142.723V15.1896C143.684 18.5907 145.837 20.7908 148.24 20.7908H149.624C152.027 20.7908 154.2 18.5907 155.142 15.1896V15.0743H192.975C194.308 15.0667 195.63 15.3216 196.864 15.8245C198.099 16.3273 199.222 17.0683 200.17 18.0051C201.118 18.9418 201.872 20.056 202.389 21.2841C202.906 22.5121 203.176 23.8299 203.184 25.1622Z" fill="white" stroke="#1A2E35" stroke-miterlimit="10"/>
<g opacity="0.7">
<path d="M163.831 148.245H135.936C133.367 148.245 131.284 150.327 131.284 152.895V155.182C131.284 157.75 133.367 159.832 135.936 159.832H163.831C166.4 159.832 168.483 157.75 168.483 155.182V152.895C168.483 150.327 166.4 148.245 163.831 148.245Z" fill="url(#paint2_linear_70_1294)"/>
</g>
<path d="M94.7383 175.79V229.093C94.7383 231.781 95.8067 234.359 97.7085 236.26C99.6103 238.161 102.19 239.229 104.879 239.229H193.043C195.732 239.229 198.312 238.161 200.213 236.26C202.115 234.359 203.184 231.781 203.184 229.093V175.79H94.7383Z" fill="#DBDBDB" stroke="#1A2E35" stroke-linecap="round" stroke-linejoin="round"/>
<path d="M126.939 182.227H101.573C100.368 182.227 99.3906 183.203 99.3906 184.408V190.028C99.3906 191.233 100.368 192.209 101.573 192.209H126.939C128.144 192.209 129.121 191.233 129.121 190.028V184.408C129.121 183.203 128.144 182.227 126.939 182.227Z" fill="white"/>
<path d="M160.207 182.227H134.841C133.635 182.227 132.659 183.203 132.659 184.408V190.028C132.659 191.233 133.635 192.209 134.841 192.209H160.207C161.412 192.209 162.389 191.233 162.389 190.028V184.408C162.389 183.203 161.412 182.227 160.207 182.227Z" fill="white"/>
<path d="M193.475 182.227H168.108C166.903 182.227 165.927 183.203 165.927 184.408V190.028C165.927 191.233 166.903 192.209 168.108 192.209H193.475C194.68 192.209 195.657 191.233 195.657 190.028V184.408C195.657 183.203 194.68 182.227 193.475 182.227Z" fill="white"/>
<path d="M126.939 194.976H101.573C100.368 194.976 99.3906 195.953 99.3906 197.157V202.777C99.3906 203.982 100.368 204.958 101.573 204.958H126.939C128.144 204.958 129.121 203.982 129.121 202.777V197.157C129.121 195.953 128.144 194.976 126.939 194.976Z" fill="white"/>
<path d="M160.207 194.976H134.841C133.635 194.976 132.659 195.953 132.659 197.157V202.777C132.659 203.982 133.635 204.958 134.841 204.958H160.207C161.412 204.958 162.389 203.982 162.389 202.777V197.157C162.389 195.953 161.412 194.976 160.207 194.976Z" fill="white"/>
<path d="M193.475 194.976H168.108C166.903 194.976 165.927 195.953 165.927 197.157V202.777C165.927 203.982 166.903 204.958 168.108 204.958H193.475C194.68 204.958 195.657 203.982 195.657 202.777V197.157C195.657 195.953 194.68 194.976 193.475 194.976Z" fill="white"/>
<path d="M126.939 207.735H101.573C100.368 207.735 99.3906 208.711 99.3906 209.916V215.536C99.3906 216.741 100.368 217.717 101.573 217.717H126.939C128.144 217.717 129.121 216.741 129.121 215.536V209.916C129.121 208.711 128.144 207.735 126.939 207.735Z" fill="white"/>
<path d="M160.207 207.735H134.841C133.635 207.735 132.659 208.711 132.659 209.916V215.536C132.659 216.741 133.635 217.717 134.841 217.717H160.207C161.412 217.717 162.389 216.741 162.389 215.536V209.916C162.389 208.711 161.412 207.735 160.207 207.735Z" fill="white"/>
<path d="M193.475 207.735H168.108C166.903 207.735 165.927 208.711 165.927 209.916V215.536C165.927 216.741 166.903 217.717 168.108 217.717H193.475C194.68 217.717 195.657 216.741 195.657 215.536V209.916C195.657 208.711 194.68 207.735 193.475 207.735Z" fill="white"/>
<path d="M160.207 220.494H134.841C133.635 220.494 132.659 221.47 132.659 222.675V228.295C132.659 229.5 133.635 230.476 134.841 230.476H160.207C161.412 230.476 162.389 229.5 162.389 228.295V222.675C162.389 221.47 161.412 220.494 160.207 220.494Z" fill="white"/>
<path d="M192.072 230.476H173.52L169.521 225.826L173.52 220.494H192.072V230.476Z" fill="white"/>
<g opacity="0.7">
<path d="M150.153 61.1906L149.884 60.9985L149.614 61.1906C149.614 61.1906 135.946 68.9632 129.784 71.9127C129.784 71.9127 132.735 88.5146 134.879 96.0181C137.022 103.522 145.327 107.547 149.884 110.218C154.44 107.538 162.745 103.493 164.888 96.0181C167.032 88.5434 169.983 71.9127 169.983 71.9127C163.869 68.9824 150.153 61.1906 150.153 61.1906Z" fill="url(#paint3_linear_70_1294)"/>
</g>
<path d="M148.49 93.328L139.426 85.565C139.041 85.1962 138.812 84.6943 138.786 84.1622C138.76 83.6301 138.939 83.1083 139.286 82.7038C139.633 82.2993 140.121 82.0429 140.651 81.9872C141.181 81.9315 141.713 82.0807 142.136 82.4042L148.077 87.4962L158.246 75.9671C158.61 75.553 159.123 75.3002 159.672 75.2641C160.222 75.2281 160.764 75.4118 161.178 75.7749C161.592 76.138 161.845 76.6507 161.881 77.2003C161.917 77.7498 161.734 78.2912 161.37 78.7052L148.49 93.328Z" fill="white"/>
<path d="M114.511 119.509H102.178V131.835H114.511V119.509Z" fill="white" stroke="#1A2E35" stroke-miterlimit="10"/>
<path d="M131.13 119.509H118.798V131.835H131.13V119.509Z" fill="white" stroke="#1A2E35" stroke-miterlimit="10"/>
<path d="M147.75 119.509H135.417V131.835H147.75V119.509Z" fill="white" stroke="#1A2E35" stroke-miterlimit="10"/>
<path d="M164.36 119.509H152.027V131.835H164.36V119.509Z" fill="white" stroke="#1A2E35" stroke-miterlimit="10"/>
<path d="M180.979 119.509H168.647V131.835H180.979V119.509Z" fill="white" stroke="#1A2E35" stroke-miterlimit="10"/>
<path d="M197.599 119.509H185.266V131.835H197.599V119.509Z" fill="white" stroke="#1A2E35" stroke-miterlimit="10"/>
<path d="M203.184 34.6545V25.1622C203.168 22.4831 202.094 19.9188 200.194 18.0288C198.294 16.1389 195.723 15.0768 193.043 15.0743H155.219V15.1896C154.257 18.5906 152.104 20.7908 149.701 20.7908H148.317C145.914 20.7908 143.742 18.5906 142.8 15.1896V15.0743H104.879C103.548 15.0743 102.23 15.3365 101 15.846C99.7701 16.3555 98.6528 17.1023 97.7119 18.0436C96.771 18.985 96.0249 20.1024 95.5164 21.3321C95.0078 22.5618 94.7467 23.8796 94.7479 25.2103V34.7025L203.184 34.6545Z" fill="#DBDBDB" stroke="#1A2E35" stroke-linecap="round" stroke-linejoin="round"/>
<path opacity="0.7" d="M210.076 73.8726V53.5046H208.23V27.4296C208.23 25.3188 207.814 23.2287 207.006 21.2786C206.198 19.3284 205.013 17.5565 203.52 16.064C202.027 14.5714 200.254 13.3874 198.303 12.5797C196.352 11.7719 194.261 11.3562 192.149 11.3562H105.773C101.508 11.3562 97.4178 13.0496 94.402 16.064C91.3862 19.0783 89.6919 23.1667 89.6919 27.4296V234.636C89.6919 236.747 90.1079 238.837 90.916 240.787C91.7242 242.737 92.9087 244.509 94.402 246.002C95.8953 247.494 97.6681 248.678 99.6191 249.486C101.57 250.294 103.661 250.71 105.773 250.71H192.149C194.261 250.71 196.352 250.294 198.303 249.486C200.254 248.678 202.027 247.494 203.52 246.002C205.013 244.509 206.198 242.737 207.006 240.787C207.814 238.837 208.23 236.747 208.23 234.636V91.2335H210.076V79.1952H208.23V73.8726H210.076ZM203.184 223.155C203.181 227.419 201.485 231.507 198.467 234.521C195.45 237.535 191.359 239.229 187.093 239.229H110.829C106.564 239.229 102.474 237.535 99.458 234.521C96.4422 231.506 94.7479 227.418 94.7479 223.155V31.0997C94.7607 26.8451 96.4605 22.7691 99.475 19.7651C102.489 16.7611 106.572 15.0743 110.829 15.0743H142.723V15.1896C143.684 18.5906 145.837 20.7908 148.24 20.7908H149.624C152.027 20.7908 154.2 18.5906 155.142 15.1896V15.0743H187.025C191.291 15.0743 195.383 16.7674 198.4 19.7815C201.417 22.7956 203.114 26.8839 203.116 31.1477L203.184 223.155Z" fill="url(#paint4_linear_70_1294)" stroke="#231F20" stroke-miterlimit="10"/>
<path d="M190.861 13.5659H107.061C102.948 13.5684 99.0046 15.2033 96.0972 18.1111C93.1898 21.0189 91.5566 24.9616 91.5566 29.0725V232.993C91.5503 235.032 91.9466 237.053 92.723 238.938C93.4993 240.824 94.6403 242.538 96.0807 243.982C97.5211 245.426 99.2324 246.572 101.117 247.354C103.001 248.136 105.021 248.538 107.061 248.538H190.861C194.974 248.538 198.918 246.906 201.827 244C204.737 241.094 206.372 237.152 206.375 233.041V29.0725C206.375 24.9599 204.74 21.0157 201.831 18.1077C198.921 15.1996 194.975 13.5659 190.861 13.5659ZM203.184 223.722C203.184 227.835 201.549 231.779 198.64 234.687C195.73 237.595 191.784 239.229 187.669 239.229H110.252C106.139 239.226 102.196 237.591 99.2885 234.683C96.3811 231.776 94.7479 227.833 94.7479 223.722V30.5329C94.7606 26.4302 96.3994 22.4999 99.3054 19.6025C102.211 16.7051 106.148 15.0768 110.252 15.0743H142.723V15.1896C143.684 18.5907 145.837 20.7908 148.24 20.7908H149.624C152.027 20.7908 154.2 18.5907 155.142 15.1896V15.0743H187.602C191.717 15.0743 195.663 16.708 198.572 19.6161C201.482 22.5241 203.116 26.4683 203.116 30.5809L203.184 223.722Z" fill="#1A2E35" stroke="#1A2E35" stroke-linecap="round" stroke-linejoin="round"/>
<path d="M150.143 15.7949C150.143 15.4965 150.055 15.2049 149.889 14.9568C149.723 14.7088 149.487 14.5155 149.212 14.4013C148.936 14.2871 148.632 14.2573 148.34 14.3155C148.047 14.3737 147.778 14.5173 147.567 14.7283C147.356 14.9392 147.212 15.208 147.154 15.5006C147.096 15.7932 147.126 16.0965 147.24 16.3721C147.354 16.6477 147.548 16.8833 147.796 17.049C148.044 17.2148 148.336 17.3032 148.634 17.3032C149.034 17.3007 149.416 17.141 149.698 16.8587C149.981 16.5763 150.141 16.1941 150.143 15.7949Z" fill="white"/>
<path d="M104.379 21.5786C104.379 23.1062 102.668 23.6538 102.659 24.826V24.9028H104.322V25.412H102.101V24.9797C102.101 23.3464 103.822 23.0582 103.822 21.6074C103.822 21.079 103.639 20.81 103.226 20.81C102.812 20.81 102.63 21.1078 102.63 21.5498V22.0013H102.101V21.5882C102.101 20.81 102.457 20.3008 103.235 20.3008C104.014 20.3008 104.379 20.8388 104.379 21.5786Z" fill="#1A2E35"/>
<path d="M107.157 21.5786V21.7035C107.189 21.9207 107.145 22.1421 107.033 22.3308C106.921 22.5196 106.748 22.6644 106.542 22.7411C106.745 22.827 106.915 22.9764 107.026 23.167C107.137 23.3576 107.183 23.579 107.157 23.798V24.1823C107.157 24.9605 106.792 25.4697 106.013 25.4697C105.235 25.4697 104.879 24.9605 104.879 24.1823V23.8364H105.398V24.2207C105.398 24.6819 105.59 24.9509 105.994 24.9509C106.398 24.9509 106.59 24.6819 106.59 24.1727V23.7787C106.59 23.2792 106.379 23.039 105.956 23.0294H105.648V22.5202H105.985C106.359 22.5202 106.59 22.2704 106.59 21.8284V21.5978C106.59 21.079 106.407 20.81 105.994 20.81C105.581 20.81 105.398 21.0886 105.398 21.5402V21.7996H104.879V21.569C104.879 20.7908 105.235 20.2912 106.013 20.2912C106.792 20.2912 107.157 20.8388 107.157 21.5786Z" fill="#1A2E35"/>
<path d="M108.253 21.9533V22.6547H107.705V21.9533H108.253ZM108.253 24.7107V25.412H107.705V24.6819L108.253 24.7107Z" fill="#1A2E35"/>
<path d="M109.397 22.4145C109.468 22.2797 109.577 22.1683 109.71 22.0934C109.843 22.0184 109.994 21.9832 110.147 21.9917C110.8 21.9917 111.108 22.4721 111.108 23.1927V24.1534C111.108 24.9317 110.733 25.4409 109.964 25.4409C109.195 25.4409 108.83 24.9317 108.83 24.1534V23.8172H109.349V24.1919C109.349 24.653 109.541 24.922 109.945 24.922C110.349 24.922 110.541 24.653 110.541 24.1919V23.2311C110.541 22.77 110.349 22.5009 109.945 22.5009C109.872 22.497 109.799 22.508 109.73 22.5333C109.661 22.5586 109.599 22.5976 109.545 22.648C109.492 22.6983 109.45 22.759 109.421 22.8262C109.392 22.8934 109.378 22.9658 109.378 23.039V23.1543H108.849L108.984 20.3392H111.002V20.8388H109.512L109.397 22.4145Z" fill="#1A2E35"/>
<path d="M113.886 21.569V21.6651H113.357V21.5306C113.357 21.079 113.165 20.81 112.752 20.81C112.338 20.81 112.136 21.079 112.136 21.6267V22.7603C112.196 22.5945 112.308 22.4526 112.455 22.3556C112.603 22.2586 112.777 22.2119 112.954 22.2223C113.607 22.2223 113.915 22.6835 113.915 23.4233V24.1823C113.915 24.9605 113.53 25.4697 112.761 25.4697C111.992 25.4697 111.598 24.9605 111.598 24.1823V21.6074C111.598 20.8004 111.954 20.3008 112.761 20.3008C113.569 20.3008 113.886 20.8388 113.886 21.569ZM112.136 23.4905V24.2495C112.136 24.7107 112.329 24.9797 112.742 24.9797C113.155 24.9797 113.338 24.7107 113.338 24.2495V23.4905C113.338 23.039 113.146 22.7603 112.742 22.7603C112.338 22.7603 112.156 23.0101 112.156 23.4617L112.136 23.4905Z" fill="#1A2E35"/>
<path d="M169.223 21.79H167.791V25.364H169.223V21.79Z" fill="#1A2E35"/>
<path d="M171.127 21.0694H169.694V25.364H171.127V21.0694Z" fill="#1A2E35"/>
<path d="M173.04 20.5602H171.607V25.364H173.04V20.5602Z" fill="#1A2E35"/>
<path d="M174.943 19.6763H173.51V25.364H174.943V19.6763Z" fill="#1A2E35"/>
<path d="M192.649 25.2679H184.055V20.0222H192.639L192.649 25.2679ZM184.536 24.7875H192.168V20.5026H184.536V24.7875Z" fill="#1A2E35"/>
<path d="M189.784 21.0214H185.257V24.2783H189.784V21.0214Z" fill="#1A2E35"/>
<path d="M193.427 22.0302H192.351V23.2695H193.427V22.0302Z" fill="#1A2E35"/>
<path d="M180.912 24.1246C180.859 24.1415 180.802 24.1415 180.749 24.1246C180.32 23.8116 179.804 23.6428 179.273 23.6428C178.743 23.6428 178.226 23.8116 177.798 24.1246C177.766 24.1524 177.729 24.1736 177.69 24.1872C177.65 24.2008 177.608 24.2064 177.566 24.2037C177.524 24.201 177.483 24.1901 177.445 24.1716C177.407 24.1531 177.374 24.1273 177.346 24.0958C177.318 24.0642 177.297 24.0276 177.283 23.9878C177.27 23.948 177.264 23.906 177.267 23.864C177.269 23.8221 177.28 23.7811 177.299 23.7434C177.317 23.7057 177.343 23.672 177.375 23.6442C177.91 23.2472 178.559 23.0329 179.225 23.0329C179.892 23.0329 180.54 23.2472 181.075 23.6442C181.138 23.6783 181.188 23.7327 181.216 23.7986C181.244 23.8644 181.249 23.9379 181.23 24.0069C181.211 24.076 181.17 24.1366 181.112 24.1789C181.054 24.2212 180.984 24.2427 180.912 24.2399V24.1246Z" fill="#1A2E35"/>
<path d="M181.566 23.0486C181.505 23.0461 181.446 23.0296 181.393 23.0005C180.777 22.553 180.035 22.3119 179.273 22.3119C178.512 22.3119 177.77 22.553 177.154 23.0005C177.093 23.0587 177.012 23.0911 176.928 23.0911C176.844 23.0911 176.763 23.0587 176.702 23.0005C176.672 22.971 176.648 22.9359 176.632 22.8971C176.616 22.8584 176.607 22.8168 176.607 22.7748C176.607 22.7327 176.616 22.6911 176.632 22.6524C176.648 22.6136 176.672 22.5785 176.702 22.549C177.429 22.0238 178.304 21.7411 179.201 21.7411C180.098 21.7411 180.973 22.0238 181.7 22.549C181.772 22.5945 181.823 22.6661 181.843 22.7486C181.862 22.831 181.849 22.918 181.806 22.9909C181.772 23.0161 181.733 23.0342 181.692 23.0441C181.65 23.054 181.607 23.0555 181.566 23.0486Z" fill="#1A2E35"/>
<path d="M182.133 21.7996C182.071 21.8017 182.011 21.7849 181.96 21.7515C178.768 19.83 176.634 21.6459 176.548 21.7515C176.487 21.8097 176.406 21.8421 176.322 21.8421C176.238 21.8421 176.157 21.8097 176.096 21.7515C176.066 21.722 176.043 21.6869 176.026 21.6481C176.01 21.6094 176.002 21.5678 176.002 21.5258C176.002 21.4837 176.01 21.4421 176.026 21.4034C176.043 21.3646 176.066 21.3295 176.096 21.3C176.096 21.3 178.653 19.1191 182.267 21.3C182.339 21.3455 182.39 21.4171 182.41 21.4996C182.429 21.582 182.416 21.669 182.373 21.7419C182.339 21.7671 182.3 21.7852 182.259 21.7951C182.217 21.805 182.175 21.8065 182.133 21.7996Z" fill="#1A2E35"/>
<path d="M179.951 24.6819C179.948 24.8951 179.862 25.0989 179.712 25.2498C179.561 25.4006 179.357 25.4864 179.143 25.4889C178.929 25.4889 178.724 25.4039 178.572 25.2525C178.421 25.1012 178.336 24.8959 178.336 24.6819C178.336 24.4678 178.421 24.2626 178.572 24.1112C178.724 23.9599 178.929 23.8748 179.143 23.8748C179.357 23.8773 179.561 23.9631 179.712 24.114C179.862 24.2648 179.948 24.4686 179.951 24.6819Z" fill="#1A2E35"/>
<path d="M183.642 225.72L186.526 222.838C186.669 222.667 186.743 222.448 186.733 222.225C186.723 222.002 186.63 221.791 186.472 221.633C186.314 221.475 186.103 221.382 185.88 221.372C185.656 221.362 185.438 221.436 185.266 221.579L182.383 224.462L179.499 221.579C179.328 221.436 179.109 221.362 178.886 221.372C178.663 221.382 178.451 221.475 178.294 221.633C178.136 221.791 178.043 222.002 178.033 222.225C178.023 222.448 178.097 222.667 178.24 222.838L181.124 225.72L178.24 228.603C178.097 228.774 178.023 228.993 178.033 229.215C178.043 229.438 178.136 229.65 178.294 229.807C178.451 229.965 178.663 230.058 178.886 230.068C179.109 230.078 179.328 230.004 179.499 229.861L182.383 226.979L185.266 229.861C185.438 230.004 185.656 230.078 185.88 230.068C186.103 230.058 186.314 229.965 186.472 229.807C186.63 229.65 186.723 229.438 186.733 229.215C186.743 228.993 186.669 228.774 186.526 228.603L183.642 225.72Z" fill="#1A2E35"/>
<path d="M112.694 190.633V184.792L112.492 184.869L112.146 184.975L111.8 185.061L111.579 185.138V184.177L111.896 184.052C112.032 184.001 112.164 183.94 112.29 183.87C112.426 183.804 112.557 183.73 112.684 183.649C112.794 183.575 112.894 183.488 112.982 183.389H113.943V190.595L112.694 190.633Z" fill="#1A2E35"/>
<path d="M145.962 190.633V189.769L147.74 187.011L148.105 186.435C148.221 186.253 148.317 186.06 148.394 185.859C148.473 185.65 148.513 185.428 148.509 185.205C148.521 184.991 148.471 184.777 148.365 184.59C148.313 184.521 148.244 184.465 148.166 184.428C148.087 184.391 148 184.374 147.913 184.379C147.832 184.376 147.752 184.389 147.676 184.417C147.6 184.445 147.53 184.487 147.471 184.542C147.359 184.655 147.282 184.799 147.25 184.955C147.21 185.145 147.19 185.338 147.192 185.532V185.83H145.981V185.513C145.974 185.129 146.039 184.748 146.173 184.389C146.297 184.077 146.511 183.809 146.789 183.62C147.119 183.423 147.5 183.329 147.884 183.351C148.136 183.332 148.39 183.366 148.628 183.45C148.867 183.534 149.085 183.667 149.269 183.841C149.595 184.229 149.76 184.728 149.73 185.234C149.735 185.508 149.693 185.781 149.605 186.041C149.524 186.284 149.414 186.516 149.278 186.733C149.144 186.954 148.999 187.175 148.836 187.405L147.356 189.653H149.547V190.614L145.962 190.633Z" fill="#1A2E35"/>
<path d="M180.701 190.749C180.321 190.766 179.945 190.676 179.614 190.489C179.336 190.326 179.122 190.071 179.009 189.769C178.879 189.422 178.817 189.053 178.826 188.683V188.433H180.047V188.645C180.049 188.838 180.068 189.031 180.105 189.221C180.131 189.361 180.202 189.489 180.306 189.586C180.42 189.677 180.565 189.722 180.71 189.711C180.785 189.718 180.859 189.709 180.93 189.686C181.001 189.663 181.067 189.626 181.123 189.577C181.23 189.471 181.298 189.332 181.316 189.183C181.349 188.979 181.365 188.774 181.364 188.568C181.378 188.27 181.319 187.973 181.191 187.703C181.12 187.591 181.02 187.5 180.902 187.44C180.783 187.381 180.65 187.356 180.518 187.367H180.316V186.406H180.499C180.628 186.409 180.756 186.383 180.873 186.328C180.99 186.272 181.092 186.191 181.172 186.089C181.314 185.845 181.378 185.563 181.354 185.282C181.365 185.035 181.318 184.788 181.22 184.561C181.165 184.473 181.086 184.403 180.992 184.359C180.898 184.314 180.794 184.298 180.691 184.312C180.586 184.299 180.48 184.318 180.387 184.368C180.294 184.418 180.219 184.496 180.172 184.59C180.076 184.825 180.03 185.077 180.037 185.33V185.599H178.817V185.253C178.807 184.892 178.883 184.533 179.038 184.206C179.175 183.925 179.397 183.693 179.672 183.543C179.989 183.388 180.338 183.312 180.691 183.322C181.047 183.308 181.401 183.384 181.719 183.543C181.993 183.686 182.215 183.911 182.354 184.187C182.51 184.51 182.586 184.866 182.575 185.224C182.592 185.593 182.498 185.957 182.306 186.272C182.153 186.53 181.91 186.722 181.623 186.81C181.813 186.869 181.985 186.974 182.123 187.117C182.275 187.278 182.387 187.472 182.45 187.684C182.541 187.96 182.583 188.249 182.575 188.539C182.583 188.928 182.521 189.315 182.392 189.682C182.282 189.996 182.073 190.266 181.796 190.451C181.468 190.655 181.087 190.759 180.701 190.749Z" fill="#1A2E35"/>
<path d="M113.29 203.383V201.605H111.137V200.597L113.059 196.206H114.491V200.664H115.232V201.625H114.491V203.383H113.29ZM112.175 200.625H113.29V197.493L112.175 200.625Z" fill="#1A2E35"/>
<path d="M147.827 203.527C147.436 203.553 147.047 203.459 146.712 203.258C146.442 203.081 146.246 202.811 146.164 202.499C146.054 202.128 146.002 201.742 146.01 201.356H147.212C147.211 201.571 147.227 201.786 147.26 201.999C147.281 202.161 147.351 202.312 147.461 202.432C147.518 202.486 147.587 202.528 147.661 202.555C147.736 202.582 147.815 202.592 147.894 202.585C147.978 202.594 148.062 202.58 148.138 202.545C148.215 202.509 148.28 202.453 148.327 202.384C148.425 202.21 148.484 202.016 148.5 201.817C148.5 201.58 148.5 201.301 148.5 200.981C148.521 200.738 148.521 200.494 148.5 200.251C148.482 200.073 148.416 199.903 148.307 199.761C148.252 199.7 148.183 199.653 148.106 199.623C148.03 199.593 147.947 199.581 147.865 199.588C147.786 199.584 147.708 199.598 147.635 199.628C147.562 199.658 147.496 199.703 147.442 199.761C147.318 199.888 147.231 200.048 147.192 200.222H146.125L146.202 196.206H149.451V197.311H147.24L147.173 199.05C147.276 198.931 147.409 198.842 147.558 198.79C147.739 198.721 147.931 198.682 148.125 198.675C148.464 198.63 148.808 198.716 149.086 198.915C149.341 199.112 149.526 199.384 149.615 199.693C149.738 200.085 149.797 200.494 149.788 200.904C149.788 201.254 149.762 201.605 149.711 201.951C149.665 202.243 149.571 202.526 149.432 202.787C149.292 203.015 149.093 203.201 148.855 203.325C148.536 203.482 148.181 203.552 147.827 203.527Z" fill="#1A2E35"/>
<path d="M180.749 203.517C180.376 203.539 180.007 203.437 179.699 203.227C179.391 203.016 179.162 202.71 179.047 202.355C178.915 201.965 178.85 201.556 178.855 201.144V198.579C178.853 198.151 178.908 197.724 179.018 197.311C179.11 196.961 179.308 196.649 179.585 196.417C179.921 196.179 180.328 196.064 180.739 196.091C181.094 196.075 181.447 196.148 181.767 196.302C182.023 196.432 182.227 196.646 182.344 196.907C182.476 197.21 182.541 197.538 182.536 197.868V197.926C182.541 197.945 182.541 197.964 182.536 197.983H181.364C181.376 197.738 181.337 197.492 181.248 197.263C181.199 197.197 181.136 197.142 181.064 197.102C180.993 197.061 180.914 197.035 180.832 197.026C180.75 197.017 180.667 197.025 180.588 197.049C180.51 197.073 180.436 197.113 180.374 197.167C180.263 197.299 180.19 197.458 180.162 197.628C180.11 197.916 180.087 198.209 180.095 198.502V199.367C180.184 199.222 180.315 199.108 180.47 199.04C180.715 198.938 180.981 198.897 181.246 198.921C181.51 198.944 181.765 199.031 181.989 199.175C182.226 199.364 182.397 199.622 182.479 199.914C182.58 200.264 182.628 200.627 182.623 200.99C182.63 201.416 182.571 201.841 182.45 202.249C182.344 202.597 182.137 202.905 181.854 203.133C181.54 203.383 181.15 203.519 180.749 203.517ZM180.749 202.556C180.821 202.56 180.893 202.547 180.96 202.519C181.026 202.49 181.085 202.448 181.133 202.393C181.236 202.266 181.303 202.113 181.325 201.951C181.358 201.729 181.374 201.504 181.373 201.279C181.373 201.022 181.373 200.792 181.373 200.587C181.365 200.412 181.308 200.242 181.21 200.097C181.157 200.032 181.089 199.981 181.012 199.949C180.935 199.917 180.851 199.905 180.768 199.914C180.669 199.913 180.57 199.933 180.479 199.972C180.399 200.009 180.324 200.057 180.258 200.116C180.205 200.169 180.156 200.227 180.114 200.289V201.461C180.112 201.649 180.132 201.835 180.172 202.018C180.203 202.174 180.273 202.319 180.374 202.441C180.482 202.529 180.619 202.573 180.758 202.566L180.749 202.556Z" fill="#1A2E35"/>
<path d="M111.963 216.199L113.396 209.935H111.473V208.974H114.636V209.724L113.184 216.18L111.963 216.199Z" fill="#1A2E35"/>
<path d="M147.807 216.295C147.421 216.316 147.036 216.222 146.702 216.026C146.423 215.84 146.213 215.566 146.106 215.248C145.976 214.881 145.914 214.494 145.923 214.105C145.922 213.914 145.941 213.724 145.981 213.538C146.015 213.37 146.074 213.209 146.154 213.058C146.225 212.92 146.315 212.794 146.423 212.683C146.53 212.571 146.653 212.477 146.789 212.404C146.564 212.247 146.38 212.04 146.25 211.799C146.098 211.502 146.019 211.172 146.02 210.838C146.013 210.486 146.078 210.136 146.212 209.81C146.335 209.534 146.544 209.305 146.808 209.157C147.119 209.005 147.461 208.926 147.807 208.926C148.154 208.926 148.496 209.005 148.807 209.157C149.066 209.31 149.268 209.542 149.384 209.82C149.523 210.14 149.586 210.489 149.566 210.838C149.575 211.171 149.502 211.501 149.355 211.799C149.229 212.042 149.044 212.25 148.817 212.404C148.954 212.475 149.077 212.569 149.182 212.683C149.296 212.791 149.39 212.918 149.461 213.058C149.534 213.211 149.589 213.372 149.624 213.538C149.664 213.724 149.683 213.914 149.682 214.105C149.698 214.493 149.64 214.882 149.509 215.248C149.402 215.566 149.192 215.84 148.913 216.026C148.579 216.222 148.194 216.316 147.807 216.295ZM147.807 215.335C147.89 215.34 147.973 215.327 148.05 215.295C148.127 215.263 148.195 215.214 148.25 215.152C148.35 215.023 148.416 214.871 148.442 214.71C148.456 214.525 148.456 214.338 148.442 214.153C148.461 213.958 148.461 213.762 148.442 213.567C148.41 213.4 148.341 213.242 148.24 213.106C148.186 213.046 148.119 212.999 148.044 212.969C147.969 212.939 147.888 212.927 147.807 212.933C147.728 212.927 147.649 212.94 147.576 212.97C147.503 213 147.437 213.046 147.384 213.106C147.278 213.24 147.206 213.398 147.173 213.567C147.133 213.76 147.114 213.956 147.115 214.153C147.115 214.34 147.134 214.527 147.173 214.71C147.197 214.875 147.263 215.03 147.365 215.162C147.419 215.226 147.487 215.277 147.564 215.312C147.64 215.347 147.723 215.365 147.807 215.363V215.335ZM147.807 211.885C147.873 211.886 147.938 211.873 147.997 211.847C148.057 211.82 148.11 211.781 148.154 211.732C148.252 211.617 148.315 211.477 148.336 211.328C148.377 211.136 148.396 210.939 148.394 210.742C148.401 210.511 148.355 210.281 148.259 210.07C148.216 209.989 148.151 209.922 148.071 209.877C147.99 209.833 147.899 209.813 147.807 209.82C147.715 209.815 147.623 209.835 147.541 209.879C147.46 209.923 147.392 209.989 147.346 210.07C147.243 210.275 147.193 210.503 147.202 210.733C147.2 210.933 147.22 211.132 147.26 211.328C147.284 211.478 147.351 211.618 147.452 211.732C147.493 211.787 147.547 211.833 147.608 211.864C147.67 211.896 147.738 211.913 147.807 211.914V211.885Z" fill="#1A2E35"/>
<path d="M147.807 228.824C147.441 228.839 147.077 228.749 146.76 228.564C146.486 228.382 146.269 228.125 146.135 227.824C145.992 227.48 145.92 227.111 145.924 226.739V223.559C145.915 223.18 145.984 222.805 146.125 222.454C146.25 222.147 146.464 221.886 146.741 221.704C147.068 221.528 147.435 221.435 147.807 221.435C148.18 221.435 148.547 221.528 148.874 221.704C149.148 221.887 149.359 222.148 149.48 222.454C149.621 222.805 149.69 223.18 149.682 223.559V226.758C149.688 227.13 149.62 227.499 149.48 227.844C149.343 228.142 149.127 228.398 148.855 228.583C148.536 228.761 148.172 228.845 147.807 228.824ZM147.807 227.767C147.883 227.772 147.958 227.761 148.028 227.732C148.099 227.704 148.161 227.66 148.211 227.603C148.308 227.485 148.371 227.342 148.394 227.19C148.424 227.035 148.44 226.878 148.442 226.72V223.559C148.44 223.391 148.424 223.224 148.394 223.059C148.378 222.907 148.318 222.763 148.221 222.646C148.169 222.589 148.105 222.544 148.033 222.516C147.962 222.487 147.884 222.476 147.807 222.483C147.729 222.477 147.651 222.489 147.578 222.518C147.505 222.546 147.439 222.59 147.385 222.646C147.295 222.768 147.236 222.91 147.212 223.059C147.197 223.225 147.197 223.392 147.212 223.559V226.72C147.198 226.876 147.198 227.034 147.212 227.19C147.243 227.339 147.305 227.48 147.394 227.603C147.445 227.661 147.509 227.706 147.581 227.735C147.653 227.763 147.731 227.774 147.807 227.767Z" fill="#1A2E35"/>
<path d="M180.624 216.295C180.269 216.311 179.915 216.238 179.595 216.084C179.334 215.949 179.127 215.729 179.009 215.459C178.879 215.156 178.813 214.829 178.817 214.499V214.403H179.999C179.984 214.648 180.024 214.894 180.114 215.123C180.168 215.21 180.245 215.278 180.338 215.321C180.43 215.364 180.533 215.379 180.633 215.363C180.701 215.367 180.769 215.356 180.832 215.331C180.895 215.306 180.952 215.268 180.999 215.219C181.114 215.088 181.185 214.923 181.2 214.748C181.244 214.462 181.264 214.173 181.258 213.884V212.99C181.171 213.134 181.039 213.245 180.883 213.307C180.695 213.388 180.492 213.43 180.287 213.432C179.944 213.465 179.602 213.369 179.326 213.163C179.094 212.958 178.924 212.691 178.836 212.395C178.735 212.042 178.686 211.676 178.692 211.309C178.686 210.885 178.751 210.463 178.884 210.06C178.996 209.724 179.207 209.429 179.489 209.215C179.813 208.998 180.196 208.89 180.585 208.907C180.969 208.896 181.347 208.999 181.671 209.205C181.953 209.412 182.164 209.7 182.277 210.031C182.41 210.417 182.475 210.824 182.469 211.232V213.788C182.472 214.219 182.417 214.649 182.306 215.066C182.206 215.414 182.009 215.727 181.739 215.969C181.414 216.2 181.021 216.315 180.624 216.295ZM180.624 212.5C180.765 212.505 180.904 212.461 181.018 212.375C181.108 212.298 181.186 212.207 181.248 212.106V210.982C181.253 210.792 181.237 210.602 181.2 210.415C181.169 210.268 181.103 210.129 181.008 210.012C180.904 209.908 180.762 209.849 180.614 209.849C180.466 209.849 180.324 209.908 180.22 210.012C180.122 210.142 180.056 210.294 180.028 210.454C179.995 210.677 179.979 210.901 179.98 211.126C179.98 211.383 179.98 211.613 179.98 211.818C179.99 211.996 180.046 212.168 180.143 212.318C180.203 212.387 180.279 212.439 180.365 212.471C180.451 212.503 180.543 212.513 180.633 212.5H180.624Z" fill="#1A2E35"/>
<path d="M139.676 157.497V150.282H142.723V151.242H140.992V153.308H142.338V154.269H140.992V156.651H142.723V157.564L139.676 157.497Z" fill="white"/>
<path d="M143.482 157.497V150.282H144.443L146.193 154.394V150.282H147.279V157.497H146.404L144.645 153.183V157.497H143.482Z" fill="white"/>
<path d="M149.057 157.497V151.252H147.913V150.291H151.508V151.252H150.412V157.497H149.057Z" fill="white"/>
<path d="M152.171 157.497V150.282H155.218V151.242H153.488V153.308H154.834V154.269H153.488V156.651H155.218V157.564L152.171 157.497Z" fill="white"/>
<path d="M155.978 157.497V150.282H157.708C158.125 150.272 158.54 150.331 158.938 150.455C159.257 150.557 159.529 150.768 159.707 151.05C159.899 151.4 159.988 151.796 159.967 152.194C159.968 152.455 159.942 152.716 159.89 152.972C159.842 153.187 159.75 153.389 159.621 153.567C159.48 153.736 159.298 153.866 159.092 153.942L160.053 157.497H158.775L157.9 154.192H157.295V157.497H155.978ZM157.295 153.366H157.708C157.916 153.375 158.123 153.336 158.314 153.25C158.389 153.216 158.457 153.167 158.513 153.106C158.569 153.045 158.612 152.973 158.64 152.895C158.712 152.695 158.744 152.483 158.736 152.27C158.755 151.985 158.688 151.701 158.544 151.454C158.446 151.352 158.325 151.274 158.192 151.228C158.058 151.181 157.916 151.166 157.775 151.185H157.295V153.366Z" fill="white"/>
<path d="M121.874 53.5526L120.614 47.2981H121.576L122.402 51.7176L123.171 47.2981H124.209L122.95 53.5526H121.874Z" fill="#1A2E35"/>
<path d="M124.901 53.5526V47.2981H127.526V48.1051H126.045V49.9017H127.208V50.6896H126.045V52.7648H127.535V53.5526H124.901Z" fill="#1A2E35"/>
<path d="M128.198 53.5526V47.2981H129.698C130.06 47.2873 130.421 47.3393 130.765 47.4518C131.042 47.5335 131.278 47.7149 131.428 47.961C131.592 48.2542 131.671 48.5865 131.659 48.9218C131.663 49.151 131.64 49.3799 131.592 49.6039C131.549 49.789 131.467 49.9627 131.351 50.1131C131.236 50.2642 131.079 50.3779 130.9 50.4398L131.765 53.5238H130.621L129.871 50.6415H129.342V53.5238L128.198 53.5526ZM129.342 49.969H129.698C129.879 49.978 130.06 49.9451 130.227 49.8729C130.292 49.8436 130.35 49.8012 130.398 49.7483C130.446 49.6954 130.483 49.6331 130.505 49.5655C130.568 49.3899 130.598 49.2042 130.592 49.0178C130.609 48.7717 130.548 48.5265 130.419 48.3165C130.338 48.2266 130.236 48.1578 130.122 48.1159C130.008 48.0741 129.886 48.0605 129.765 48.0763H129.342V49.969Z" fill="#1A2E35"/>
<path d="M132.543 53.5526V47.2981H133.678V53.5526H132.543Z" fill="#1A2E35"/>
<path d="M134.639 53.5526V47.2981H137.205V48.0859H135.783V49.9113H136.955V50.6992H135.792V53.5814L134.639 53.5526Z" fill="#1A2E35"/>
<path d="M137.83 53.5526V47.2981H138.964V53.5526H137.83Z" fill="#1A2E35"/>
<path d="M141.608 53.6295C141.23 53.6529 140.853 53.559 140.531 53.3605C140.272 53.1873 140.081 52.929 139.993 52.6303C139.887 52.2915 139.835 51.938 139.839 51.5831V49.3445C139.833 48.9698 139.889 48.5967 140.002 48.2396C140.089 47.9398 140.28 47.6808 140.541 47.5094C140.869 47.3267 141.242 47.2402 141.617 47.2596C141.97 47.2433 142.321 47.3195 142.636 47.4806C142.875 47.624 143.058 47.8442 143.155 48.1051C143.265 48.4133 143.317 48.7389 143.309 49.0659V49.5943H142.213V49.0467C142.224 48.8899 142.224 48.7326 142.213 48.5759C142.201 48.4487 142.151 48.3282 142.069 48.23C142.012 48.1823 141.946 48.1466 141.875 48.1251C141.804 48.1037 141.729 48.0969 141.656 48.1051C141.578 48.0977 141.5 48.1058 141.426 48.1289C141.352 48.152 141.283 48.1897 141.223 48.2396C141.132 48.3388 141.072 48.4623 141.05 48.5951C141.039 48.7679 141.039 48.9411 141.05 49.1139V51.8232C141.046 52.0138 141.065 52.2042 141.108 52.3901C141.138 52.5158 141.205 52.6296 141.3 52.7167C141.415 52.7985 141.553 52.8391 141.694 52.832C141.767 52.8394 141.841 52.8312 141.91 52.808C141.98 52.7849 142.044 52.7472 142.098 52.6975C142.183 52.5931 142.236 52.4664 142.252 52.3324C142.263 52.1661 142.263 51.9992 142.252 51.8328V51.2756H143.347V51.7752C143.351 52.1011 143.302 52.4255 143.203 52.736C143.114 53.0139 142.93 53.2518 142.684 53.4085C142.356 53.5909 141.981 53.668 141.608 53.6295Z" fill="#1A2E35"/>
<path d="M143.78 53.5526L145.03 47.2981H146.25L147.5 53.5526H146.443L146.193 52.1019H145.106L144.847 53.5526H143.78ZM145.222 51.3813H146.068L145.645 48.7584L145.222 51.3813Z" fill="#1A2E35"/>
<path d="M148.49 53.5526V48.1435H147.529V47.2981H150.643V48.1435H149.682V53.5526H148.49Z" fill="#1A2E35"/>
<path d="M151.181 53.5526V47.2981H152.335V53.5526H151.181Z" fill="#1A2E35"/>
<path d="M154.969 53.6295C154.601 53.6493 154.234 53.5661 153.911 53.3893C153.648 53.2218 153.449 52.9717 153.344 52.6783C153.23 52.3247 153.174 51.9547 153.181 51.5831V49.2388C153.174 48.8735 153.229 48.5097 153.344 48.1628C153.447 47.8731 153.647 47.6284 153.911 47.471C154.243 47.3131 154.606 47.2311 154.973 47.2311C155.341 47.2311 155.704 47.3131 156.035 47.471C156.3 47.6284 156.5 47.8731 156.603 48.1628C156.725 48.5079 156.784 48.8726 156.776 49.2388V51.5831C156.784 51.9493 156.725 52.3139 156.603 52.6591C156.498 52.9525 156.298 53.2026 156.035 53.3701C155.713 53.5584 155.342 53.6485 154.969 53.6295ZM154.969 52.7936C155.12 52.8086 155.272 52.7638 155.391 52.6687C155.486 52.5781 155.549 52.4607 155.574 52.3325C155.589 52.1759 155.589 52.0182 155.574 51.8617V48.9794C155.59 48.8229 155.59 48.6652 155.574 48.5086C155.549 48.3832 155.485 48.2689 155.391 48.182C155.269 48.0945 155.119 48.0537 154.969 48.0667C154.824 48.0549 154.681 48.0959 154.565 48.182C154.468 48.2683 154.401 48.3825 154.373 48.5086C154.357 48.6652 154.357 48.8229 154.373 48.9794V51.8617C154.358 52.0182 154.358 52.1759 154.373 52.3325C154.392 52.472 154.465 52.5985 154.576 52.6847C154.688 52.7709 154.829 52.81 154.969 52.7936Z" fill="#1A2E35"/>
<path d="M157.622 53.5526V47.2981H158.41L159.938 50.8625V47.2981H160.899V53.5526H160.15L158.621 49.8153V53.5526H157.622Z" fill="#1A2E35"/>
<path d="M165.379 53.6295C165.001 53.6517 164.625 53.5578 164.302 53.3605C164.043 53.1873 163.852 52.929 163.764 52.6303C163.655 52.2822 163.603 51.9189 163.61 51.5542V49.3157C163.602 48.9415 163.653 48.5685 163.764 48.2108C163.85 47.911 164.041 47.652 164.302 47.4806C164.631 47.2994 165.003 47.2129 165.379 47.2308C165.732 47.2131 166.083 47.2894 166.397 47.4518C166.636 47.5952 166.819 47.8154 166.916 48.0763C167.026 48.3844 167.078 48.7101 167.07 49.0371V49.5655H165.975V49.0178C165.985 48.8611 165.985 48.7038 165.975 48.5471C165.962 48.4199 165.912 48.2993 165.83 48.2012C165.774 48.1525 165.708 48.1162 165.637 48.0946C165.566 48.0731 165.491 48.0669 165.417 48.0763C165.341 48.068 165.264 48.0757 165.191 48.0988C165.118 48.122 165.051 48.1601 164.994 48.2108C164.896 48.3047 164.834 48.4309 164.821 48.5663C164.789 48.7374 164.773 48.911 164.773 49.0851V51.7944C164.769 51.985 164.788 52.1754 164.831 52.3613C164.86 52.4894 164.931 52.6043 165.033 52.6879C165.143 52.7711 165.279 52.8121 165.417 52.8032C165.49 52.8106 165.564 52.8024 165.633 52.7792C165.703 52.756 165.767 52.7184 165.821 52.6687C165.91 52.5666 165.964 52.4386 165.975 52.3036C165.986 52.1373 165.986 51.9704 165.975 51.804V51.2468H167.07V51.7464C167.074 52.0723 167.025 52.3967 166.926 52.7071C166.837 52.9825 166.658 53.2196 166.417 53.3797C166.101 53.5593 165.741 53.6459 165.379 53.6295Z" fill="#1A2E35"/>
<path d="M169.57 53.6295C169.202 53.6493 168.835 53.5661 168.512 53.3893C168.247 53.2247 168.046 52.9735 167.945 52.6783C167.822 52.3265 167.764 51.9555 167.772 51.5831V49.2388C167.764 48.8726 167.822 48.5079 167.945 48.1628C168.044 47.871 168.245 47.6251 168.512 47.471C168.844 47.3131 169.207 47.2311 169.574 47.2311C169.942 47.2311 170.305 47.3131 170.636 47.471C170.898 47.6288 171.095 47.8738 171.194 48.1628C171.325 48.506 171.387 48.8716 171.377 49.2388V51.5831C171.387 51.9502 171.325 52.3158 171.194 52.6591C171.093 52.9518 170.897 53.2021 170.636 53.3701C170.314 53.5584 169.943 53.6485 169.57 53.6295ZM169.57 52.7936C169.709 52.81 169.85 52.7709 169.962 52.6847C170.073 52.5985 170.146 52.472 170.165 52.3325C170.197 52.1775 170.213 52.0198 170.214 51.8617V48.9794C170.213 48.8213 170.197 48.6636 170.165 48.5086C170.144 48.382 170.08 48.2666 169.983 48.182C169.863 48.096 169.717 48.0551 169.57 48.0667C169.423 48.0568 169.277 48.0975 169.156 48.182C169.059 48.2666 168.995 48.382 168.974 48.5086C168.958 48.6652 168.958 48.8229 168.974 48.9794V51.8617C168.958 52.0182 168.958 52.1759 168.974 52.3325C168.998 52.4607 169.062 52.5781 169.156 52.6687C169.274 52.7597 169.421 52.8042 169.57 52.7936Z" fill="#1A2E35"/>
<path d="M172.213 53.5526V47.2981H173.684C174.092 47.2765 174.5 47.3488 174.876 47.5094C175.154 47.635 175.374 47.8617 175.491 48.1435C175.62 48.4938 175.682 48.8655 175.673 49.2388V51.5254C175.681 51.9112 175.619 52.2952 175.491 52.6591C175.373 52.9469 175.159 53.1847 174.885 53.3316C174.523 53.4944 174.128 53.5701 173.732 53.5526H172.213ZM173.357 52.7552H173.703C173.903 52.7721 174.102 52.7213 174.27 52.6111C174.329 52.5605 174.377 52.4988 174.411 52.4295C174.446 52.3602 174.466 52.2848 174.472 52.2075C174.489 51.9901 174.489 51.7717 174.472 51.5542V49.1619C174.474 48.9591 174.458 48.7566 174.424 48.5567C174.41 48.4878 174.383 48.4223 174.343 48.3645C174.304 48.3066 174.253 48.2575 174.193 48.2204C174.026 48.1285 173.835 48.0884 173.645 48.1051H173.318L173.357 52.7552Z" fill="#1A2E35"/>
<path d="M176.51 53.5526V47.2981H179.134V48.1051H177.654V49.9017H178.817V50.6896H177.654V52.7648H179.153V53.5526H176.51Z" fill="#1A2E35"/>
<path d="M261.145 4.38105V33.5881" stroke="#1A2E35" stroke-linecap="round" stroke-linejoin="round" stroke-dasharray="5 5"/>
<path d="M261.136 83.4514V108.056C261.136 111.963 259.583 115.709 256.82 118.471C254.056 121.233 250.308 122.785 246.4 122.785H218.717" stroke="#1A2E35" stroke-linecap="round" stroke-linejoin="round" stroke-dasharray="5 5"/>
<path d="M220.466 116.799L210.095 122.785L220.466 128.78V116.799Z" fill="#1A2E35"/>
<path d="M293.982 46.6945L241.296 35.8561L233.533 73.5539L286.219 84.3922L293.982 46.6945Z" fill="#1A2E35"/>
<path d="M291.265 43.192L238.579 32.3536L230.817 70.0514L283.502 80.8897L291.265 43.192Z" fill="white" stroke="#1A2E35" stroke-miterlimit="10"/>
<path d="M238.585 32.3295L261.049 56.5982L291.28 43.1668" stroke="#1A2E35" stroke-linecap="round" stroke-linejoin="round"/>
</g>
<defs>
<linearGradient id="paint0_linear_70_1294" x1="10.2625" y1="92.2103" x2="280.547" y2="167.915" gradientUnits="userSpaceOnUse">
<stop stop-color="#F8931F"/>
<stop offset="1" stop-color="#EB5A17"/>
</linearGradient>
<linearGradient id="paint1_linear_70_1294" x1="10.2625" y1="92.2103" x2="280.547" y2="167.915" gradientUnits="userSpaceOnUse">
<stop stop-color="#F8931F"/>
<stop offset="1" stop-color="#EB5A17"/>
</linearGradient>
<linearGradient id="paint2_linear_70_1294" x1="131.284" y1="154.038" x2="168.483" y2="154.038" gradientUnits="userSpaceOnUse">
<stop stop-color="#F8931F"/>
<stop offset="1" stop-color="#EB5A17"/>
</linearGradient>
<linearGradient id="paint3_linear_70_1294" x1="129.784" y1="85.6227" x2="169.983" y2="85.6227" gradientUnits="userSpaceOnUse">
<stop stop-color="#F8931F"/>
<stop offset="1" stop-color="#EB5A17"/>
</linearGradient>
<linearGradient id="paint4_linear_70_1294" x1="89.6919" y1="131.028" x2="210.076" y2="131.028" gradientUnits="userSpaceOnUse">
<stop stop-color="#F8931F"/>
<stop offset="1" stop-color="#EB5A17"/>
</linearGradient>
<clipPath id="clip0_70_1294">
<rect width="294" height="272" fill="white"/>
</clipPath>
</defs>
</svg>
